<?xml version="1.0" encoding="UTF-8"?>
<svg xmlns="http://www.w3.org/2000/svg" width="137" height="60" viewBox="0 0 137 60" fill="none">
  <path d="M132.921 19.1186C134.664 29.111 107.461 42.1971 72.1546 48.3464C36.852 54.4957 6.81984 51.3753 5.07896 41.3787C3.3395 31.3848 30.5494 18.303 65.852 12.1551C101.156 6.00295 131.183 9.1233 132.921 19.1186Z" fill="#034EA2"></path>
  <path d="M99.6934 33.9524L99.5121 23.562H102.788V36.6579H98.0777L94.8083 25.9104H94.738L94.9194 36.6579H91.6641V23.562H96.5787L99.6203 33.9524H99.6934Z" fill="white"></path>
  <path d="M40.137 24.7882L38.3244 36.7957H34.7512L37.205 23.562H43.0914L45.5339 36.7957H41.9749L40.2115 24.7882H40.137Z" fill="white"></path>
  <path d="M53.8558 36.7957L51.6424 24.8979H51.5707L51.4877 36.7957H48.1733L48.4658 23.562H53.8656L55.4996 33.6782H55.5699L57.2054 23.562H62.6023L62.8892 36.7957H59.5818L59.4946 24.8979H59.4257L57.2138 36.7957H53.8558Z" fill="white"></path>
  <path d="M29.1783 33.0623C29.3077 33.3829 29.2683 33.795 29.2078 34.0439C29.0967 34.484 28.7986 34.9326 27.9183 34.9326C27.0887 34.9326 26.5853 34.4573 26.5853 33.7303V32.4492H23.036L23.0332 33.4743C23.0332 36.4245 25.3562 37.3147 27.8452 37.3147C30.2386 37.3147 32.2101 36.4963 32.5236 34.2913C32.6839 33.1481 32.5644 32.4 32.5096 32.1174C31.9513 29.3472 26.9284 28.5203 26.5543 26.9707C26.491 26.7049 26.5093 26.4237 26.5403 26.2732C26.6317 25.8513 26.9213 25.3859 27.7496 25.3859C28.523 25.3859 28.98 25.864 28.98 26.5868C28.98 26.8301 28.98 27.4038 28.98 27.4038H32.2804V26.4743C32.2804 23.5916 29.693 23.1416 27.8185 23.1416C25.4645 23.1416 23.5408 23.9192 23.1893 26.0735C23.0937 26.6683 23.0796 27.1985 23.2188 27.8622C23.7968 30.5663 28.4977 31.3496 29.1783 33.0623Z" fill="white"></path>
  <path d="M72.2108 33.0385C72.3416 33.3563 72.2994 33.7571 72.2403 34.006C72.132 34.4447 71.8367 34.8863 70.9621 34.8863C70.1437 34.8863 69.6445 34.411 69.6445 33.7009L69.6417 32.4311H66.129L66.1248 33.4421C66.1248 36.3628 68.4267 37.2445 70.8904 37.2445C73.2584 37.2445 75.2116 36.4373 75.5196 34.2521C75.6799 33.1173 75.566 32.379 75.5083 32.102C74.9529 29.3571 69.9806 28.5387 69.6107 27.0045C69.5474 26.7402 69.5657 26.4618 69.5981 26.3197C69.6923 25.8951 69.9763 25.4409 70.7961 25.4409C71.5625 25.4409 72.0097 25.9077 72.0097 26.6249C72.0097 26.8653 72.0097 27.4334 72.0097 27.4334H75.2847V26.5138C75.2847 23.662 72.7184 23.2148 70.8622 23.2148C68.535 23.2148 66.6268 23.9826 66.2822 26.1215C66.1866 26.7078 66.1768 27.2281 66.3132 27.889C66.8827 30.565 71.5372 31.3427 72.2108 33.0385Z" fill="white"></path>
  <path d="M83.3269 34.8161C84.2451 34.8161 84.532 34.1805 84.5953 33.8556C84.622 33.7122 84.629 33.521 84.6262 33.3494V23.5566H87.9729V33.0499C87.98 33.2932 87.9561 33.7938 87.9448 33.9189C87.71 36.3896 85.7568 37.1911 83.3255 37.1911C80.8913 37.1911 78.9367 36.3896 78.7047 33.9189C78.6934 33.7938 78.6695 33.2932 78.6766 33.0499V23.5566H82.0205V33.3494C82.0205 33.521 82.0261 33.7136 82.0514 33.8556C82.1232 34.1805 82.4016 34.8161 83.3269 34.8161Z" fill="white"></path>
  <path d="M110.933 34.6766C111.892 34.6766 112.227 34.0705 112.289 33.7176C112.313 33.5657 112.32 33.3815 112.318 33.2142V31.2933H110.96V29.3612H115.653V32.9132C115.65 33.1607 115.644 33.3435 115.605 33.7851C115.384 36.1925 113.296 37.0517 110.95 37.0517C108.6 37.0517 106.515 36.1925 106.291 33.7851C106.253 33.3435 106.248 33.1607 106.244 32.9132L106.246 27.3405C106.246 27.1056 106.276 26.6894 106.301 26.4686C106.595 23.9951 108.6 23.1992 110.95 23.1992C113.297 23.1992 115.352 23.9909 115.595 26.4686C115.638 26.8905 115.624 27.3405 115.624 27.3405V27.782H112.287V27.041C112.29 27.0424 112.283 26.726 112.244 26.5375C112.188 26.245 111.933 25.5729 110.925 25.5729C109.96 25.5729 109.678 26.2085 109.607 26.5375C109.567 26.7119 109.551 26.9481 109.551 27.1619V33.2142C109.548 33.3815 109.558 33.5657 109.585 33.7176C109.642 34.0719 109.976 34.6766 110.933 34.6766Z" fill="white"></path>
</svg>
