<?xml version="1.0" encoding="UTF-8"?>
<svg xmlns="http://www.w3.org/2000/svg" width="137" height="60" viewBox="0 0 137 60" fill="none">
  <path fill-rule="evenodd" clip-rule="evenodd" d="M11.5435 30.0019C11.5435 41.7006 35.4132 51.4183 68.5082 51.4183C101.603 51.4183 125.456 41.7006 125.456 30.0019C125.456 18.3032 101.586 8.58545 68.5082 8.58545C35.4302 8.58545 11.5435 18.3032 11.5435 30.0019Z" fill="#FBD914"></path>
  <path d="M64.2849 37.1482C64.659 37.6808 65.0672 38.1802 65.5434 38.6297H52.7031C52.7031 38.1302 52.2099 37.1148 51.6656 36.3159C51.1215 35.5168 48.1792 31.1391 48.1792 31.1391V37.1482C48.1792 37.6475 48.1792 38.1302 48.4343 38.6297H37.737C37.9921 38.1302 37.9921 37.6475 37.9921 37.1482V22.8659C37.9921 22.3665 37.9921 21.8838 37.737 21.3845H48.4343C48.1792 21.8838 48.1792 22.3665 48.1792 22.8659V29.1082C48.1792 29.1082 51.5976 24.747 52.38 23.7315C52.9751 22.9658 53.7066 21.8837 53.7066 21.3845H64.8631C64.0977 21.8838 63.2474 22.7827 62.5501 23.615C61.9378 24.3474 58.4684 28.4922 58.4684 28.4922C58.4684 28.4922 63.6046 36.1661 64.2849 37.1482ZM67.6522 22.8659V37.1482C67.6522 37.6475 67.6522 38.1302 67.397 38.6297H88.0435V33.8356C87.5333 34.0852 87.04 34.0852 86.5299 34.0852H77.8394V31.8214H86.1897V28.1925H77.8394V25.9121H86.5299C87.0402 25.9121 87.5333 25.9121 88.0435 26.1452V21.3678H67.397C67.6522 21.8838 67.6522 22.3665 67.6522 22.8659ZM116.649 37.1482C116.819 37.6975 117.108 38.1969 117.483 38.6297H106.292C106.343 38.1302 106.156 37.6475 105.952 37.1482C105.952 37.1482 105.782 36.7486 105.544 36.1661L105.442 35.9164H98.996L98.8939 36.1826C98.8939 36.1826 98.7068 36.6655 98.5368 37.1648C98.3667 37.6642 98.1796 38.1469 98.2477 38.6462H89.4211C89.7816 38.2096 90.0532 37.7063 90.2205 37.1648L95.5096 22.8825C95.6967 22.3832 95.8837 21.9005 95.8157 21.4011H110.731C110.595 21.9005 110.867 22.3832 111.054 22.8825C111.496 23.9645 116.275 36.1826 116.649 37.1482ZM104.03 32.2709L102.465 28.2758C102.329 27.9097 102.21 27.5268 102.125 27.1439C102.057 27.5296 101.955 27.9085 101.819 28.2758C101.768 28.4424 101.105 30.1902 100.339 32.2709H104.03ZM32.6688 21.3845H21.0361C21.2912 21.8838 21.2912 22.3665 21.2912 22.8659V37.1482C21.2912 37.6475 21.2912 38.1302 21.0361 38.6297H32.6688C32.4137 38.1302 32.4137 37.6475 32.4137 37.1482V22.8659C32.4137 22.3665 32.4137 21.8838 32.6688 21.3845ZM113.078 22.7494C113.027 21.5343 113.996 20.5189 115.238 20.4856H115.391C116.649 20.4689 117.687 21.4343 117.704 22.6661V22.7494C117.738 23.9979 116.734 25.0466 115.442 25.0799C114.166 25.1132 113.095 24.131 113.061 22.8659C113.078 22.8326 113.078 22.7827 113.078 22.7494ZM113.537 22.7494C113.537 23.7481 114.37 24.5639 115.391 24.5639C116.411 24.5639 117.244 23.7481 117.244 22.7494C117.244 21.7507 116.411 20.935 115.391 20.935C114.404 20.9016 113.571 21.6507 113.537 22.6161V22.7494ZM114.931 24.0977H114.523V21.3678H115.561C116.054 21.3845 116.428 21.7672 116.428 22.25C116.428 22.5829 116.241 22.8825 115.935 23.049L116.53 24.0977H116.071L115.527 23.1323H114.931V24.0977ZM114.931 22.7494H115.493C115.765 22.7661 116.003 22.5662 116.003 22.2999C116.003 22.0336 115.816 21.8005 115.544 21.8005H114.931V22.7494Z" fill="#0058A3"></path>
</svg>
