<?xml version="1.0" encoding="UTF-8"?>
<svg xmlns="http://www.w3.org/2000/svg" width="137" height="60" viewBox="0 0 137 60" fill="none">
  <g clip-path="url(#clip0_380_189)">
    <path d="M11.4962 19C5.74477 19 1 23.3992 1 29.582C1 35.7645 5.74477 40.1641 11.4962 40.1641C15.4359 40.1641 18.9155 38.0374 20.6984 34.7587L17.1325 32.7171C16.0973 34.8447 13.998 36.1385 11.4962 36.1385C7.90155 36.1385 5.1699 33.4641 5.1699 29.582C5.1699 25.6999 7.90155 23.0255 11.4962 23.0255C13.998 23.0255 16.0973 24.3198 17.1325 26.4478L20.6984 24.4061C18.9155 21.1282 15.4359 19 11.4962 19ZM25.7299 19.5174V39.6459H29.7562V31.0196H39.8208V39.6466H43.8463V19.5174H39.8208V26.9941H29.7562V19.5174H25.7299ZM56.7868 19.5174L47.8719 39.6466H52.272L54.2559 35.0459H64.7802L66.7648 39.6466H71.1642L62.2507 19.5174H56.7868ZM75.1905 19.5174V39.6466H78.928V23.8021L89.7122 39.6466H93.3069V19.5174H89.5686V32.8607L80.5107 19.5174H75.1905ZM101.07 19.5174V39.6466L116.024 39.6474V35.9091H104.808V31.3084H114.011V27.5693H104.808V23.2558H115.448V19.5175L101.07 19.5174ZM122.494 19.5174V39.6466V39.6474H137.16V35.6219H126.52V19.5175L122.494 19.5174ZM59.5184 22.8242L63.1709 31.3076H55.8659L59.5184 22.8242Z" fill="black"></path>
  </g>
  <defs>
    <clipPath id="clip0_380_189">
      <rect width="137" height="60" fill="white"></rect>
    </clipPath>
  </defs>
</svg>
