<?xml version="1.0" encoding="UTF-8"?>
<svg xmlns="http://www.w3.org/2000/svg" width="137" height="60" viewBox="0 0 137 60" fill="none">
  <path d="M35.4459 21.626C34.2556 21.626 33.4606 20.8976 33.4606 19.7947C33.4606 18.8791 34.1016 18.08 35.4459 18.08C36.7361 18.08 37.3729 18.9124 37.3729 19.828C37.3729 20.9518 36.6445 21.6593 35.4459 21.6593M24.0296 37.2625C21.4617 37.2625 19.2683 35.8142 19.2683 33.0589C19.2683 29.7294 22.9641 29.001 24.579 28.7846C27.2343 28.4516 27.4757 28.2685 27.4757 27.5651C27.4757 26.0751 27.2093 24.8598 25.3406 24.8598C24.0837 24.8598 23.0807 25.2219 22.1192 25.7963L21.6198 26.1292C21.4533 26.2541 21.162 26.5871 20.829 26.5871C20.6626 26.5871 20.3296 26.4123 20.3296 25.9753V24.6101C20.3296 24.3271 20.4545 24.0607 20.7874 23.8693C22.036 23.2616 23.9089 22.9245 25.5737 22.9245C29.9021 22.9245 31.1924 24.6309 31.1924 27.1073V36.6049C31.1924 36.813 31.0675 36.9629 30.8178 36.9629H28.0292C27.9044 36.9629 27.7379 36.8172 27.7379 36.6049L27.6547 35.8142C26.6974 36.6632 25.5321 37.2709 24.117 37.2709M27.5714 29.9541C24.2002 29.9541 22.91 31.4732 22.91 33.1255C22.91 34.2742 23.5343 35.4437 25.1575 35.4437C26.5726 35.4437 27.6131 34.3783 27.6131 33.9746V29.9541M72.1046 37.3208C69.9403 37.3208 68.3172 36.5592 67.235 35.7392C66.7772 35.4063 66.694 34.8236 66.694 34.3242V18.6044C66.694 18.388 66.8605 18.2298 66.9853 18.2298H69.9403C70.1484 18.2298 70.3149 18.388 70.3149 18.6044V24.6726C70.8976 24.1731 72.2294 23.116 74.3104 23.116C77.4735 23.116 79.4713 25.8629 79.4713 29.5254C79.4713 34.2285 76.2249 37.3499 72.1878 37.3499M70.2733 34.603C70.2733 34.8944 70.3482 35.1857 70.6895 35.3938C70.9808 35.6019 71.4386 35.7268 72.3543 35.7268C74.2979 35.7268 75.6755 33.729 75.6755 30.3162C75.6755 29.0676 75.3842 25.4467 72.6082 25.4467C71.4844 25.4467 70.6936 26.071 70.2358 26.4039V34.7279V34.6446M107.694 42.0113C107.319 42.0113 106.944 42.0113 106.428 41.8865C106.033 41.8032 105.817 41.5535 105.817 41.2622V39.51C105.817 39.3019 106 39.0938 106.216 39.0938C106.549 39.0938 106.799 39.177 107.148 39.2603C107.731 39.3851 108.272 39.4684 108.772 39.4684C110.478 39.4684 111.727 38.5944 111.768 36.888L106.233 24.0691C106.108 23.7361 106.066 23.6529 106.066 23.5696C106.066 23.3615 106.191 23.2783 106.358 23.2783H109.687C109.937 23.2783 110.062 23.3615 110.145 23.6113L113.475 32.3514L116.679 23.6113C116.721 23.4032 116.887 23.2783 117.096 23.2783H118.469C118.594 23.2783 118.719 23.4032 118.719 23.5696C118.719 23.6945 118.635 23.7777 118.594 23.9442L113.013 38.3446C112.234 40.3424 110.037 41.9864 107.685 41.9864M10.3367 37.3749C8.63861 37.3749 6.87393 37.0003 5.30903 36.2512C5.00521 36.0431 4.94694 35.9182 4.94694 35.6269V34.0994C4.94694 33.8206 5.04266 33.5459 5.55875 33.5459C5.83344 33.5459 6.01657 33.6916 6.40779 33.9746C7.97686 35.0692 9.471 35.5145 10.7362 35.5145C12.8672 35.5145 14.3155 34.2243 14.3155 32.6261C14.3322 28.4516 4.80127 29.7294 4.80127 23.5696C4.80127 20.7187 6.99879 18.2257 11.0567 18.2257C13.0753 18.2257 14.9065 18.6127 15.9387 19.0164C16.2176 19.1413 16.2717 19.2828 16.2717 19.5658V21.3347C16.2717 21.6052 16.1884 21.8174 15.8555 21.8174C15.5849 21.8174 15.3685 21.651 15.0314 21.4012C13.8119 20.5272 12.6466 19.9862 11.1191 19.9862C9.41274 19.9862 8.07258 20.9018 8.07258 22.3169C8.07258 25.8129 17.7408 25.4384 17.7408 31.057C17.7408 35.3022 14.2032 37.3 10.3325 37.3M36.9276 36.8838H33.9725C33.8061 36.8838 33.6396 36.7173 33.6396 36.5092V23.6071C33.6396 23.399 33.8061 23.2325 33.9309 23.2325H36.8443C37.0524 23.2325 37.2189 23.399 37.2189 23.6071V36.5966C37.2189 36.8172 37.0524 36.9587 36.8443 36.9587M87.0377 37.25C83.9995 37.25 80.9612 36.0015 80.9612 32.547V23.6529C80.9612 23.4448 81.0861 23.2783 81.2526 23.2783H84.2076C84.4157 23.2783 84.5822 23.4448 84.5822 23.6529V33.267C84.5822 34.6988 85.4978 35.5853 87.0377 35.5853C88.9106 35.5853 89.5349 34.5281 89.5349 32.547V23.6113C89.5349 23.4032 89.6598 23.2367 89.8262 23.2367H92.7396C92.9477 23.2367 93.1142 23.4032 93.1142 23.6113V32.1849C93.1142 35.9723 90.0343 37.2459 86.9961 37.2459M51.9939 36.9878H49.0389C48.8724 36.9878 48.7476 36.8297 48.7476 36.6133V27.4569C48.7476 26.4164 48.5811 25.1928 46.5833 25.1928C45.5428 25.1928 44.2942 25.7963 43.7116 26.1292V36.6174C43.7116 36.8255 43.5867 36.992 43.337 36.992H40.4236C40.2863 36.992 40.1323 36.8255 40.1323 36.6174V23.6321C40.1323 23.4073 40.2987 23.2575 40.5318 23.2575H43.4452C43.6533 23.2575 43.8281 23.4073 43.8281 23.6321V24.3271C44.6605 23.7694 46.5334 22.9537 48.2398 22.9537C51.1948 22.9537 52.485 24.6601 52.485 27.1573V36.6174C52.485 36.8255 52.3601 36.992 52.1104 36.992M59.3523 37.325C57.8956 37.325 56.3723 36.9712 55.1903 36.4385C54.8407 36.2595 54.7533 35.9931 54.7533 35.656V34.4574C54.7533 34.0287 54.9614 33.9038 55.2527 33.9038C55.4608 33.9038 55.6689 33.9995 55.8354 34.1535C57.084 35.0983 58.5407 35.5561 59.706 35.5561C61.0795 35.5561 62.0784 34.9734 62.0784 33.8497C62.0784 31.2277 54.4203 32.2265 54.4203 27.3737C54.4203 24.402 56.9591 23.0577 59.8309 23.0577C61.1211 23.0577 62.4529 23.3241 63.7015 23.836C64.0761 23.99 64.1593 24.2938 64.1593 24.6268V25.6381C64.1593 26.0627 63.9929 26.1875 63.7015 26.1875C63.5767 26.1875 63.327 26.0627 63.1189 25.9378C62.0367 25.1886 60.5801 24.7724 59.3315 24.7724C58.0829 24.7724 57.084 25.2303 57.084 26.2291C57.084 28.6431 64.9085 27.5193 64.9085 32.3472C64.9085 36.0098 62.2448 37.2584 59.4563 37.2584M99.2032 36.8838H96.2898C96.1441 36.8838 95.9985 36.7173 95.9985 36.5092V23.6071C95.9985 23.399 96.1441 23.2325 96.2898 23.2325H99.1199C99.3488 23.2325 99.4945 23.399 99.4945 23.6071L99.5569 25.2303C99.5736 25.2303 99.5778 25.2303 99.5819 25.1886C100.165 24.3146 101.538 22.9412 103.224 22.9412C103.627 22.9412 103.973 22.9412 104.555 23.066C104.972 23.1493 105.18 23.399 105.18 23.6903V25.6048C105.18 25.8129 104.988 26.021 104.764 26.021C104.431 26.021 104.139 25.8962 103.744 25.7713C103.349 25.6881 102.891 25.6465 102.433 25.6465C101.018 25.6465 99.6027 26.1875 99.6027 28.1436V36.3844C99.6027 36.5925 99.4571 36.7589 99.249 36.7589M120.267 22.9412C119.559 23.1493 120.974 21.4429 120.746 20.5272C120.496 19.6532 119.484 18.4462 120.204 18.1716C120.912 17.8927 122.244 17.8969 122.618 18.3797C123.451 19.9779 122.327 22.6041 120.259 22.9162L120.267 22.9412ZM126.747 37.3041C125.265 37.3041 123.759 36.9462 122.585 36.4135C122.227 36.247 122.14 35.9765 122.14 35.6394V34.449C122.14 34.0204 122.327 33.8955 122.627 33.8955C122.852 33.8955 123.043 34.0204 123.209 34.1452C124.446 35.1025 125.898 35.5603 127.08 35.5603H127.097C128.437 35.5603 129.469 34.9776 129.469 33.8539C129.469 31.2318 121.769 32.2307 121.769 27.4028C121.769 24.4478 124.308 23.116 127.18 23.116C128.47 23.116 129.827 23.3657 131.051 23.9068C131.425 24.0732 131.508 24.3646 131.508 24.6975V25.738C131.508 26.1542 131.329 26.2791 131.009 26.2791C130.872 26.2791 130.622 26.1542 130.443 26.0294C129.361 25.2802 127.887 24.864 126.664 24.864C125.415 24.864 124.416 25.3218 124.416 26.3207C124.416 28.7346 132.199 27.6525 132.199 32.4804C132.199 36.143 129.536 37.4332 126.739 37.4332" fill="#F47320"></path>
</svg>
