<?xml version="1.0" encoding="UTF-8"?>
<svg xmlns="http://www.w3.org/2000/svg" width="137" height="60" viewBox="0 0 137 60" fill="none">
  <path d="M53.8309 20.5037L45.6297 32.6485C44.7767 33.9337 43.2803 34.7106 41.7141 34.7106C39.1638 34.7106 37.0528 32.6151 37.0528 30.0865C37.0528 27.5206 39.1638 25.429 41.732 25.429C41.9866 25.3964 42.3281 25.3607 42.5663 25.3607C44.3367 25.3607 46.1404 26.1034 47.3658 27.353L49.8153 23.6408C47.9099 21.685 45.0849 20.4331 42.259 20.4331C36.9837 20.4331 32.1516 24.7864 32.1516 30.0508C32.1516 35.2842 36.4738 39.5684 41.7506 39.5684C44.3025 39.5684 46.8544 38.4888 48.6247 36.699H54.2741L54.3076 39.5684H59.2104V20.5037H53.8309ZM51.5872 32.5142L54.2741 28.7717L54.3076 32.5142H51.5872Z" fill="#1482C2"></path>
  <path d="M68.6038 39.5681H63.7025V24.9553H59.891V20.5353L72.4137 20.5035V24.9553H68.6038V39.5681Z" fill="#1482C2"></path>
  <path d="M88.7519 20.5038L83.8507 20.505L83.8165 27.6228H78.0298L77.9931 20.5035H73.0958V39.5681H78.0296V32.042H83.8505V39.5681H88.7517V20.5035L88.7519 20.5038Z" fill="#1482C2"></path>
  <path d="M128.027 20.5035V29.3753L121.289 20.5035L116.829 20.5345L116.795 27.4878C115.672 23.438 111.826 20.5035 107.537 20.5035C102.263 20.5035 97.9399 24.7861 97.9399 30.0505C97.9399 31.7409 98.4499 33.4577 99.2656 34.9447H94.4101V20.5035H89.4158V39.5681H100.833V36.9006C102.637 38.5552 105.087 39.5681 107.537 39.5681C111.826 39.5681 115.604 36.6988 116.795 32.6482L116.829 39.5681H121.765V30.2903L128.467 39.5681H132.924L132.931 20.5035H128.027ZM107.538 34.9114C104.849 34.9114 102.637 32.7522 102.637 30.0505C102.637 27.3861 104.849 25.1936 107.538 25.1936C110.262 25.1936 112.474 27.3861 112.474 30.0505C112.474 32.7522 110.262 34.9114 107.538 34.9114Z" fill="#1482C2"></path>
  <path d="M26.2243 34.9453V32.277H31.4841L31.4748 27.6226H26.2243V25.1941H32.022L32.012 20.504L20.8491 20.5351V27.0824C19.6919 23.5061 16.3553 20.8727 12.5438 20.5351L4.06934 20.504V39.5679H12.5787C16.3553 39.2318 19.6919 36.6 20.8491 33.0562V39.5679H32.0221L32.0121 34.9453H26.2243ZM15.4371 32.9538C15.132 34.2375 13.9058 35.1463 12.5786 35.1805H9.44773V24.9551H12.5786C13.9058 24.9551 15.132 25.9043 15.4371 27.2183C15.7444 28.096 15.9144 29.1081 15.9144 30.0511C15.9144 31.0321 15.7444 32.0426 15.4371 32.9538Z" fill="#1482C2"></path>
</svg>
