<?xml version="1.0" encoding="UTF-8"?>
<svg xmlns="http://www.w3.org/2000/svg" width="137" height="60" viewBox="0 0 137 60" fill="none">
  <path fill-rule="evenodd" clip-rule="evenodd" d="M93.1659 38.1116C91.2309 40.1661 88.7459 41.2096 85.7813 41.2096C82.8154 41.2096 80.3304 40.1661 78.3966 38.1116C76.5496 36.1546 75.4882 33.0252 75.4882 29.529C75.4882 26.1164 76.5613 23.03 78.4283 21.059C80.382 19.0045 82.8553 17.9564 85.7789 17.9482C88.7072 17.9564 91.1805 19.0045 93.1331 21.059C95.0024 23.03 96.0731 26.1164 96.0731 29.529C96.0731 33.0252 95.013 36.1546 93.1659 38.1116ZM67.2018 29.529C67.2018 29.6869 67.2088 29.8424 67.2135 29.998C64.2465 27.3248 59.9566 26.33 57.3356 25.8111C52.4864 24.799 48.7817 23.8727 48.7817 20.4555C48.7817 18.0446 50.963 16.2907 55.1532 16.5913C58.9821 16.8664 60.5946 19.1833 61.0367 21.4189C61.1001 21.7857 61.2713 22.0526 61.6935 22.0561L68.5797 22.1142C68.6125 22.1142 68.6407 22.1107 68.67 22.1084C67.699 24.3498 67.2018 26.8454 67.2018 29.529ZM55.4897 42.0674C52.1592 42.0674 48.4897 40.8962 47.6442 36.3647C47.5727 35.9317 47.3663 35.7529 47.0309 35.7437L40.3733 35.6554V24.0073C41.2481 27.4211 44.1459 29.7844 50.413 31.1808C54.6078 32.1744 61.8846 32.8058 61.8846 37.0681C61.8846 40.0396 59.674 42.1371 55.4897 42.0674ZM22.3297 41.2143C16.9586 41.2143 12.0379 37.0298 12.0379 29.5337C12.0379 23.6522 15.7273 17.9529 22.3649 17.9529C25.2404 17.9529 32.5313 18.9279 32.5313 29.5337C32.5313 40.1673 24.9191 41.2143 22.3285 41.2143H22.3297ZM104.161 26.6724C105.689 28.6898 108.448 30.1837 112.929 31.1819C117.122 32.1755 124.4 32.807 124.4 37.0692C124.4 40.0408 122.189 42.1382 118.005 42.0686C114.676 42.0686 111.004 40.8974 110.16 36.3658C110.09 35.9329 109.883 35.7541 109.547 35.7448L103.378 35.6636C104.029 33.7634 104.361 31.7054 104.361 29.5302C104.36 28.5742 104.294 27.6194 104.161 26.6724ZM117.55 48C124.937 48 133.644 45.278 132.962 36.4494C132.21 28.612 123.97 26.6271 119.851 25.8123C115.001 24.8001 111.296 23.8739 111.296 20.4566C111.296 18.0457 113.478 16.2918 117.669 16.5925C121.498 16.8676 123.11 19.1844 123.552 21.42C123.616 21.7868 123.788 22.0538 124.209 22.0573L131.095 22.1153C131.62 22.1188 131.783 21.8495 131.717 21.4804C130.368 13.311 123.473 11 117.127 11C110.791 11 103.156 12.762 102.615 20.5634C102.596 20.8652 102.589 21.1623 102.589 21.4537C101.58 19.3783 100.126 17.4723 98.252 15.7846C94.7925 12.697 90.4792 11.0429 85.7754 11.0023H85.6194C83.3725 11.0023 81.1736 11.4121 79.0826 12.2246C76.9573 13.0567 75.0017 14.2628 73.3105 15.7846C71.5361 17.3818 70.1347 19.174 69.1332 21.1206C67.6415 13.2472 60.8608 11 54.6102 11C48.7935 11 41.8814 12.4892 40.3733 18.777V12.5357C40.373 12.3758 40.3086 12.2226 40.1943 12.1096C40.0799 11.9967 39.925 11.9332 39.7635 11.9332H33.2783C33.1168 11.9335 32.962 11.9973 32.8478 12.1104C32.7337 12.2236 32.6696 12.3769 32.6696 12.5368V14.2199C32.6696 14.5031 32.4785 14.6018 32.2451 14.437C29.9384 12.7806 26.5257 11.0035 22.4188 11.0035C20.1109 11.0035 17.9074 11.4051 15.868 12.1967C13.8274 12.9907 11.8878 14.199 10.1076 15.7892C8.08109 17.6139 6.53778 19.694 5.52572 21.9714C4.51365 24.2488 4 26.7931 4 29.5325C4 32.0896 4.45502 34.4877 5.35098 36.6548C6.24694 38.822 7.61083 40.8266 9.40627 42.6141C11.2005 44.4017 13.2082 45.7598 15.3696 46.6535C17.5309 47.5438 19.9127 47.9954 22.4529 47.9954C26.8177 47.9954 30.0932 46.1556 32.2393 44.4829C32.4761 44.3042 32.6696 44.4005 32.6696 44.693V46.4608C32.6696 46.7928 32.9441 47.0644 33.2795 47.0644H39.7646C39.9261 47.0638 40.0807 47 40.1947 46.8869C40.3088 46.7738 40.373 46.6206 40.3733 46.4608V40.5062C43.4306 47.6216 51.221 47.9988 55.0347 47.9988C61.4097 47.9988 68.7615 45.9675 70.2203 39.7366C70.9217 40.7679 71.7217 41.7299 72.6092 42.6095C76.0852 46.072 80.64 47.9338 85.7871 47.9896H85.9982C88.4422 47.9896 90.8005 47.5253 93.0076 46.6071C95.2358 45.6746 97.2563 44.3161 98.9533 42.6095C100.223 41.3568 101.307 39.9328 102.174 38.3797C104.485 47.5531 113.388 48 117.55 48Z" fill="#0B0B0A"></path>
</svg>
