<?xml version="1.0" encoding="UTF-8"?>
<svg xmlns="http://www.w3.org/2000/svg" width="137" height="60" viewBox="0 0 137 60" fill="none">
  <path fill-rule="evenodd" clip-rule="evenodd" d="M6 41.5553H6.99729C10.0815 41.5553 10.3629 40.0268 10.3629 36.7564V15L13.5094 18.1279V37.6291C13.5094 41.0871 12.326 43.8291 9.11716 44.4835L6 41.5553ZM23.3671 25.8206C26.0454 25.8206 27.9776 27.7214 27.9776 30.3395C27.9776 33.2677 26.2014 35.0754 23.3671 35.0754C20.7804 35.0754 19.0049 33.1739 19.0049 30.3073C19.0049 27.7214 20.8427 25.8206 23.3671 25.8206ZM23.3971 37.7222C27.8846 37.7222 30.9688 34.7311 30.9688 30.3073C30.9688 26.1635 27.7908 23.1731 23.3971 23.1731C19.2232 23.1731 16.0137 26.2881 16.0137 30.3073C16.0137 34.6072 19.098 37.7222 23.3971 37.7222ZM42.3356 28.7495C42.3356 26.7549 41.3376 25.4784 39.749 25.4784C38.5963 25.4784 37.662 26.0082 36.4156 27.4414V37.4416H33.4874V16.7225H36.4156V25.1054C37.4444 23.8582 38.9708 23.1101 40.4656 23.1101C43.2384 23.1101 45.2645 25.0116 45.2645 28.8432V37.4423H42.3356V28.7495ZM57.5019 28.8117C57.5019 26.7864 56.5046 25.5399 54.9153 25.5399C53.7633 25.5399 52.8283 26.0697 51.5826 27.4722V37.4409H48.6537V23.4086H51.5826V25.1669C52.6107 23.9198 54.1371 23.1724 55.6333 23.1724C58.3116 23.1724 60.4294 25.0101 60.4294 28.8418V37.4409H57.5019V28.8117ZM69.1279 15L71.9465 17.8795V34.5456H78.2575L80.9981 37.4416H69.1279V15ZM86.1535 25.7275C87.9906 25.7275 89.1446 26.9739 89.2692 28.7344H82.5395C82.9447 26.8802 84.1582 25.7275 86.1535 25.7275ZM91.9017 35.9925C91.4335 35.5887 90.0782 34.2321 90.0782 34.2321C89.0194 34.7003 88.0228 34.9186 86.9933 34.9186C84.4388 34.9186 82.9132 33.5791 82.4765 31.1364H92.1652C92.1652 25.7275 89.7961 23.1724 86.0898 23.1724C82.2266 23.1724 79.5469 26.0382 79.5469 30.2758C79.5469 34.139 81.9775 37.7215 86.3382 37.7215C88.6757 37.7222 90.1956 37.1996 91.9017 35.9925ZM108.14 37.7222L103.994 27.725L99.8793 37.7222H99.0052L92.72 23.3972H95.8422L99.4498 31.7979L102.903 23.3972H105.083L108.553 31.7979L112.141 23.3886H115.25L109.013 37.7222H108.14ZM116.677 18.3069C116.677 17.3719 117.425 16.5929 118.329 16.5929C119.232 16.5929 119.981 17.3719 119.981 18.3069C119.981 19.2727 119.232 20.0523 118.329 20.0523C117.425 20.0523 116.677 19.2727 116.677 18.3069ZM116.927 23.3907H119.858V37.4416H116.927V23.3907ZM122.351 36.4135V33.2355C124.252 34.575 125.936 35.1427 126.997 35.1427C128.017 35.1427 128.808 34.7454 128.844 33.8297C128.862 33.3486 128.488 32.831 127.897 32.4258C127.305 31.9898 126.495 31.5838 125.684 31.0863C124.096 30.152 122.445 28.9363 122.445 27.0054C122.445 24.6056 124.142 23.1724 127.056 23.1724C128.363 23.1724 129.673 23.5461 131.168 24.3558V27.2847C129.517 26.1635 127.969 25.7196 126.974 25.7196C125.883 25.7196 125.373 26.2007 125.405 26.9109C125.437 27.6233 126.261 28.1753 128.772 29.5978C131.134 30.9366 131.823 32.1129 131.823 33.5784C131.823 36.0698 129.86 37.7215 127.212 37.7215C125.499 37.7222 124.19 37.38 122.351 36.4135Z" fill="black"></path>
</svg>
