<?xml version="1.0" encoding="UTF-8"?>
<svg xmlns="http://www.w3.org/2000/svg" width="137" height="60" viewBox="0 0 137 60" fill="none">
  <path d="M85.7348 3.70081C88.8222 2.18448 90.3522 2.38346 90.3866 3.92043C90.4279 5.91702 90.1327 8.57211 89.9199 10.4933C88.7741 20.935 86.8599 29.4674 86.7158 40.1883C91.7586 27.1332 95.985 18.0596 101.433 6.88437C103.162 3.32347 104.266 3.98904 105.686 3.35777C111.217 0.894717 111.422 2.4041 110.702 5.41614C108.019 16.5722 101.151 51.6976 100.102 57.1063C99.7997 58.6712 98.0983 58.0078 97.6591 57.3958C95.6901 54.672 93.4672 54.6294 93.714 52.8181C94.9491 43.8006 99.3949 21.1759 100.555 15.8448C94.647 27.9558 88.5203 43.096 85.371 51.6806C84.7054 53.5035 83.491 53.3697 82.7365 52.036C81.6729 50.1623 79.6078 49.2058 79.2646 46.9917C78.1875 39.9524 80.4997 26.535 80.822 18.0465C77.6044 27.3192 72.2047 45.3217 69.8376 53.4554C68.8635 56.8208 65.6112 56.2718 66.4757 52.9917C70.0708 39.3417 77.817 15.1999 81.1652 6.5207C81.9545 4.47601 84.0195 4.54462 85.7348 3.70081Z" fill="#CC071E"></path>
  <path d="M66.1261 2.02667C65.0833 1.77287 62.0575 3.4058 60.1982 3.72821C59.6082 3.83112 59.0455 4.45543 58.8465 4.9015C55.8688 11.7419 53.1999 18.2626 50.8877 24.2028C47.9306 24.7078 44.4728 25.3726 40.6031 26.2419C43.3749 19.1318 46.1743 12.1191 48.9049 5.3748C50.2496 2.05402 46.7095 1.73845 45.3372 5.10037C43.5533 9.4709 40.212 17.6595 36.5138 27.2038C33.7969 27.87 30.9153 28.6315 27.9033 29.5016C25.7145 30.1335 25.6254 30.7166 26.5723 32.0292C27.0937 32.76 28.1709 32.6864 28.6648 33.2072C29.941 34.5568 30.7163 36.1711 33.0009 36.4154C30.9632 41.8664 28.9255 47.4877 27.0799 52.9003C25.9204 56.2979 29.2205 56.9928 30.4899 53.3976C32.5344 47.6022 34.6888 41.7366 36.9049 35.8884C38.7505 35.4595 43.217 34.4975 47.3404 33.6029C44.0677 42.5729 41.9132 49.3852 41.0969 52.7012C40.946 53.3392 41.1998 53.6933 41.337 53.9533C42.4416 55.5608 43.4914 55.6267 44.9116 57.6143C45.2959 58.1563 46.5858 58.4486 47.0248 57.1141C50.0574 47.954 53.1792 39.3592 56.0882 31.6542C57.2957 31.3901 59.4706 30.8652 60.8016 28.879C63.1686 25.3537 63.8479 26.0687 64.4175 24.997C65.131 23.6516 64.6575 22.3884 62.1328 22.7005C62.1328 22.7005 61.1791 22.7684 59.4158 22.9694C62.215 15.762 64.6644 9.64878 66.4277 4.99026C67.0317 3.41263 67.1072 2.25996 66.1261 2.02667Z" fill="#CC071E"></path>
  <path d="M61.9959 48.7737C62.6476 50.421 64.6854 49.9222 63.9101 47.934C63.1209 45.9085 61.1588 39.8111 60.6441 37.8468C59.9443 35.1999 62.9769 35.9237 61.44 37.6542C60.1228 39.1422 59.2445 39.7384 56.8089 42.5679C54.4556 45.2993 55.0936 48.8438 57.6116 49.6267C60.452 50.5103 62.9564 47.3803 64.5069 45.084C66.0095 42.8604 64.5549 41.5561 63.0386 42.8707C62.0643 43.7159 60.9391 45.014 59.8001 45.7138C58.8739 46.2771 58.1466 45.672 59.3817 43.9719C60.8156 42.0035 62.4211 40.3541 63.6149 38.494C66.0506 34.7033 61.2341 32.5182 59.1621 34.9805C58.0505 36.293 58.3319 37.5816 58.6338 38.6875C59.121 40.4589 60.9323 46.1138 61.9959 48.7737Z" fill="#CC071E"></path>
</svg>
