<?xml version="1.0" encoding="UTF-8"?>
<svg xmlns="http://www.w3.org/2000/svg" width="137" height="60" viewBox="0 0 137 60" fill="none">
  <g clip-path="url(#clip0_424_144)">
    <mask id="mask0_424_144" style="mask-type:luminance" maskUnits="userSpaceOnUse" x="28" y="2" width="81" height="56">
      <path d="M28.0178 2.14648H108.721V57.8533H28.0178V2.14648Z" fill="white"></path>
    </mask>
    <g mask="url(#mask0_424_144)">
      <path fill-rule="evenodd" clip-rule="evenodd" d="M61.5274 8.2448C64.1324 5.56501 67.7582 3.90554 71.7637 3.90554C77.1043 3.90554 81.7329 6.83747 84.2252 11.2061C86.4375 10.2288 88.8338 9.72422 91.2571 9.72543C100.87 9.72543 108.674 17.4951 108.674 27.0825C108.674 36.6699 100.87 44.4396 91.2571 44.4396C90.0821 44.4396 88.9368 44.3229 87.8153 44.1024C85.6345 47.9432 81.4659 50.5527 76.7186 50.5527C74.7858 50.5564 72.8778 50.1232 71.1406 49.2861C68.9301 54.417 63.7823 58.0232 57.7889 58.0232C51.5285 58.0232 46.2175 54.1238 44.1703 48.641C43.2591 48.8311 42.3303 48.9266 41.399 48.926C33.9518 48.926 27.9287 42.8862 27.9287 35.4684C27.9287 30.4841 30.6406 26.1449 34.6639 23.7993C33.8103 21.8563 33.371 19.7604 33.3732 17.6423C33.3732 9.08099 40.4051 2.16162 49.0688 2.16162C54.1424 2.16162 58.682 4.55115 61.5304 8.26005" fill="#00A1E0"></path>
    </g>
    <path fill-rule="evenodd" clip-rule="evenodd" d="M39.6902 31.1141C39.6395 31.2448 39.7083 31.2721 39.7246 31.2953C39.8763 31.4038 40.0302 31.4823 40.1845 31.5706C41.0094 32.0016 41.7867 32.1277 42.5997 32.1277C44.2553 32.1277 45.2849 31.2569 45.2849 29.8554V29.8278C45.2849 28.5319 44.1218 28.0599 43.0359 27.7227L42.8937 27.6773C42.0719 27.414 41.3627 27.1847 41.3627 26.6511V26.6238C41.3627 26.1664 41.7781 25.8293 42.419 25.8293C43.1311 25.8293 43.9797 26.0635 44.5226 26.3599C44.5226 26.3599 44.6834 26.4626 44.7419 26.3092C44.7736 26.2263 45.0505 25.4941 45.0801 25.4121C45.1116 25.3261 45.0564 25.2614 44.9997 25.2279C44.3767 24.8526 43.5162 24.5976 42.6261 24.5976L42.4608 24.5981C40.9447 24.5981 39.8855 25.5041 39.8855 26.8V26.8279C39.8855 28.1942 41.0545 28.6398 42.1463 28.9477L42.322 29.0016C43.1171 29.2432 43.8055 29.4531 43.8055 30.0043V30.0319C43.8055 30.5391 43.3575 30.9173 42.6395 30.9173C42.3603 30.9173 41.4704 30.9127 40.5062 30.3104C40.3896 30.2433 40.3231 30.1949 40.2332 30.1407C40.1857 30.1122 40.067 30.0609 40.0154 30.2146L39.689 31.1117M63.9297 31.1117C63.879 31.2425 63.9478 31.2698 63.9647 31.2929C64.1157 31.4014 64.2703 31.48 64.4246 31.5682C65.2494 31.9992 66.0268 32.1253 66.8398 32.1253C68.4954 32.1253 69.5249 31.2545 69.5249 29.8531V29.8255C69.5249 28.5296 68.3648 28.0575 67.2759 27.7204L67.1338 27.6749C66.3119 27.4116 65.6028 27.1824 65.6028 26.6487V26.6215C65.6028 26.1641 66.0182 25.8269 66.6591 25.8269C67.3712 25.8269 68.2168 26.0612 68.7627 26.3576C68.7627 26.3576 68.9235 26.4602 68.9823 26.3069C69.0137 26.2239 69.2908 25.4918 69.3175 25.4097C69.3493 25.3238 69.2938 25.259 69.2374 25.2256C68.6143 24.8503 67.7539 24.5952 66.8638 24.5952L66.6982 24.5958C65.1821 24.5958 64.1228 25.5018 64.1228 26.7977V26.8255C64.1228 28.1918 65.2919 28.6375 66.3837 28.9453L66.5591 28.9993C67.3572 29.2409 68.0426 29.4508 68.0426 30.002V30.0296C68.0426 30.5368 67.5946 30.915 66.8766 30.915C66.5968 30.915 65.7046 30.9103 64.7433 30.3081C64.6267 30.241 64.5584 30.1946 64.47 30.1383C64.44 30.1196 64.3003 30.0656 64.2525 30.2122L63.9261 31.1094M80.4822 28.3651C80.4822 29.1567 80.3326 29.7812 80.0401 30.2239C79.7481 30.6608 79.3072 30.8748 78.6931 30.8748C78.0789 30.8748 77.6398 30.6626 77.352 30.2269C77.0621 29.7871 76.9158 29.1597 76.9158 28.368C76.9158 27.5764 77.063 26.9548 77.352 26.518C77.6392 26.0841 78.0759 25.8759 78.6931 25.8759C79.3102 25.8759 79.7493 26.0861 80.0401 26.518C80.3344 26.9548 80.4822 27.5764 80.4822 28.368M81.8648 26.8991C81.7286 26.4447 81.5177 26.0459 81.2358 25.7117C80.9536 25.3775 80.5979 25.1077 80.1736 24.9142C79.7523 24.7192 79.2538 24.621 78.6901 24.621C78.1264 24.621 77.6309 24.7198 77.2066 24.9142C76.7853 25.1089 76.4262 25.3775 76.1444 25.7117C75.8631 26.0459 75.6518 26.4447 75.5154 26.8991C75.3804 27.3506 75.3118 27.8432 75.3118 28.368C75.3118 28.8928 75.3804 29.3854 75.5154 29.8369C75.651 30.2914 75.8625 30.6901 76.1444 31.0244C76.4265 31.3586 76.7853 31.6254 77.2066 31.816C77.6309 32.006 78.1293 32.1027 78.6901 32.1027C79.2509 32.1027 79.7493 32.006 80.1706 31.816C80.592 31.626 80.951 31.3586 81.2328 31.0244C81.5144 30.6901 81.7254 30.2914 81.8618 29.8369C81.9966 29.3854 82.0651 28.8928 82.0651 28.368C82.0651 27.8461 81.9966 27.3506 81.8618 26.8991M93.2256 30.652C93.1802 30.5192 93.049 30.5693 93.049 30.5693C92.8482 30.6453 92.6337 30.7156 92.4052 30.7508C92.175 30.7866 91.9186 30.8045 91.6486 30.8045C90.981 30.8045 90.447 30.6077 90.0672 30.2181C89.6844 29.8281 89.4708 29.2007 89.4738 28.3504C89.4758 27.5764 89.6651 26.9959 90.0049 26.5502C90.3401 26.1104 90.8564 25.8817 91.5388 25.8817C92.1085 25.8817 92.5446 25.9471 93.0016 26.0884C93.0016 26.0884 93.1099 26.1351 93.1618 25.994C93.2831 25.6627 93.3727 25.4252 93.503 25.0617C93.5398 24.9576 93.4496 24.9136 93.4167 24.901C93.2375 24.8318 92.8144 24.7184 92.4939 24.6706C92.1942 24.6254 91.8471 24.602 91.4555 24.602C90.8739 24.602 90.3576 24.7002 89.9156 24.8949C89.4735 25.0892 89.0996 25.3581 88.8029 25.6923C88.5062 26.0266 88.2807 26.4253 88.1294 26.8798C87.9796 27.3313 87.9039 27.8268 87.9039 28.3516C87.9039 29.4833 88.2125 30.401 88.8237 31.0724C89.4349 31.7468 90.3547 32.0869 91.5534 32.0869C92.2625 32.0869 92.9894 31.9453 93.5116 31.7409C93.5116 31.7409 93.6113 31.6934 93.568 31.5785L93.2268 30.652M95.6449 27.6028C95.7111 27.163 95.833 26.7965 96.0247 26.5121C96.3116 26.0782 96.7486 25.8407 97.3628 25.8407C97.977 25.8407 98.3835 26.0794 98.6742 26.5121C98.8671 26.798 98.9514 27.1777 98.9828 27.6028L95.6301 27.6022L95.6449 27.6028ZM100.303 26.6353C100.185 26.1984 99.8937 25.7557 99.7038 25.5534C99.4012 25.2338 99.1074 25.008 98.8137 24.8849C98.3896 24.7067 97.9334 24.6152 97.4726 24.616C96.8881 24.616 96.357 24.7137 95.9268 24.9122C95.4966 25.1121 95.1346 25.3842 94.8497 25.7243C94.5652 26.0644 94.3513 26.4661 94.2148 26.9264C94.0783 27.3808 94.0095 27.8793 94.0095 28.4012C94.0095 28.9348 94.081 29.4303 94.2216 29.8789C94.3637 30.3304 94.5925 30.7262 94.9011 31.0546C95.2096 31.3859 95.6043 31.6439 96.079 31.8257C96.5507 32.006 97.1234 32.0995 97.7791 32.0975C99.1321 32.0931 99.8441 31.7955 100.135 31.6342C100.187 31.6055 100.236 31.5559 100.175 31.4131L99.8691 30.5658C99.8222 30.4394 99.6928 30.4852 99.6928 30.4852C99.3576 30.6089 98.8828 30.8312 97.7702 30.8282C97.0433 30.827 96.5062 30.6151 96.168 30.2829C95.8238 29.9428 95.6517 29.4473 95.625 28.7436L100.313 28.7471C100.313 28.7471 100.436 28.746 100.449 28.6269C100.454 28.5777 100.61 27.677 100.309 26.6361L100.303 26.6353ZM58.1713 27.6028C58.2374 27.163 58.3597 26.7965 58.5511 26.5121C58.8383 26.0782 59.275 25.8407 59.8892 25.8407C60.5034 25.8407 60.9098 26.0794 61.2006 26.5121C61.3932 26.798 61.4774 27.1777 61.5092 27.6028L58.1564 27.6022L58.1713 27.6028ZM62.8295 26.6353C62.712 26.1984 62.4201 25.7557 62.2302 25.5534C61.9275 25.2338 61.6338 25.008 61.3401 24.8849C60.916 24.7067 60.4598 24.6152 59.999 24.616C59.4145 24.616 58.8834 24.7137 58.4531 24.9122C58.0229 25.1121 57.661 25.3842 57.3761 25.7243C57.0922 26.0644 56.8777 26.4661 56.7412 26.9264C56.605 27.3808 56.5364 27.8793 56.5364 28.4012C56.5364 28.9348 56.6074 29.4303 56.7489 29.8789C56.8907 30.3304 57.1198 30.7262 57.4254 31.0546C57.7339 31.3859 58.1286 31.6439 58.6033 31.8257C59.075 32.006 59.6447 32.0995 60.3034 32.0975C61.6564 32.0931 62.3684 31.7955 62.6592 31.6342C62.7108 31.6055 62.7601 31.5559 62.6987 31.4131L62.3931 30.5658C62.3459 30.4394 62.2165 30.4852 62.2165 30.4852C61.8813 30.6089 61.4065 30.8312 60.2939 30.8282C59.5699 30.827 59.0299 30.6151 58.6917 30.2829C58.3475 29.9428 58.1754 29.4473 58.1487 28.7436L62.8366 28.7471C62.8366 28.7471 62.9601 28.746 62.9728 28.6269C62.9779 28.5777 63.1333 27.677 62.8328 26.6361L62.8295 26.6353ZM48.0537 30.6227C47.87 30.4779 47.8445 30.4424 47.7837 30.3483C47.6908 30.2067 47.6434 30.0052 47.6434 29.7472C47.6434 29.3426 47.7798 29.0494 48.0617 28.853C48.0587 28.8536 48.4652 28.507 49.4206 28.5187C49.8459 28.5263 50.2701 28.562 50.6905 28.6257V30.7279H50.6911C50.6911 30.7279 50.0977 30.8543 49.4271 30.8942C48.4747 30.9508 48.0534 30.6233 48.0564 30.6242L48.0537 30.6227ZM49.917 27.3682C49.7271 27.3545 49.4808 27.3477 49.1871 27.3477C48.7866 27.3477 48.3979 27.397 48.0359 27.4937C47.6709 27.5911 47.3416 27.7418 47.0597 27.9423C46.7771 28.1416 46.5446 28.4024 46.3803 28.7046C46.2144 29.0095 46.1299 29.3672 46.1299 29.7718C46.1299 30.1823 46.202 30.5371 46.3444 30.8273C46.4839 31.1152 46.694 31.3642 46.9556 31.5515C47.2158 31.7386 47.5371 31.877 47.908 31.9591C48.2759 32.042 48.6913 32.084 49.1482 32.084C49.6289 32.084 50.1066 32.0441 50.5694 31.967C50.9637 31.8998 51.3564 31.8243 51.7474 31.7406C51.9034 31.7052 52.0767 31.6585 52.0767 31.6585C52.1924 31.6295 52.1835 31.5073 52.1835 31.5073L52.1808 27.2853C52.1808 26.3588 51.9304 25.6698 51.4361 25.2446C50.9436 24.8195 50.2226 24.6055 49.288 24.6055C48.9379 24.6055 48.3712 24.6524 48.0329 24.7195C48.0329 24.7195 47.0123 24.9154 46.591 25.2414C46.591 25.2414 46.4984 25.2977 46.5488 25.4252L46.8811 26.3048C46.9224 26.4189 47.0348 26.3799 47.0348 26.3799C47.0348 26.3799 47.0701 26.3661 47.1117 26.3418C48.0107 25.858 49.15 25.8727 49.15 25.8727C49.6544 25.8727 50.0461 25.9738 50.3072 26.1717C50.5626 26.3655 50.6929 26.6584 50.6929 27.2741V27.4697C50.2923 27.4122 49.9214 27.3791 49.9214 27.3791L49.917 27.3682ZM87.5983 24.9846C87.6051 24.9691 87.6086 24.9525 87.6087 24.9356C87.6088 24.9188 87.6055 24.9021 87.5989 24.8866C87.5923 24.871 87.5827 24.857 87.5705 24.8452C87.5583 24.8334 87.5439 24.8242 87.528 24.818C87.4482 24.7881 87.0503 24.7052 86.7447 24.6864C86.1572 24.65 85.8309 24.748 85.5371 24.8781C85.2469 25.0074 84.9259 25.2153 84.7479 25.4557L84.7473 24.8928C84.7473 24.8154 84.6918 24.753 84.6129 24.753H83.4142C83.3365 24.753 83.2801 24.8154 83.2801 24.8928V31.7829C83.2802 31.8201 83.2952 31.8558 83.3218 31.8821C83.3484 31.9084 83.3845 31.9232 83.4222 31.9233H84.6506C84.6882 31.9232 84.7243 31.9084 84.7509 31.8821C84.7775 31.8557 84.7924 31.8201 84.7924 31.7829V28.3232C84.7924 27.8599 84.844 27.3996 84.947 27.1094C85.0484 26.8223 85.1864 26.5933 85.3564 26.4291C85.5186 26.2706 85.7171 26.1529 85.935 26.0861C86.1395 26.0281 86.3512 25.9987 86.564 25.9987C86.8088 25.9987 87.0773 26.0609 87.0773 26.0609C87.1675 26.0709 87.2176 26.0163 87.2482 25.936C87.3286 25.7246 87.5568 25.0916 87.6013 24.9655" fill="#FFFFFE"></path>
    <path fill-rule="evenodd" clip-rule="evenodd" d="M76.1255 21.8043C75.9737 21.759 75.8192 21.7228 75.663 21.6959C75.4528 21.6612 75.2399 21.6449 75.0269 21.6472C74.1804 21.6472 73.5131 21.8835 73.0446 22.3503C72.5794 22.8135 72.2628 23.5192 72.104 24.4478L72.0468 24.7612H70.9843C70.9843 24.7612 70.8546 24.7559 70.8273 24.8958L70.6529 25.8574C70.6407 25.9495 70.6807 26.007 70.8054 26.0064H71.8397L70.7902 31.7949C70.708 32.2611 70.614 32.6446 70.5098 32.9351C70.4072 33.2219 70.3069 33.4368 70.1835 33.5928C70.0639 33.7438 69.9506 33.8549 69.755 33.9197C69.5936 33.9733 69.4079 33.998 69.2043 33.998C69.091 33.998 68.9403 33.9792 68.829 33.9572C68.7178 33.9355 68.6599 33.9109 68.5765 33.8763C68.5765 33.8763 68.4552 33.8306 68.4074 33.9508C68.3685 34.049 68.0929 34.7981 68.0603 34.8907C68.027 34.9822 68.0736 35.0543 68.1324 35.0752C68.27 35.1238 68.3724 35.1549 68.5599 35.1986C68.8204 35.2593 69.04 35.2631 69.2456 35.2631C69.6764 35.2631 70.0689 35.2033 70.3944 35.0872C70.722 34.9702 71.0071 34.7664 71.2593 34.4905C71.532 34.1929 71.7035 33.8813 71.8676 33.4561C72.0299 33.0348 72.1681 32.5118 72.2788 31.9022L73.3333 26.0064H74.8749C74.8749 26.0064 75.0049 26.0111 75.0319 25.8718L75.2064 24.9101C75.2185 24.8181 75.1788 24.7606 75.0536 24.7612H73.5573C73.5647 24.7278 73.6326 24.2076 73.8044 23.718C73.8777 23.509 74.0157 23.3404 74.1326 23.2246C74.2417 23.1143 74.3762 23.0316 74.5245 22.9836C74.6872 22.9339 74.8567 22.9097 75.0269 22.912C75.1678 22.912 75.3061 22.9287 75.4114 22.9504C75.5565 22.9809 75.6128 22.997 75.6508 23.0082C75.8033 23.0542 75.8238 23.0097 75.8538 22.9367L76.2116 21.9656C76.2484 21.8612 76.1588 21.8172 76.1255 21.8043ZM55.2157 31.8072C55.2157 31.8846 55.1599 31.9477 55.0816 31.9477H53.8405C53.7618 31.9477 53.7061 31.8846 53.7061 31.8072V21.936C53.7061 21.8589 53.7618 21.7964 53.8405 21.7964H55.0816C55.1599 21.7964 55.2157 21.8589 55.2157 21.936V31.8072Z" fill="#FFFFFE"></path>
  </g>
  <defs>
    <clipPath id="clip0_424_144">
      <rect width="81" height="56" fill="white" transform="translate(28 2)"></rect>
    </clipPath>
  </defs>
</svg>
