<?xml version="1.0" encoding="UTF-8"?>
<svg xmlns="http://www.w3.org/2000/svg" width="137" height="60" viewBox="0 0 137 60" fill="none">
  <g clip-path="url(#clip0_417_301)">
    <path d="M78.9284 55.9382C74.8475 55.4078 71.4701 52.9051 70.3221 49.5605C69.3576 46.7507 69.9265 44.5788 71.6774 44.3872C72.4689 44.3006 72.9831 44.4392 73.4771 44.8725C73.9831 45.3164 74.1147 45.6464 74.2258 46.7511C74.5511 49.9857 77.009 52.157 80.3452 52.157C81.5487 52.157 82.2985 51.9991 83.3121 51.5322C85.2728 50.629 86.3109 48.9086 86.1941 46.7565C86.1157 45.3156 85.5 44.2177 84.2641 43.3158C83.2986 42.6112 81.9668 42.0201 79.4564 41.1818C75.9826 40.0219 74.407 39.2786 72.9266 38.1015C70.1736 35.9129 69.131 31.8914 70.3453 28.1456C70.8634 26.547 71.551 25.4516 72.816 24.2091C74.7032 22.3557 77.1598 21.4027 80.0425 21.4059C85.2437 21.4112 89.463 24.5427 90.4148 29.1027C90.5631 29.8134 90.5935 30.3509 90.5434 31.3737C90.44 33.4818 89.9038 34.9897 88.917 35.9478C87.8078 37.0245 86.1056 36.8338 85.4419 35.5583C85.111 34.9225 85.1196 34.5428 85.4835 33.7165C86.0262 32.4842 86.2166 31.7698 86.2166 30.965C86.2166 29.4188 85.6829 28.1249 84.5892 27.0192C83.7874 26.2086 82.8926 25.716 81.6719 25.4129C78.5334 24.6336 75.4942 26.1801 74.4988 29.0628C74.1451 30.0871 74.144 31.6414 74.4961 32.6022C74.8266 33.504 75.4429 34.3443 76.219 34.9518C77.0935 35.6362 79.0258 36.5407 81.1663 37.2678C84.6236 38.4421 85.7956 38.973 87.2657 40.0305C88.7689 41.112 89.6775 42.3624 90.2508 44.1383C90.4821 44.8548 90.5194 45.2016 90.5199 46.6414C90.5203 48.0474 90.4792 48.4506 90.261 49.1816C89.2398 52.6021 86.5126 55.0033 82.7705 55.7767C81.7523 55.9871 79.9037 56.065 78.9284 55.9382ZM33.4874 41.0108C29.3541 40.3778 26.2125 37.8356 25.2505 34.3455C24.945 33.2374 24.92 31.2647 25.1973 30.1624C25.6023 28.5527 26.5802 27.162 27.5183 26.8615C28.3119 26.6072 29.3573 26.9537 29.8797 27.6442C30.2867 28.1822 30.2726 28.8214 29.8293 29.9294C29.3346 31.1655 29.2379 31.8214 29.4026 32.8222C29.7375 34.8573 31.2248 36.425 33.4123 37.0488C34.2901 37.2991 35.9661 37.2834 36.849 37.0167C39.9441 36.0815 41.3249 32.8412 39.814 30.0587C39.0714 28.6913 37.3861 27.6441 33.9453 26.4122C30.2677 25.0955 28.8999 24.3648 27.3886 22.909C26.2067 21.7707 25.648 20.8604 25.2551 19.4326C24.9146 18.1954 24.9146 16.0181 25.2552 14.7752C25.9551 12.2205 27.6969 10.1568 30.1435 8.98328C31.6227 8.27376 32.8982 7.99748 34.6827 8.00002C37.7694 8.00397 40.0781 8.89788 42.0866 10.8654C43.6725 12.419 44.4154 13.8966 44.6596 15.9836C44.8974 18.0148 44.1178 19.0376 42.4119 18.9321C41.3108 18.864 40.6111 18.2318 40.4843 17.1903C40.2588 15.3395 39.8435 14.3667 38.8795 13.4308C37.0002 11.6064 33.7633 11.2831 31.5133 12.6948C29.213 14.1382 28.6099 17.4406 30.2629 19.5422C31.124 20.637 32.5818 21.4437 36.029 22.733C38.7006 23.7322 39.65 24.1626 40.829 24.9086C42.5593 26.0035 43.6919 27.3326 44.2679 28.944C45.549 32.528 44.3777 36.6729 41.4227 39.0121C40.5171 39.7291 38.9086 40.5057 37.7241 40.7979C36.6631 41.0597 34.5123 41.1677 33.4874 41.0108ZM55.5985 40.9989C52.4043 40.5543 49.3156 38.3029 47.9429 35.4188C47.2587 33.9812 47.0335 32.9276 47.0432 31.2099C47.0534 29.4191 47.2784 28.4476 48.0368 26.9202C49.0357 24.9082 50.6301 23.3831 52.7598 22.4019C54.2868 21.6985 55.1058 21.5073 56.8917 21.4375C59.2064 21.3471 60.9701 21.7464 62.73 22.7593C63.6008 23.2606 65.0049 24.4983 65.609 25.2972C66.2314 26.1203 66.9307 27.5856 67.2544 28.745C67.5514 29.8084 67.5541 29.8557 67.5962 34.6001C67.634 38.8734 67.618 39.4353 67.4459 39.873C66.8359 41.4236 64.2842 41.5215 63.4976 40.0246C63.2967 39.6425 63.2759 39.2535 63.231 35.0478C63.1903 31.2406 63.1503 30.3673 62.9893 29.7712C62.5021 27.9669 61.3615 26.5066 59.8908 25.8039C56.3531 24.1138 52.2532 26.1858 51.4919 30.0486C51.2839 31.1041 51.285 31.5084 51.4987 32.4912C51.7295 33.5535 52.2528 34.5406 53.0011 35.3254C54.5128 36.9105 56.1566 37.4026 58.6195 37.0076C59.8064 36.8173 60.2773 36.9062 60.8397 37.4269C62.0282 38.5272 61.577 40.0534 59.8811 40.6694C58.6827 41.1047 57.1859 41.2199 55.5985 40.9989ZM101.804 41.0068C98.1766 40.4902 95.131 38.2978 93.6571 35.1422C92.5355 32.7408 92.5599 29.5872 93.7189 27.152C94.9845 24.4928 97.3398 22.5415 100.276 21.7197C101.523 21.3707 104.401 21.3461 105.728 21.6731C110.114 22.7546 112.959 25.985 112.998 29.9289C113.008 30.8376 112.977 30.9877 112.672 31.5276C112.47 31.8863 112.144 32.2518 111.853 32.4459C110.973 33.0342 110.405 33.1045 106.531 33.1045C103.118 33.1045 103.008 33.0979 102.516 32.8538C101.84 32.5184 101.569 32.1292 101.509 31.4099C101.469 30.9255 101.509 30.7525 101.729 30.4405C102.323 29.6004 102.321 29.6009 105.516 29.5389C108.218 29.4865 108.396 29.4701 108.556 29.2604C108.904 28.8011 108.432 27.6064 107.572 26.7715C106.525 25.7551 104.997 25.1913 103.301 25.1961C101.518 25.2014 100.28 25.6894 99.071 26.8641C96.5883 29.2767 96.5378 33.0627 98.9561 35.4561C100.191 36.6782 101.579 37.2269 103.435 37.2269C105.275 37.2269 106.012 36.984 108.884 35.4323C111.399 34.0733 113.338 36.5896 111.242 38.4927C109.119 40.4206 105.137 41.4815 101.804 41.0068Z" fill="#00D639"></path>
  </g>
  <defs>
    <clipPath id="clip0_417_301">
      <rect width="88" height="48" fill="white" transform="translate(25 8)"></rect>
    </clipPath>
  </defs>
</svg>
