<?xml version="1.0" encoding="UTF-8"?>
<svg xmlns="http://www.w3.org/2000/svg" width="137" height="60" viewBox="0 0 137 60" fill="none">
  <g clip-path="url(#clip0_426_127)">
    <path d="M5 10H5.60276V26.6807H5V10Z" fill="#23274F"></path>
    <path d="M9.95117 10H15.0746V26.6807H9.95117V10Z" fill="#60C2D3"></path>
    <path d="M18.9495 10H21.4897V26.6807H18.9495V10Z" fill="#23274F"></path>
    <path d="M77.8475 22.6472C74.1879 22.6472 72.8102 24.1388 72.272 24.706L71.4325 23.0253H64.716V26.7018H66.2875V50.0211H71.5616V41.0925C72.638 42.0589 74.3817 42.7732 76.5344 42.7732C83.5091 42.7732 86.3507 37.8152 86.3507 32.248C86.3507 26.5757 82.8633 22.6472 77.8475 22.6472ZM81.0335 32.4371C81.0335 36.3656 79.0961 38.7186 75.9101 38.7186C72.7887 38.7186 71.3679 36.8068 71.3679 32.6892C71.3679 28.4455 72.7887 26.6388 76.1038 26.6388C79.0961 26.6388 81.0335 28.9287 81.0335 32.4371ZM126.391 33.6976V34.0337C126.391 36.4077 125.853 39.1598 121.827 39.1598C119.868 39.1598 118.641 38.1093 118.641 36.4497C118.641 35.0211 119.223 33.6976 123.485 33.6976H126.391ZM131.536 38.6766V28.9497C131.536 24.706 128.759 22.6261 123.033 22.6261C121.547 22.6261 119.18 22.7942 118.534 22.8572V26.7018C118.534 26.7018 121.311 26.5127 122.904 26.5127C125.25 26.5127 126.348 27.332 126.348 29.0547V30.3152H123.033C116.596 30.3152 113.346 32.4581 113.346 36.7438C113.346 39.5589 115.175 42.7312 120.364 42.7312C124.432 42.7312 126.09 41.4707 126.606 40.8825L127.36 42.3951L133.021 42.353V38.6766H131.536ZM22.8458 30.5883C22.8458 35.6934 25.2569 38.7606 29.2394 38.7606C31.715 38.7606 33.4372 37.7732 34.5135 35.3783H40.4335C39.3571 39.0757 36.5155 42.9203 29.0887 42.9203C21.5112 42.9203 16.9905 38.3825 16.9905 30.7354C16.9905 27.332 18.1314 24.2228 20.198 21.9749C22.4368 19.6009 25.5798 18.3404 29.304 18.3404C38.0655 18.3404 40.5196 24.3909 40.5196 26.6808H34.7073C34.2337 24.5589 32.942 22.5421 29.2824 22.5421C25.3215 22.5421 22.8458 25.6093 22.8458 30.5883ZM55.5239 33.6976V34.0337C55.5239 36.4077 55.0288 39.1598 50.9817 39.1598C49.0228 39.1598 47.7527 38.1093 47.7527 36.4497C47.7527 35.0211 48.3554 33.6976 52.5963 33.6976H55.5239ZM60.712 38.6766V28.9497C60.712 24.706 57.935 22.6261 52.2088 22.6261C50.7234 22.6261 48.3554 22.7942 47.7096 22.8572V26.7018C47.7096 26.7018 50.4866 26.5127 52.0796 26.5127C54.4261 26.5127 55.5239 27.332 55.5239 29.0547V30.3152H52.2088C45.7722 30.3152 42.5216 32.4581 42.5216 36.7438C42.5216 39.5589 44.3514 42.7312 49.4964 42.7312C53.5865 42.7312 55.2441 41.4707 55.7177 40.8825L56.4927 42.3951L62.1543 42.353V38.6766H60.712ZM106.952 23.0043H111.128V26.6808H106.952V36.5757C106.952 38.0673 107.297 38.8867 109.191 38.8867C109.858 38.8867 110.267 38.8446 110.569 38.8236V42.353C109.665 42.6472 108.373 42.7522 106.952 42.7522C103.228 42.7522 101.635 41.0925 101.635 37.29V26.6808H100.107V23.0043H101.635V19.769H106.952V23.0043ZM90.3548 14.832H95.6289V20.2942H90.3548V14.832ZM88.934 23.0043H95.6289V42.3951H90.3548V26.6808H88.934V23.0043Z" fill="#23274F"></path>
  </g>
  <defs>
    <clipPath id="clip0_426_127">
      <rect width="128" height="40" fill="white" transform="translate(5 10)"></rect>
    </clipPath>
  </defs>
</svg>
