<?xml version="1.0" encoding="UTF-8"?>
<svg xmlns="http://www.w3.org/2000/svg" width="137" height="60" viewBox="0 0 137 60" fill="none">
  <path d="M44.9061 57.9827V54.0109C44.9061 52.4917 44.0008 51.4968 42.4466 51.4968C41.6695 51.4968 40.8245 51.759 40.2435 52.6228C39.7909 51.8978 39.142 51.4968 38.1688 51.4968C37.5199 51.4968 36.8711 51.6973 36.358 52.4223V51.6279H35V57.9827H36.358V54.4737C36.358 53.3477 36.939 52.8156 37.8443 52.8156C38.7497 52.8156 39.2024 53.4094 39.2024 54.4737V57.9827H40.5604V54.4737C40.5604 53.3477 41.2093 52.8156 42.0467 52.8156C42.9521 52.8156 43.4047 53.4094 43.4047 54.4737V57.9827H44.9061ZM65.0504 51.6279H62.8473V49.7076H61.4893V51.6279H60.2595V52.885H61.4893V55.8001C61.4893 57.2577 62.0702 58.1138 63.6244 58.1138C64.2054 58.1138 64.8542 57.9133 65.3069 57.651L64.9146 56.4557C64.5222 56.7179 64.0696 56.7873 63.7451 56.7873C63.0963 56.7873 62.8398 56.3863 62.8398 55.7307V52.885H65.0428V51.6279H65.0504ZM76.5786 51.4891C75.8015 51.4891 75.2809 51.8901 74.9565 52.4145V51.6202H73.5985V57.975H74.9565V54.3965C74.9565 53.34 75.4092 52.7384 76.2542 52.7384C76.5107 52.7384 76.8351 52.8079 77.0992 52.8696L77.4915 51.5431C77.2199 51.4891 76.8351 51.4891 76.5786 51.4891ZM59.158 52.1523C58.5092 51.6896 57.6038 51.4891 56.6305 51.4891C55.0763 51.4891 54.0427 52.2834 54.0427 53.5405C54.0427 54.5971 54.8198 55.1986 56.1779 55.3914L56.8267 55.4608C57.5359 55.5919 57.9282 55.7924 57.9282 56.1241C57.9282 56.5868 57.4076 56.9184 56.5023 56.9184C55.5969 56.9184 54.8802 56.5868 54.4275 56.2552L53.7787 57.3117C54.4879 57.8438 55.4611 58.1061 56.4344 58.1061C58.2451 58.1061 59.2863 57.2423 59.2863 56.0546C59.2863 54.9287 58.4413 54.3349 57.1511 54.1343L56.5023 54.0649C55.9213 53.9955 55.4687 53.8644 55.4687 53.4711C55.4687 53.0084 55.9213 52.7462 56.6381 52.7462C57.4152 52.7462 58.1923 53.0778 58.5846 53.2783L59.158 52.1523ZM95.2894 51.4891C94.5123 51.4891 93.9917 51.8901 93.6673 52.4145V51.6202H92.3092V57.975H93.6673V54.3965C93.6673 53.34 94.1199 52.7384 94.9649 52.7384C95.2215 52.7384 95.5459 52.8079 95.8099 52.8696L96.2023 51.5585C95.9382 51.4891 95.5534 51.4891 95.2894 51.4891ZM77.9366 54.8053C77.9366 56.7256 79.2343 58.1138 81.2412 58.1138C82.1466 58.1138 82.7954 57.9133 83.4442 57.3888L82.7954 56.2629C82.2748 56.6639 81.7618 56.8567 81.1733 56.8567C80.0718 56.8567 79.2947 56.0624 79.2947 54.8053C79.2947 53.6099 80.0718 52.8156 81.1733 52.7539C81.7542 52.7539 82.2748 52.9544 82.7954 53.3477L83.4442 52.2217C82.7954 51.6896 82.1466 51.4968 81.2412 51.4968C79.2343 51.4891 77.9366 52.885 77.9366 54.8053ZM90.4985 54.8053V51.6279H89.1405V52.4223C88.6878 51.8284 88.0389 51.4968 87.1939 51.4968C85.4436 51.4968 84.0855 52.885 84.0855 54.8053C84.0855 56.7256 85.4436 58.1138 87.1939 58.1138C88.0993 58.1138 88.7481 57.7822 89.1405 57.1883V57.9827H90.4985V54.8053ZM85.5115 54.8053C85.5115 53.6793 86.2207 52.7539 87.3901 52.7539C88.4916 52.7539 89.2687 53.6176 89.2687 54.8053C89.2687 55.9312 88.4916 56.8567 87.3901 56.8567C86.2282 56.7873 85.5115 55.9235 85.5115 54.8053ZM69.2603 51.4891C67.4496 51.4891 66.1519 52.8156 66.1519 54.7976C66.1519 56.7873 67.4496 58.1061 69.3282 58.1061C70.2336 58.1061 71.1389 57.8438 71.8557 57.2423L71.2068 56.2474C70.6862 56.6485 70.0374 56.9107 69.3961 56.9107C68.5511 56.9107 67.7136 56.5097 67.5175 55.3914H72.1122C72.1122 55.1909 72.1122 55.0598 72.1122 54.8593C72.1725 52.8156 71.0031 51.4891 69.2603 51.4891ZM69.2603 52.6845C70.1053 52.6845 70.6862 53.2166 70.8145 54.2037H67.5778C67.7061 53.3477 68.287 52.6845 69.2603 52.6845ZM103 54.8053V49.1138H101.642V52.4223C101.189 51.8284 100.54 51.4968 99.6954 51.4968C97.9451 51.4968 96.587 52.885 96.587 54.8053C96.587 56.7256 97.9451 58.1138 99.6954 58.1138C100.601 58.1138 101.25 57.7822 101.642 57.1883V57.9827H103V54.8053ZM98.013 54.8053C98.013 53.6793 98.7222 52.7539 99.8916 52.7539C100.993 52.7539 101.77 53.6176 101.77 54.8053C101.77 55.9312 100.993 56.8567 99.8916 56.8567C98.7222 56.7873 98.013 55.9235 98.013 54.8053ZM52.5489 54.8053V51.6279H51.1908V52.4223C50.7382 51.8284 50.0893 51.4968 49.2443 51.4968C47.494 51.4968 46.1359 52.885 46.1359 54.8053C46.1359 56.7256 47.494 58.1138 49.2443 58.1138C50.1497 58.1138 50.7985 57.7822 51.1908 57.1883V57.9827H52.5489V54.8053ZM47.5015 54.8053C47.5015 53.6793 48.2107 52.7539 49.3801 52.7539C50.4816 52.7539 51.2587 53.6176 51.2587 54.8053C51.2587 55.9312 50.4816 56.8567 49.3801 56.8567C48.2107 56.7873 47.5015 55.9235 47.5015 54.8053Z" fill="black"></path>
  <path d="M78.9834 5.90283H58.9578V41.9344H78.9834V5.90283Z" fill="#FF5A00"></path>
  <path d="M60.2906 23.9184C60.2906 16.5979 63.727 10.1006 69 5.90261C65.1193 2.84682 60.224 1 54.8843 1C42.235 1 32 11.2502 32 23.9184C32 36.5865 42.235 46.8368 54.8843 46.8368C60.224 46.8368 65.1193 44.99 69 41.9342C63.7196 37.7955 60.2906 31.2389 60.2906 23.9184Z" fill="#EB001B"></path>
  <path d="M106 23.9184C106 36.5865 95.765 46.8368 83.1157 46.8368C77.776 46.8368 72.8807 44.99 69 41.9342C74.3397 37.7288 77.7094 31.2389 77.7094 23.9184C77.7094 16.5979 74.273 10.1006 69 5.90261C72.8733 2.84682 77.7686 1 83.1083 1C95.765 1 106 11.317 106 23.9184Z" fill="#F79E1B"></path>
</svg>
