<?xml version="1.0" encoding="UTF-8"?>
<svg xmlns="http://www.w3.org/2000/svg" width="137" height="60" viewBox="0 0 137 60" fill="none">
  <path d="M46.9259 31.963C46.9259 31.5186 46.7776 30.9259 46.4814 30.4815L45.5925 29.1482C45.1479 28.7037 44.7036 28.4074 44.111 28.2593C43.5184 27.9629 42.9258 27.8148 42.3332 27.8148C40.9999 27.8148 39.9629 28.2593 38.9258 29C38.0369 29.8889 37.4444 30.7778 37.2962 31.8148H46.9258L46.9259 31.963ZM52.7037 42.9259C51.5185 44.2593 50.1852 45.2963 48.4074 46.037C46.7778 46.7778 45 47.0741 43.2222 47.0741C41.4444 47.0741 39.8148 46.7778 38.3334 46.1852C36.8518 45.5926 35.5185 44.8519 34.4815 43.6667C33.4444 42.6296 32.5556 41.2963 31.963 39.8148C31.3704 38.3333 31.0741 36.7037 31.0741 34.7778C31.0741 33.1482 31.3703 31.6667 31.8148 30.1852C32.4074 28.7037 33.1481 27.3704 34.037 26.3333C35.0741 25.1481 36.2593 24.2593 37.5926 23.6667C38.9259 23.0741 40.5556 22.6296 42.3333 22.6296C43.963 22.6296 45.4445 22.9259 46.7778 23.5185C48.1111 24.1111 49.2963 25 50.1852 26.037C51.2222 27.0741 51.963 28.4074 52.4074 29.7407C53 31.2222 53.2963 32.7037 53.2963 34.3333C53.2963 35.0741 53.2963 35.6667 53.1479 36.1111H36.9998C37.1482 37 37.296 37.7407 37.7405 38.3333C38.0367 39.0741 38.4812 39.5185 39.0739 40.1111C39.6665 40.5555 40.259 41 40.9998 41.2963C41.7406 41.5926 42.4813 41.7407 43.3702 41.7407C44.7035 41.7407 45.8887 41.4444 46.9257 40.8518C47.9628 40.2592 48.7035 39.6666 49.2961 39.074L52.7037 42.9259ZM74.3333 31.5185C73.7408 30.6296 72.8519 29.8889 71.8148 29.4444C70.7778 28.8519 69.7407 28.7037 68.5556 28.7037C67.6667 28.7037 66.7778 28.8519 66.037 29.2963C65.2963 29.5926 64.7037 30.1852 64.1111 30.7778C63.6666 31.3704 63.2223 32.1111 62.9259 32.8518C62.6297 33.5926 62.4814 34.4815 62.4814 35.2222C62.4814 36.1111 62.6297 37 62.9259 37.7407C63.2221 38.4815 63.6667 39.2222 64.2592 39.6667C64.8519 40.2593 65.4444 40.7037 66.1852 41C66.9259 41.2963 67.8148 41.4444 68.5556 41.4444C69.7407 41.4444 70.7778 41.1481 71.8148 40.7037C72.8519 40.1111 73.5926 39.5185 74.1852 38.6296V31.5185L74.3333 31.5185ZM80.7037 46.6296H74.7778V44.7037C73.8889 45.5926 72.8519 46.1852 71.6667 46.4815C70.6296 46.7778 69.4445 47.0741 68.2593 47.0741C66.4815 47.0741 64.8519 46.7778 63.3704 46.037C61.8889 45.2963 60.5556 44.4074 59.5185 43.2222C58.6297 42.1852 57.8889 41 57.2963 39.5185C56.7037 38.1852 56.5556 36.7037 56.5556 35.0741C56.5556 33.2963 56.8517 31.8148 57.4444 30.3333C58.037 28.8519 58.9259 27.5185 59.963 26.4815C61 25.4444 62.1852 24.5556 63.5185 23.963C64.8519 23.3704 66.3333 23.0741 67.9629 23.0741C69.2963 23.0741 70.4815 23.2222 71.6667 23.6667C72.8519 24.1111 73.8889 24.7037 74.7778 25.4444V23.3704H80.7037V46.6296ZM107.074 41.8889C105.741 43.6667 104.111 45 102.481 45.8889C100.704 46.7778 98.7778 47.0741 96.5556 47.0741C94.7778 47.0741 93.1482 46.7778 91.5185 46.1852C90.037 45.5926 88.7037 44.7037 87.5185 43.6667C86.4815 42.6296 85.5926 41.2963 85 39.8148C84.4074 38.3333 84.1111 36.8519 84.1111 35.0741C84.1111 33.4444 84.4073 31.8148 85 30.3333C85.5926 28.8519 86.4815 27.5185 87.6667 26.4815C88.8519 25.4444 90.037 24.5556 91.6667 23.963C93.1482 23.3704 94.7778 23.0741 96.7037 23.0741C98.7778 23.0741 100.556 23.5185 102.333 24.4074C104.111 25.2963 105.444 26.3333 106.481 27.8148L102.037 31.6667C101.444 30.7778 100.556 30.1852 99.6667 29.5926C98.7778 29.1482 97.7408 28.8519 96.5556 28.8519C95.6667 28.8519 94.7778 29 94.0371 29.2963C93.2963 29.5926 92.5556 30.037 92.1111 30.6296C91.5185 31.2222 91.0741 31.8148 90.7778 32.7037C90.4816 33.4444 90.3332 34.3333 90.3332 35.2222C90.3332 36.1111 90.4816 37 90.7778 37.7407C91.074 38.4815 91.5185 39.2222 92.1112 39.6666C92.7037 40.2592 93.2963 40.7037 94.1852 41C94.9259 41.2963 95.8148 41.4444 96.8519 41.4444C98.1852 41.4444 99.2223 41.1481 100.259 40.5555C101.148 39.9629 101.889 39.2222 102.482 38.4814L107.074 41.8889ZM116.111 46.6296H109.889V13H116.111V25C117 24.2593 117.889 23.8148 119.074 23.3704C120.111 22.926 121.296 22.7778 122.481 22.7778C124.111 22.7778 125.593 23.0741 127.074 23.8148C128.407 24.5556 129.593 25.4444 130.63 26.4815C131.37 27.3704 131.963 28.5556 132.407 29.7407C132.852 30.9259 133 32.5556 133 34.6296V46.4815H126.778V34.1852C126.778 33 126.629 32.1111 126.482 31.5185C126.185 30.9259 125.889 30.3333 125.445 29.8889C124.556 29 123.371 28.5556 121.889 28.5556C121.148 28.5556 120.556 28.7037 119.963 28.8519C119.37 29 118.778 29.2963 118.333 29.5926L117 30.4815L116.111 31.3704L116.111 46.6296ZM10.9259 18.7778H17C23.0741 18.7778 23.0741 22.037 23.0741 23.0741C23.0741 24.1111 23.0741 27.3704 17 27.3704H10.9259V18.7778ZM22.4815 32.4074C26.7778 30.9259 29.2963 27.6667 29.2963 23.0741C29.2963 19.963 28.1111 17.2963 25.8889 15.5185C23.6667 13.8889 20.8518 13 17.1481 13H5V46.6296H10.9259V33.1482H15.8148L23.0741 46.6296H30.1852L22.4815 32.4074Z" fill="#F8BD41"></path>
</svg>
