<?xml version="1.0" encoding="UTF-8"?>
<svg xmlns="http://www.w3.org/2000/svg" width="137" height="60" viewBox="0 0 137 60" fill="none">
  <path d="M45.9743 38.9838C50.8161 38.8755 54.668 34.828 54.5604 29.958C54.4528 25.088 50.4288 21.2136 45.5869 21.3218C40.8097 21.4301 37.0008 25.3477 37.0008 30.1528C36.9362 34.9795 40.7667 38.9188 45.5654 38.9838C45.6945 39.0054 45.8452 38.9838 45.9743 38.9838ZM45.9743 35.3691C43.0907 35.3691 41.0894 33.2263 41.0894 30.1745C41.0894 27.1009 43.0907 24.9798 45.9743 24.9798C48.8579 24.9798 50.8591 27.1226 50.8591 30.1745C50.8591 33.2263 48.8579 35.3691 45.9743 35.3691ZM73.5403 36.1483C71.7758 38.0098 69.3226 39.0271 66.7618 38.9838C61.7263 38.9838 57.7668 35.3042 57.7668 30.1528C57.7668 24.9581 61.8554 21.3218 66.7618 21.3218C69.172 21.3002 71.4745 22.1876 73.2821 23.7893C73.4973 24.0058 73.5188 24.3304 73.3036 24.5685L71.6251 26.668C71.4745 26.9061 71.1732 26.9927 70.9365 26.8412C70.915 26.8195 70.8935 26.7979 70.872 26.7979C69.8175 25.6507 68.3112 24.9798 66.7618 24.9798C63.7706 24.9798 61.8554 27.1659 61.8554 30.1528C61.8554 33.1181 63.7922 35.3258 66.7618 35.3258C68.3542 35.3258 69.8821 34.6332 70.9365 33.4211C71.0872 33.183 71.4099 33.1181 71.6467 33.2696C71.6897 33.2913 71.7327 33.3345 71.7758 33.3778L73.5188 35.3258C73.7555 35.5206 73.7771 35.8453 73.6049 36.0834C73.5834 36.105 73.5619 36.1267 73.5403 36.1483ZM82.4923 38.9838C84.3645 39.092 86.2151 38.4427 87.5924 37.1656C87.7215 37.0358 87.8721 37.0358 87.8721 37.2306V38.1613C87.8291 38.421 88.0227 38.6807 88.281 38.7024C88.324 38.7024 88.3455 38.7024 88.3886 38.7024H91.0569C91.3152 38.7024 91.5304 38.5076 91.5304 38.2479C91.5304 38.2262 91.5304 38.2046 91.5304 38.1829V27.642C91.5304 23.4646 88.8405 21.3435 84.2999 21.3435C81.5885 21.2353 78.9632 22.2958 77.091 24.2871C76.9404 24.4603 76.9619 24.7417 77.134 24.8932C77.134 24.8932 77.134 24.8932 77.1556 24.9148L78.9847 26.6897C79.1784 26.8845 79.5012 26.8845 79.6948 26.6897C80.8353 25.4776 82.4278 24.785 84.1063 24.8066C86.0645 24.8066 87.4417 25.8023 87.4417 27.1659C87.4417 27.8368 87.0544 28.1399 85.9999 28.2048L82.2126 28.4645C80.7062 28.4645 79.2429 28.8974 77.9948 29.7199C76.7467 30.5857 75.9935 32.0142 75.9935 33.5294C76.015 36.7544 78.6619 38.9838 82.4923 38.9838ZM83.2455 35.6505C81.3518 35.6505 80.1037 34.7847 80.1037 33.4861C80.1037 32.3173 80.8999 31.603 82.4493 31.4731L85.6341 31.1917C86.1506 31.1485 86.667 31.0619 87.1835 30.9753C87.4417 30.9104 87.5708 30.9969 87.5708 31.1917V32.2956C87.5708 34.2653 85.7632 35.6505 83.2455 35.6505ZM102.979 38.9838C104.184 39.0054 105.367 38.7457 106.443 38.2046C107.003 37.9232 107.519 37.5769 107.993 37.1656C108.143 37.0358 108.251 37.079 108.251 37.2306V38.1613C108.208 38.421 108.401 38.6807 108.66 38.7024C108.703 38.7024 108.724 38.7024 108.767 38.7024H111.758C112.017 38.724 112.253 38.5292 112.275 38.2695C112.275 38.2479 112.275 38.2046 112.275 38.1829V15.5211C112.296 15.2397 112.081 15.0233 111.801 15.0016C111.78 15.0016 111.758 15.0016 111.758 15.0016H108.767C108.509 14.98 108.272 15.1748 108.251 15.4345C108.251 15.4562 108.251 15.4995 108.251 15.5211V23.14C108.251 23.3348 108.122 23.2915 108.057 23.2266C106.701 21.9279 104.872 21.2569 103.022 21.3218C98.3519 21.3218 94.6076 24.9148 94.6076 30.1528C94.5861 35.5423 98.2228 38.9838 102.979 38.9838ZM103.538 35.3691C100.676 35.3691 98.6747 33.2263 98.6747 30.1745C98.6747 27.1009 100.676 24.9798 103.538 24.9798C106.4 24.9798 108.401 27.1226 108.401 30.1745C108.38 33.2263 106.4 35.3691 103.538 35.3691ZM124.412 38.9838C129.253 38.8755 133.105 34.828 132.998 29.958C132.89 25.088 128.866 21.2136 124.024 21.3218C119.247 21.4301 115.438 25.3477 115.438 30.1528C115.374 34.9795 119.204 38.9188 124.003 38.9838C124.153 39.0054 124.283 39.0054 124.412 38.9838ZM124.412 35.3691C121.528 35.3691 119.527 33.2263 119.527 30.1745C119.527 27.1009 121.528 24.9798 124.412 24.9798C127.295 24.9798 129.296 27.1226 129.296 30.1745C129.296 33.2263 127.317 35.3691 124.412 35.3691Z" fill="#4D216D"></path>
  <path d="M21.7218 35.7859C25.9484 35.8715 29.7459 33.2191 31.0761 29.2191C31.2048 28.8983 31.3121 28.7486 31.5266 28.7486C31.8699 28.7486 31.9986 29.1978 31.9986 29.9892C32.1059 37.6041 26.0127 43.8714 18.3749 43.9998C18.2891 43.9998 18.2247 43.9998 18.1389 43.9998C10.3723 44.0426 4.04313 37.818 4.00022 30.0961C3.95731 22.3529 10.2006 16.0428 17.9458 16C18.0745 16 18.2247 16 18.3534 16C24.9186 16 30.1535 20.1283 30.1535 25.3261C30.1964 29.1764 27.0855 32.3421 23.2236 32.3849C23.1593 32.3849 23.1164 32.3849 23.052 32.3849C19.4476 32.3849 16.4654 29.8822 16.4654 26.3956C16.4654 25.0053 16.9374 23.6577 17.7741 22.5454C18.4178 21.754 18.9971 21.5615 18.9971 22.0106C18.9112 22.3743 18.8683 22.7593 18.8254 23.1229C18.9112 24.7058 20.2629 25.9251 21.8505 25.8395C23.5669 25.8395 24.9615 24.4705 24.9615 22.7593C24.9615 22.7379 24.9615 22.7379 24.9615 22.7165C24.9615 20.5133 22.6873 18.7379 19.748 18.7379C15.3712 18.7379 12.0886 22.7165 12.0886 27.0587C12.1316 32.0427 16.3796 35.7859 21.7218 35.7859Z" fill="#4D216D"></path>
</svg>
