<?xml version="1.0" encoding="UTF-8"?>
<svg xmlns="http://www.w3.org/2000/svg" width="137" height="60" viewBox="0 0 137 60" fill="none">
  <g clip-path="url(#clip0_426_143)">
    <path d="M113.974 37.1819C113.974 27.8911 106.792 19.4646 92.901 19.4646H79.1017V3.03125H67.3364L62.6052 11.7535L57.6539 3.03125H45.8897V22.3971C43.5202 20.1477 40.3283 18.9086 36.8771 18.9086C33.3619 18.9086 30.1023 20.2022 27.7002 22.5524C26.5329 23.6933 25.619 25.0313 24.9832 26.526C24.3308 28.0596 24 29.6951 24 31.3875V31.4478C24 34.8108 25.3034 37.938 27.6699 40.253C30.052 42.5832 33.336 43.8662 36.8526 43.8662C40.3678 43.8662 43.5909 42.5722 45.9928 40.2224C47.1599 39.0798 48.0742 37.7429 48.7106 36.2479C49.2546 34.9691 49.5714 33.6175 49.6627 32.2229H56.1856V20.2452L62.6054 29.4304L68.8051 20.2452V32.2229H78.9233V55.9691H92.4857C106.475 55.9691 114 48.1927 114 37.7079L113.974 37.1819ZM40.948 31.4478C40.948 33.6283 39.5501 35.6668 36.8769 35.6668C34.1731 35.6668 32.7149 33.6344 32.7149 31.3875V31.326H32.7144C32.7144 29.1459 34.1587 27.0475 36.8521 27.0475C39.5353 27.0475 40.9478 29.1131 40.9478 31.3875L40.948 31.4478ZM101.319 37.5834C101.319 42.0639 97.8325 44.0152 93.7003 44.0152H91.317V31.0601H93.665C97.8325 31.0601 101.319 33.0155 101.319 37.497V37.5834Z" fill="#EE2D23"></path>
  </g>
  <defs>
    <clipPath id="clip0_426_143">
      <rect width="90" height="53" fill="white" transform="translate(24 3)"></rect>
    </clipPath>
  </defs>
</svg>
