<?xml version="1.0" encoding="UTF-8"?>
<svg xmlns="http://www.w3.org/2000/svg" width="137" height="60" viewBox="0 0 137 60" fill="none">
  <path d="M18.54 22.4609H9.76799C8.50384 22.4623 7.29185 22.965 6.39797 23.8589C5.50408 24.7528 5.00132 25.9648 5 27.2289V33.0769C5.00132 34.3411 5.50408 35.5531 6.39797 36.447C7.29185 37.3408 8.50384 37.8436 9.76799 37.8449H18.54C19.8041 37.8436 21.0161 37.3408 21.91 36.447C22.8039 35.5531 23.3067 34.3411 23.308 33.0769V27.2289C23.3067 25.9648 22.8039 24.7528 21.91 23.8589C21.0161 22.965 19.8041 22.4623 18.54 22.4609ZM19.6225 33.0769C19.6238 33.2194 19.5967 33.3606 19.5427 33.4924C19.4888 33.6242 19.4091 33.7439 19.3083 33.8445C19.2074 33.9451 19.0875 34.0245 18.9556 34.0781C18.8237 34.1319 18.6824 34.1586 18.54 34.157H9.76799C9.62537 34.1586 9.48386 34.1317 9.35177 34.078C9.21968 34.0241 9.09968 33.9444 8.99883 33.8436C8.89798 33.7428 8.8183 33.6227 8.76449 33.4907C8.71068 33.3586 8.68382 33.2171 8.68549 33.0745V27.2289C8.68382 27.0863 8.71068 26.9448 8.76449 26.8127C8.8183 26.6806 8.89798 26.5606 8.99883 26.4598C9.09968 26.3589 9.21968 26.2792 9.35177 26.2254C9.48386 26.1716 9.62537 26.1448 9.76799 26.1464H18.54C18.6826 26.1448 18.8241 26.1716 18.9562 26.2254C19.0883 26.2792 19.2083 26.3589 19.3091 26.4598C19.41 26.5606 19.4897 26.6806 19.5435 26.8127C19.5973 26.9448 19.6242 27.0863 19.6225 27.2289V33.0769Z" fill="#000105"></path>
  <path d="M38.4206 22.4609H29.6362C28.374 22.4649 27.1648 22.9689 26.2734 23.8626C25.3821 24.7562 24.8813 25.9667 24.8806 27.2289V37.8449H28.5661V27.2289C28.5644 27.0874 28.5909 26.9469 28.6439 26.8156C28.697 26.6843 28.7756 26.5649 28.8751 26.4642C28.9746 26.3635 29.0931 26.2836 29.2238 26.2291C29.3544 26.1745 29.4946 26.1464 29.6362 26.1464H38.4206C38.5631 26.1447 38.7046 26.1716 38.8365 26.2255C38.9685 26.2793 39.0883 26.359 39.1889 26.4599C39.2896 26.5608 39.369 26.6808 39.4225 26.8129C39.4761 26.945 39.5027 27.0864 39.5007 27.2289V37.8449H43.1886V27.2289C43.1873 25.9648 42.6845 24.7528 41.7907 23.8589C40.8967 22.965 39.6848 22.4623 38.4206 22.4609Z" fill="#000105"></path>
  <path d="M58.3189 22.4609H49.5444C48.2802 22.4623 47.0683 22.965 46.1743 23.8589C45.2805 24.7528 44.7777 25.9648 44.7764 27.2289V33.0769C44.7777 34.3411 45.2805 35.5531 46.1743 36.447C47.0683 37.3408 48.2802 37.8436 49.5444 37.8449H61.5241L62.6315 34.157H49.5444C49.4017 34.1586 49.2603 34.1317 49.1282 34.078C48.996 34.0241 48.8761 33.9444 48.7752 33.8436C48.6743 33.7428 48.5947 33.6227 48.5409 33.4907C48.4871 33.3586 48.4602 33.2171 48.4619 33.0745V31.9969H63.0844V27.2289C63.0831 25.9652 62.5806 24.7536 61.6873 23.8598C60.7939 22.966 59.5826 22.4629 58.3189 22.4609ZM59.4014 28.3089H48.4519V27.2289C48.4502 27.0855 48.4774 26.9431 48.5318 26.8103C48.5862 26.6776 48.6668 26.5571 48.7687 26.4561C48.8707 26.3552 48.9918 26.2757 49.1251 26.2225C49.2583 26.1693 49.4009 26.1434 49.5444 26.1464H58.3164C58.459 26.1448 58.6005 26.1716 58.7326 26.2254C58.8647 26.2792 58.9847 26.3589 59.0856 26.4598C59.1864 26.5606 59.2661 26.6806 59.3199 26.8127C59.3737 26.9448 59.4006 27.0863 59.3989 27.2289L59.4014 28.3089Z" fill="#000105"></path>
  <path d="M69.4524 26.1464H81.4223L82.5097 22.4609H69.4524C68.1881 22.4623 66.9764 22.965 66.0825 23.8589C65.1886 24.7528 64.6859 25.9648 64.6846 27.2289V33.0769C64.6865 34.3409 65.1895 35.5525 66.0832 36.4462C66.977 37.34 68.1888 37.843 69.4524 37.8449H81.7555L82.5022 34.1595H69.4524C69.31 34.1611 69.1682 34.1342 69.0364 34.0804C68.9041 34.0266 68.7842 33.9469 68.6832 33.8461C68.5828 33.7452 68.5031 33.6253 68.4492 33.4932C68.3952 33.3611 68.3682 33.2195 68.3701 33.0769V27.2289C68.3682 27.0863 68.3952 26.9448 68.4492 26.8127C68.5031 26.6806 68.5828 26.5606 68.6832 26.4598C68.7842 26.3589 68.9041 26.2792 69.0364 26.2254C69.1682 26.1716 69.31 26.1448 69.4524 26.1464Z" fill="#000105"></path>
  <path d="M97.3664 22.4609H88.5915C87.3272 22.4623 86.1156 22.965 85.2214 23.8589C84.328 24.7528 83.8247 25.9648 83.8235 27.2289V33.0769C83.8254 34.3409 84.3286 35.5525 85.2221 36.4462C86.1162 37.34 87.3278 37.843 88.5915 37.8449H97.3664C98.6301 37.843 99.8411 37.3399 100.735 36.4461C101.628 35.5523 102.13 34.3407 102.132 33.0769V27.2289C102.131 25.965 101.629 24.753 100.735 23.8591C99.8417 22.9651 98.6301 22.4623 97.3664 22.4609ZM98.4462 33.0769C98.4475 33.2191 98.4205 33.3602 98.3665 33.4918C98.3126 33.6234 98.2335 33.743 98.1325 33.8436C98.0321 33.9441 97.9129 34.0236 97.7811 34.0775C97.6494 34.1312 97.5082 34.1583 97.3664 34.157H88.5915C88.4491 34.1586 88.3079 34.1317 88.1755 34.0779C88.0437 34.0241 87.9239 33.9444 87.8235 33.8435C87.7225 33.7426 87.6434 33.6226 87.5894 33.4905C87.5361 33.3584 87.5098 33.217 87.5116 33.0745V27.2289C87.5098 27.0864 87.5361 26.945 87.5894 26.8129C87.6434 26.6808 87.7225 26.5608 87.8235 26.4599C87.9239 26.359 88.0437 26.2793 88.1755 26.2255C88.3079 26.1716 88.4491 26.1447 88.5915 26.1464H97.3664C97.5088 26.1451 97.65 26.1722 97.7818 26.2262C97.9135 26.2801 98.0327 26.3598 98.1338 26.4607C98.2342 26.5615 98.3138 26.6814 98.3672 26.8133C98.4211 26.9452 98.4475 27.0865 98.4462 27.2289V33.0769Z" fill="#000105"></path>
  <path d="M127.813 22.4609H121.067C120.007 22.4606 118.978 22.8106 118.138 23.4563C117.297 22.8184 116.273 22.4692 115.219 22.4609H108.472C107.208 22.4623 105.996 22.965 105.102 23.8589C104.208 24.7528 103.706 25.9648 103.704 27.2289V37.8449H107.39V27.2289C107.388 27.0863 107.415 26.9448 107.469 26.8127C107.523 26.6806 107.602 26.5606 107.703 26.4598C107.804 26.3589 107.924 26.2792 108.056 26.2254C108.188 26.1716 108.33 26.1448 108.472 26.1464H115.219C115.504 26.1503 115.777 26.2657 115.979 26.4679C116.181 26.6702 116.295 26.9433 116.299 27.2289V37.8449H119.987V27.2289C119.985 27.0864 120.011 26.945 120.065 26.8129C120.118 26.6808 120.198 26.5608 120.299 26.4599C120.399 26.359 120.519 26.2793 120.651 26.2255C120.783 26.1716 120.924 26.1448 121.067 26.1464H127.813C127.956 26.1448 128.097 26.1716 128.23 26.2254C128.361 26.2792 128.481 26.3589 128.582 26.4598C128.683 26.5606 128.763 26.6806 128.817 26.8127C128.87 26.9448 128.897 27.0863 128.896 27.2289V37.8449H132.581V27.2289C132.58 25.9648 132.077 24.7528 131.183 23.8589C130.289 22.965 129.077 22.4623 127.813 22.4609Z" fill="#000105"></path>
</svg>
