<?xml version="1.0" encoding="UTF-8"?>
<svg xmlns="http://www.w3.org/2000/svg" width="137" height="60" viewBox="0 0 137 60" fill="none">
  <g clip-path="url(#clip0_426_160)">
    <path d="M112.082 28.349V37.9906H115.171V31.5628H126.469V37.9906H129.559V28.349H112.082ZM114.818 25.2231H126.734C128.411 24.915 129.603 23.4181 129.956 22.0093H111.596C111.949 23.4181 113.185 24.8709 114.818 25.2231ZM102.681 37.9906C104.226 37.3302 105.065 36.1855 105.418 34.8648H91.5157V22.0533H88.3822V37.9906H102.681ZM65.2121 25.1791H76.2455C77.9225 24.6948 79.2907 23.4181 79.6438 22.0533H62.1669V31.4748H76.4661V34.7767H65.2562C63.4909 35.261 61.9904 36.4497 61.2401 37.9906H79.5555V28.349H65.2562L65.2121 25.1791ZM38.0259 25.2231H49.9419C51.619 24.915 52.8547 23.4181 53.1637 22.0093H34.76C35.1131 23.4181 36.3488 24.8709 38.0259 25.2231ZM38.0259 31.5188H49.9419C51.619 31.2106 52.8547 29.7138 53.1637 28.3049H34.76C35.1131 29.7138 36.3488 31.1666 38.0259 31.5188ZM38.0259 37.9906H49.9419C51.619 37.6824 52.8547 36.1855 53.1637 34.7767H34.76C35.1131 36.1855 36.3488 37.6824 38.0259 37.9906Z" fill="#5E5E5E"></path>
    <path d="M7 22.0533C7.35307 23.4621 8.58881 24.8709 10.2217 25.2231H15.253L15.5178 25.3112V37.9465H18.6512V25.3112L18.916 25.2231H23.9473C25.6243 24.7829 26.8159 23.4621 27.169 22.0533V22.0093L7 22.0533Z" fill="#5E5E5E"></path>
  </g>
  <defs>
    <clipPath id="clip0_426_160">
      <rect width="123" height="16" fill="white" transform="translate(7 22)"></rect>
    </clipPath>
  </defs>
</svg>
