<?xml version="1.0" encoding="UTF-8"?>
<svg xmlns="http://www.w3.org/2000/svg" width="137" height="60" viewBox="0 0 137 60" fill="none">
  <path d="M28.9791 14.2074C28.6772 14.5743 28.5064 14.9839 28.5064 15.6961V35.2797H28.3981C28.3981 35.2797 17.705 16.1699 17.1882 15.2865C16.8222 14.6599 16.4136 14.2288 15.8753 13.9048C15.3371 13.6037 14.7775 13.4096 13.7026 13.4096H10.1743C9.3555 13.4096 8.84014 13.6893 8.4742 14.1219C8.1723 14.4871 8 14.8983 8 15.609V43.3681C8 44.0803 8.1723 44.4899 8.4742 44.8567C8.84014 45.2878 9.3555 45.5675 10.1743 45.5675H12.1748C12.992 45.5675 13.5089 45.2878 13.8749 44.8567C14.1752 44.4899 14.3475 44.0803 14.3475 43.3681V23.3092H14.4558C14.4558 23.3092 25.5575 43.0226 26.0104 43.7563C26.634 44.791 27.6876 45.5675 29.1941 45.5675H32.6156C33.4329 45.5675 33.9498 45.2878 34.3157 44.8567C34.6161 44.4899 34.7884 44.0803 34.7884 43.3681V18.3265H79.7365C80.1894 18.3265 80.5325 18.1981 80.7917 17.9826C81.0707 17.7228 81.2003 17.3774 81.2003 16.8608V14.9625C81.2003 14.4444 81.0707 14.0989 80.7917 13.8406C80.5325 13.6251 80.1894 13.4952 79.7365 13.4952H30.6792C29.8619 13.4952 29.345 13.7764 28.9791 14.2074ZM48.6026 21.6264C41.1359 21.6264 36.9398 27.4726 36.9398 33.6412C36.9398 40.2195 41.4378 46 48.6453 46C52.2392 46 55.7674 44.6412 57.7893 42.2462C58.6721 41.2115 59.3826 39.7656 59.3826 38.8822C59.3826 38.5795 59.3171 38.3212 59.1463 38.1271C58.974 37.9116 58.7148 37.7817 58.2635 37.7817H54.7992C54.11 37.7817 53.6374 38.04 53.2928 38.5581C52.2819 40.0468 50.8181 40.8233 48.6667 40.8233C45.4388 40.8233 43.3529 38.364 43.202 35.6679H58.1781C58.8444 35.6679 59.3171 35.5166 59.6403 35.1941C60.0062 34.8487 60.1785 34.352 60.1785 33.4242C60.1785 30.5997 59.2957 27.6667 57.4462 25.423C55.5524 23.1578 52.6691 21.6264 48.6026 21.6264ZM71.6889 21.6264C65.7942 21.6264 61.9213 24.431 61.9213 28.9169C61.9213 30.5126 62.5023 31.8071 63.4491 32.8205C64.547 34.0081 66.1175 34.8273 68.3985 35.4096L73.325 36.6599C74.6805 37.0053 75.885 37.4149 75.885 38.6009C75.885 40.435 73.9486 41.0602 71.8841 41.0602C70.8716 41.0602 69.818 40.8661 68.9565 40.435C68.3543 40.1324 67.8389 39.7014 67.473 39.1191C67.1497 38.6223 67.043 38.2555 66.5474 37.9758C66.2455 37.8031 65.8796 37.7817 65.3856 37.7817H62.7173C62.1363 37.7817 61.8573 37.9544 61.6637 38.1913C61.47 38.4282 61.4044 38.7737 61.4044 39.1191C61.4044 39.9811 61.7063 41.0602 62.4169 42.0307C64.0514 44.2301 67.473 46 71.8398 46C76.1442 46 82.1045 44.2087 82.1045 38.4282C82.1045 36.9411 81.673 35.6679 80.8771 34.6332C79.8661 33.3172 78.4253 32.4109 75.9719 31.7857L71.0881 30.534C69.0648 30.0174 68.1179 29.6505 68.1179 28.3988C68.1179 27.1913 69.1944 26.2208 71.6889 26.2208C73.1527 26.2208 74.4868 26.5448 75.3483 27.4512C76.0573 28.2062 75.9292 28.5944 76.4888 28.8955C76.8319 29.0682 77.2192 29.0682 77.823 29.0682H80.2534C80.6407 29.0682 80.9213 29.004 81.1347 28.7656C81.3086 28.5715 81.4153 28.2704 81.4153 27.7737C81.4153 26.6518 80.6834 25.2074 79.3935 24.107C77.672 22.6183 74.961 21.6264 71.6889 21.6264ZM85.0945 22.4471H83.89C83.4386 22.4471 83.094 22.5755 82.8364 22.791C82.5558 23.0509 82.4262 23.3963 82.4262 23.9129V25.4016C82.4262 25.9197 82.5558 26.2636 82.8364 26.5234C83.094 26.7389 83.4386 26.8688 83.89 26.8688H85.0945V37.6304C85.0945 40.3907 85.8477 42.1163 87.2459 43.498C88.5374 44.7696 90.2162 45.5675 93.1422 45.5675H94.9703C95.4232 45.5675 95.7663 45.4391 96.0255 45.2236C96.3045 44.9637 96.4768 44.6183 96.4768 44.1017V42.2248C96.4768 41.7067 96.3045 41.3628 96.0255 41.103C95.7663 40.8875 95.4232 40.7575 94.9703 40.7575H94.7127C93.5508 40.7575 92.7549 40.4564 92.2166 39.9383C91.5717 39.3346 91.2484 38.4068 91.2484 37.1994V26.8688H95.1655C95.6168 26.8688 95.9614 26.7389 96.2191 26.5234C96.4981 26.2636 96.6277 25.9197 96.6277 25.4016V23.9129C96.6277 23.3963 96.4981 23.0509 96.2191 22.791C95.9614 22.5755 95.6168 22.4471 95.1655 22.4471H91.2698V15.4149C91.2698 14.854 91.0975 14.4444 90.8398 14.1219C90.5165 13.7336 90.0652 13.4952 89.3989 13.4952H86.9669C86.2991 13.4952 85.8477 13.7336 85.5245 14.1219C85.2668 14.4444 85.0945 14.854 85.0945 15.4149V22.4471ZM98.2638 43.6478C98.2638 44.2087 98.4346 44.6183 98.6938 44.9423C99.0155 45.3306 99.4684 45.5675 100.135 45.5675H102.695C103.363 45.5675 103.814 45.3306 104.137 44.9423C104.395 44.6183 104.567 44.2087 104.567 43.6478V15.4164C104.567 14.8555 104.395 14.4459 104.137 14.1219C103.814 13.7336 103.363 13.4952 102.695 13.4952H100.135C99.4684 13.4952 99.0155 13.7336 98.6938 14.1219C98.4346 14.4459 98.2638 14.8555 98.2638 15.4164V43.6478ZM43.2446 31.0735C43.5237 28.4202 45.547 26.4363 48.624 26.4363C51.6369 26.4363 53.7227 28.4202 54.0033 31.0735H43.2446ZM127.87 18.3265C128.321 18.3265 128.666 18.1981 128.924 17.9826C129.204 17.7228 129.334 17.3774 129.334 16.8608V14.854C129.334 14.0775 129.183 13.6893 128.924 13.4096C128.687 13.1498 128.3 13 127.87 13C127.525 13 127.182 13.0428 126.601 13.107L109.43 14.8112C108.936 14.854 108.699 15.0053 108.527 15.1994C108.333 15.4149 108.246 15.6961 108.246 16.0843V17.2047C108.246 17.6372 108.333 17.8313 108.484 18.004C108.676 18.2195 108.957 18.3265 109.344 18.3265H127.87ZM118.381 21.6264C110.915 21.6264 106.719 27.4726 106.719 33.6412C106.719 40.2195 111.217 46 118.424 46C122.018 46 125.546 44.6412 127.568 42.2462C128.451 41.2115 129.161 39.7656 129.161 38.8822C129.161 38.5795 129.096 38.3212 128.924 38.1271C128.753 37.9116 128.494 37.7817 128.042 37.7817H124.578C123.889 37.7817 123.416 38.04 123.072 38.5581C122.061 40.0468 120.597 40.8233 118.445 40.8233C115.218 40.8233 113.13 38.364 112.981 35.6679H128C128.666 35.6679 129.14 35.5166 129.462 35.1941C129.828 34.8487 130 34.352 130 33.4242C130 30.5997 129.117 27.6667 127.268 25.423C125.374 23.1578 122.448 21.6264 118.381 21.6264ZM113.023 31.0735C113.304 28.4202 115.326 26.4363 118.403 26.4363C121.416 26.4363 123.502 28.4202 123.782 31.0735H113.023Z" fill="#939CA1"></path>
</svg>
