<?xml version="1.0" encoding="UTF-8"?>
<svg xmlns="http://www.w3.org/2000/svg" width="137" height="60" viewBox="0 0 137 60" fill="none">
  <path d="M68.5 54.47C54.805 54.47 43.585 43.195 43.585 29.5C43.585 26.42 44.135 23.505 45.18 20.755L59.755 50.07C59.92 50.455 60.195 50.785 60.635 50.785C61.075 50.785 61.35 50.455 61.515 50.07L68.225 35.055C68.28 34.89 68.39 34.725 68.555 34.725C68.72 34.725 68.775 34.89 68.885 35.055L75.595 50.07C75.76 50.455 76.035 50.785 76.475 50.785C76.915 50.785 77.19 50.455 77.355 50.07L91.93 20.755C92.975 23.505 93.525 26.42 93.525 29.5C93.415 43.195 82.195 54.47 68.5 54.47ZM68.5 23.835C68.335 23.835 68.28 23.67 68.17 23.505L60.36 5.905C62.89 4.97 65.64 4.475 68.5 4.475C71.36 4.475 74.11 4.97 76.64 5.905L68.83 23.505C68.72 23.725 68.665 23.835 68.5 23.835ZM60.525 41.93C60.36 41.93 60.305 41.765 60.195 41.6L47.545 16.08C49.8 12.615 52.825 9.7 56.51 7.665L65.64 27.96C65.75 28.29 66.025 28.4 66.3 28.4H70.7C71.03 28.4 71.25 28.345 71.415 27.96L80.545 7.665C84.175 9.7 87.255 12.615 89.51 16.08L76.75 41.6C76.695 41.765 76.585 41.93 76.42 41.93C76.255 41.93 76.2 41.765 76.09 41.6L71.305 30.71C71.14 30.325 70.92 30.27 70.59 30.27H66.19C65.86 30.27 65.64 30.325 65.475 30.71L60.855 41.6C60.8 41.765 60.69 41.93 60.525 41.93ZM68.5 57C83.735 57 96 44.735 96 29.5C96 14.265 83.735 2 68.5 2C53.265 2 41 14.265 41 29.5C41 44.735 53.265 57 68.5 57Z" fill="#001E50"></path>
</svg>
