<?xml version="1.0" encoding="UTF-8"?>
<svg xmlns="http://www.w3.org/2000/svg" width="137" height="60" viewBox="0 0 137 60" fill="none">
  <g clip-path="url(#clip0_427_292)">
    <path d="M114.5 35.6196C113.409 35.3642 113.148 34.8111 113.017 33.7898C112.755 32.0876 112.755 27.8323 113.017 26.0025C113.148 25.0664 113.715 24.5557 114.5 24.3004C115.46 24.0451 124.097 23.9174 125.057 24.3004C125.886 24.5557 126.148 25.1089 126.279 25.8749C126.671 27.577 126.671 31.96 126.279 33.6621C126.148 34.4706 125.886 34.8536 125.057 35.2366C124.272 35.8749 115.721 35.8749 114.5 35.6196ZM127.893 18.4281C125.319 17.9174 115.416 17.7472 111.49 18.4281C108.523 18.9387 106.211 21.0664 105.513 23.7047C104.99 26.7259 104.99 33.4919 105.513 36.2579C106.037 38.7685 108.218 41.0238 111.49 41.5344C114.893 42.2153 124.883 42.0451 128.024 41.4068C131.688 40.5983 133.171 37.96 133.564 36.2579C134.087 33.6196 134.087 26.8962 133.564 23.7047C132.909 20.9387 130.466 18.9813 127.893 18.4281ZM93.9094 18.5983H101.369V41.4493H93.9094V18.5983ZM82 32.7259C83.2215 32.9813 83.4832 33.9174 83.4832 34.7259C83.4832 35.5344 83.3524 36.4281 82 36.5557C80.5168 36.8111 75.5 36.8111 73.6242 36.5557C72.7953 36.4281 71.8792 36.4281 71.5738 34.9813V34.5983H64.1141C64.1141 34.7259 64.1141 35.1089 64.245 35.6621C64.5067 38.6834 65.7282 40.811 69.2618 41.4919C72.0973 42.0025 82.7852 42.1727 86.0571 41.4919C89.8524 40.6834 90.8121 37.4068 90.8121 34.4706C90.8121 31.1515 89.5906 28.9387 86.6242 28.0025C85.7953 27.7472 83.9195 27.6196 83.0906 27.6196C82.3926 27.6196 74.4094 27.3642 72.6644 27.1089C71.5738 26.9813 71.3121 26.3004 71.3121 25.4068C71.3121 24.4706 71.443 23.8323 72.7953 23.577C74.4094 23.3217 80.7785 23.3217 81.4765 23.577C82.3054 23.8323 82.5671 24.3855 82.5671 25.0238V25.5344H90.0269C90.0269 25.0238 89.896 24.5983 89.896 24.2153C89.5034 20.6408 87.453 18.6834 83.7886 18.3855C80.1242 18.0025 71.7483 18.1302 69.1745 18.5132C66.7315 19.0238 64.2886 20.5132 64.2886 25.3642C64.2886 29.3217 66.1644 31.3217 69.4362 31.96C70.396 32.0876 73.1007 32.2153 73.4933 32.2153C74.4094 32.3004 81.4765 32.5983 82 32.7259ZM52.5973 32.5983H44.3524L47.8859 23.4919H49.1074L52.5973 32.5983ZM54.255 37.3217L55.8691 41.4068H63.8523L53.8188 18.4281H43L33.0973 41.4068H41.0805L42.6946 37.194L54.255 37.3217ZM11.7215 33.9174C11.8524 35.2366 12.5503 35.4919 13.2047 35.6196C14.2953 35.8749 22.0168 35.8749 23.3691 35.6196C24.3289 35.4919 24.9832 34.811 25.1141 34.0451C25.1141 33.6621 25.245 32.9813 25.245 32.7259H32.9664C32.9664 33.2366 32.9665 34.5557 32.8356 35.7472C32.443 38.5132 30.7852 40.7685 27.2953 41.577C24.8524 42.0876 13.0738 42.0876 10.3691 41.577C7.53356 40.8962 5.0906 39.194 4.39262 36.3004C3.86913 33.6621 3.86913 26.7685 4.39262 23.8749C4.78523 21.7472 6.83557 19.2366 10.1946 18.5983C13.2919 18.0876 24.2852 17.9174 27.2517 18.5983C31.1779 19.5344 32.3993 22.9387 32.5302 24.1302C32.6611 25.4493 32.6611 26.3855 32.6611 26.8962H24.9396C24.9396 26.3855 25.0705 24.8961 23.7181 24.5132C22.8893 24.2579 15.3423 24.2579 13.4228 24.3855C12.4631 24.5132 11.9396 24.8962 11.8087 25.8323C11.4597 27.7047 11.4597 32.1727 11.7215 33.9174Z" fill="#003296"></path>
  </g>
  <defs>
    <clipPath id="clip0_427_292">
      <rect width="130" height="24" fill="white" transform="translate(4 18)"></rect>
    </clipPath>
  </defs>
</svg>
