<?xml version="1.0" encoding="UTF-8"?>
<svg xmlns="http://www.w3.org/2000/svg" width="137" height="63" viewBox="0 0 137 63" fill="none">
  <g clip-path="url(#clip0_426_224)">
    <path d="M51.8591 5.17784C51.8591 3.32767 53.4014 1.81934 55.2952 1.81934H81.7631C83.6846 1.81934 85.2267 3.32767 85.2267 5.17784V53.903C85.2267 55.7538 83.6846 57.2613 81.7631 57.2613H55.2952C53.4015 57.2613 51.8591 55.7538 51.8591 53.903V5.17784Z" fill="white"></path>
    <path d="M53.2849 10.9267V5.17768C53.2849 4.09684 54.1891 3.21484 55.295 3.21484H81.763C82.8982 3.21484 83.8007 4.09684 83.8007 5.17768V10.9267H53.2849Z" fill="black"></path>
    <path d="M83.7988 12.3223H53.2849V46.7613H83.7988V12.3223Z" fill="black"></path>
    <path d="M77.3657 8.11086C77.4823 8.28086 77.7451 8.48052 77.9185 8.56552C78.4143 8.82219 78.8527 8.90702 79.3167 8.90702C80.0451 8.90702 80.4816 8.59336 80.4816 8.13902C80.4816 7.59652 79.9269 7.51153 79.0838 7.39969C78.0073 7.25686 77.4249 6.77219 77.4249 5.91919C77.4525 5.06502 78.2701 4.40869 79.4626 4.40869C80.2761 4.40869 80.8311 4.58052 81.1806 4.75052V5.86136C81.064 5.66236 80.8013 5.51952 80.5409 5.40669C80.1891 5.29169 79.8399 5.23486 79.4626 5.23486C78.8802 5.23486 78.5305 5.46269 78.5305 5.74919C78.5305 6.23086 78.9966 6.28869 80.0157 6.48852C81.0345 6.68719 81.6465 7.11502 81.617 7.99602C81.5875 9.02002 80.7718 9.70403 79.3167 9.70403C78.6747 9.70403 77.8612 9.58936 77.3657 9.33436V8.11086Z" fill="white"></path>
    <path d="M59.2839 6.06094C59.2839 6.57344 58.8475 6.77211 58.1781 6.77211H56.9558V5.31977H58.1781C58.8475 5.31977 59.2839 5.51944 59.2839 6.06094ZM60.0401 8.33761C59.7794 7.85427 59.576 7.48461 59.1969 7.31277C60.0125 7.14277 60.4193 6.68727 60.4193 6.00411C60.4193 5.34977 60.127 4.83811 59.5761 4.63844C59.2268 4.49561 58.788 4.49561 58.1188 4.49561H55.4412C55.7037 4.66561 55.848 5.17794 55.848 5.63444V8.50844C55.848 8.93494 55.7036 9.47627 55.4412 9.61927H57.3604C57.0999 9.47627 56.9558 8.93494 56.9558 8.50844V7.59627H57.7693C58.1781 7.59627 58.4109 7.73911 58.5848 8.05377C58.875 8.50844 59.0806 9.1346 59.43 9.61927H60.9721C60.5081 9.30644 60.2732 8.82194 60.0401 8.33761Z" fill="white"></path>
    <path d="M64.1178 9.76119C64.8444 9.76119 65.4585 9.56119 65.9227 9.16186C66.4775 8.70819 66.8545 8.02386 66.8545 7.05686C66.8545 6.11886 66.4775 5.40669 65.9227 4.95019C65.4585 4.58053 64.8444 4.38086 64.1178 4.38086C63.3891 4.38086 62.7788 4.58053 62.311 4.95019C61.7601 5.40669 61.3809 6.11886 61.3809 7.05686C61.3809 8.02386 61.7601 8.70819 62.311 9.16186C62.7788 9.56119 63.4188 9.76119 64.1178 9.76119ZM63.0119 8.42353C62.6922 8.13886 62.5461 7.68419 62.5461 7.05686C62.5461 6.45853 62.6922 6.00419 63.0119 5.69136C63.2726 5.43453 63.6518 5.26486 64.1178 5.26486C64.5837 5.26486 64.9629 5.43453 65.2236 5.69136C65.5455 6.00403 65.7191 6.45853 65.7191 7.05686C65.7191 7.68436 65.5453 8.13886 65.2236 8.42353C64.9627 8.68019 64.5837 8.85003 64.1178 8.85003C63.6518 8.85003 63.2726 8.68019 63.0119 8.42353Z" fill="white"></path>
    <path d="M71.6885 8.30844C71.3961 8.67994 70.7861 8.79311 70.1166 8.79311H69.0975V5.63444C69.0975 5.20694 69.2419 4.66544 69.4749 4.49561H67.5833C67.8436 4.66561 67.9918 5.20711 67.9918 5.63444V8.50844C67.9918 8.96477 67.8436 9.44744 67.5833 9.61927H71.5126L71.6885 8.30844Z" fill="white"></path>
    <path d="M76.4335 8.30844C76.1414 8.67994 75.5312 8.82194 74.8618 8.79311H73.8133V5.63444C73.8133 5.20694 73.9576 4.66544 74.2218 4.49561H72.3284C72.5889 4.66561 72.7369 5.20711 72.7369 5.63444V8.50844C72.7369 8.96477 72.5889 9.47627 72.3284 9.64611H76.2284L76.4335 8.30844Z" fill="white"></path>
    <path d="M86.9743 5.17782C86.9743 2.36065 84.6441 0.0839844 81.7632 0.0839844H55.2951C52.4122 0.0839844 50.082 2.36065 50.082 5.17782V53.903C50.082 56.723 52.4122 58.9987 55.2951 58.9987H81.7631C84.644 58.9987 86.9743 56.723 86.9743 53.903V5.17782ZM51.8591 5.17782C51.8591 3.32765 53.4013 1.81932 55.2951 1.81932H81.7631C83.6845 1.81932 85.2266 3.32765 85.2266 5.17782V53.903C85.2266 55.7538 83.6845 57.2613 81.7631 57.2613H55.2951C53.4015 57.2613 51.8591 55.7538 51.8591 53.903V5.17782Z" fill="black"></path>
    <path d="M53.2849 48.1548V53.9028C53.2849 54.9875 54.1891 55.8676 55.295 55.8676H81.763C82.8982 55.8676 83.8007 54.9875 83.8007 53.9028V48.1548H53.2849Z" fill="black"></path>
    <path d="M66.3589 41.2679V33.6113C67.1153 33.5841 67.8438 33.5551 68.5726 33.4971C68.3098 32.8988 68.0473 32.3024 67.7274 31.7331C67.2909 31.7889 66.8271 31.7889 66.3589 31.8181V30.2256C65.3398 30.4531 64.2342 30.6231 63.0988 30.7371V41.2679C63.0988 43.5996 61.991 44.2269 61.3218 44.6536H68.1342C67.4965 44.2269 66.3589 43.5996 66.3589 41.2679Z" fill="white"></path>
    <path d="M82.1993 44.6266C81.6465 44.1131 80.9454 43.3161 80.5981 41.7526C79.958 38.8766 78.6173 34.7498 75.7937 31.6751C78.5602 30.1966 80.2484 27.8611 80.2484 24.9891C80.276 22.9383 79.1998 20.7765 77.2785 19.4958C76.4631 18.9813 75.5032 18.6116 74.3661 18.3838C74.7746 19.2381 75.0355 20.1491 75.0945 21.0611C76.2872 21.9703 76.9291 23.3658 76.9291 25.0448C76.9291 27.1796 75.8232 29.6831 71.9512 30.9646C72.2688 31.5611 72.5887 32.1885 72.8514 32.785C73.0567 32.7291 73.26 32.6728 73.4654 32.615C75.2703 34.6648 76.7237 37.8806 77.16 40.8685C77.4821 43.0321 76.696 44.1131 76.1729 44.6266H82.1993Z" fill="white"></path>
    <path d="M60.4489 28.3747V16.4219H65.0775C66.7676 16.4499 68.0198 16.7916 69.0092 17.4729C70.3182 18.3837 71.0193 19.8356 71.0193 21.5726C71.0193 24.5026 68.9499 28.2317 60.4489 28.3747ZM75.4148 41.1812C74.832 40.6697 74.1353 39.8722 73.8132 38.3072C73.1733 35.4332 71.8916 31.3914 69.3308 28.5154C69.4454 28.4596 69.5342 28.4304 69.6486 28.3746C72.5614 26.9227 74.3384 24.5026 74.3384 21.5427C74.3662 19.4657 73.2881 17.3311 71.3685 16.0502C69.8539 15.0544 67.8163 14.6567 65.2236 14.6567H55.4116C56.081 15.0832 57.1869 15.7087 57.1869 18.0422V37.7957C57.1869 40.1562 56.081 40.7547 55.4116 41.1812H62.2242C61.5843 40.7546 60.4489 40.1562 60.4489 37.7957V30.1387C62.8363 30.1387 65.0775 29.8532 66.9693 29.3706C68.6892 31.3916 69.9707 34.5222 70.3775 37.3962C70.6677 39.5619 69.9115 40.6699 69.3881 41.1814H75.4148V41.1812Z" fill="white"></path>
    <path d="M66.3591 26.668V19.9221H70.028C69.7677 19.181 69.2995 18.5835 68.6616 18.127H61.3218C61.9912 18.5543 63.0988 19.1528 63.0988 21.5143V27.4631C64.3213 27.2933 65.4269 27.0386 66.3591 26.668Z" fill="white"></path>
    <path d="M73.0274 52.0265C73.0274 52.9917 73.61 53.7329 74.629 53.7329C75.3574 53.7329 76.0268 53.534 76.3174 53.1925L76.1416 54.3042C75.8809 54.4162 75.4149 54.559 74.6587 54.559C73.0276 54.559 71.8918 53.6189 71.8918 52.0265C71.8918 51.1735 72.2416 50.5172 72.7648 50.0907C73.2308 49.6912 73.8706 49.4634 74.6585 49.4634C75.4149 49.4634 75.8807 49.606 76.1414 49.7489V50.8029C75.8234 50.4614 75.3572 50.2895 74.6288 50.2895C73.61 50.2895 73.0274 51.0307 73.0274 52.0265Z" fill="white"></path>
    <path d="M59.1081 51.0576C59.1081 51.542 58.7015 51.7408 58.0616 51.7408H56.8966V50.3763H58.0616C58.7015 50.3763 59.1081 50.546 59.1081 51.0576ZM59.8369 53.2213C59.6038 52.7658 59.4002 52.3952 59.0508 52.2543C59.8091 52.1115 60.1862 51.6558 60.2159 51.0306C60.2159 50.3763 59.9254 49.8917 59.4002 49.691C59.0805 49.5772 58.6438 49.5771 58.0022 49.5771H55.469C55.7038 49.72 55.8482 50.2045 55.8482 50.6578V53.393C55.8482 53.7905 55.7038 54.304 55.469 54.4738H57.2738C57.0428 54.3038 56.8966 53.7903 56.8966 53.393V52.509H57.653C58.0616 52.509 58.2926 52.679 58.4704 52.9643C58.731 53.3928 58.9345 53.9875 59.2542 54.4447L60.7411 54.4738C60.2732 54.1343 60.0717 53.7038 59.8369 53.2213Z" fill="white"></path>
    <path d="M63.7111 54.588C64.4081 54.588 64.9905 54.3892 65.4269 54.0184C65.9502 53.5919 66.3314 52.9357 66.3314 52.0265C66.3314 51.1157 65.9503 50.4614 65.4269 50.0037C64.9905 49.6639 64.4081 49.4634 63.7111 49.4634C63.0396 49.4634 62.4572 49.6639 62.0208 50.0037C61.4974 50.4614 61.1182 51.1157 61.1182 52.0265C61.1182 52.9357 61.4974 53.592 62.0208 54.0184C62.4573 54.3892 63.0398 54.588 63.7111 54.588ZM62.6606 53.3082C62.3704 53.0494 62.2242 52.6229 62.2242 52.0265C62.2242 51.4282 62.3704 51.0035 62.6606 50.716C62.9233 50.4615 63.2727 50.3185 63.7389 50.3185C64.1752 50.3185 64.5246 50.4614 64.7873 50.716C65.0775 51.0037 65.2238 51.4282 65.2238 52.0265C65.2238 52.6229 65.0777 53.0495 64.7873 53.3082C64.5246 53.5629 64.1752 53.7329 63.7389 53.7329C63.2727 53.7329 62.9233 53.563 62.6606 53.3082Z" fill="white"></path>
    <path d="M70.2312 49.5773C70.3499 49.664 70.407 49.7488 70.3775 49.861C70.3775 49.9766 70.318 50.1466 70.2036 50.3185L69.2122 51.712L68.223 50.2895C68.1065 50.1195 67.9921 49.9498 68.0197 49.8051C68.0473 49.7201 68.079 49.6351 68.1936 49.5773H66.1851C66.5327 49.7201 66.7083 49.9766 66.9692 50.3473L68.6022 52.5941V53.3931C68.6022 53.7906 68.456 54.3041 68.223 54.445H70.0278C69.7947 54.3041 69.6486 53.7906 69.6486 53.3931V52.5941L71.1354 50.546C71.3685 50.2623 71.6885 49.7488 72.0379 49.5771L70.2312 49.5773Z" fill="white"></path>
    <path d="M79.8991 53.6771H78.6174V52.3396H80.5409L80.6553 51.5985H78.6174V50.3768H79.753C80.3946 50.3768 80.9181 50.4035 81.1807 50.6583V49.5776H77.1917C77.4247 49.7491 77.569 50.2626 77.569 50.6583V53.3935C77.569 53.8181 77.4247 54.3045 77.1917 54.4743H81.2102L81.3837 53.2773C81.0918 53.6481 80.5411 53.6771 79.8991 53.6771Z" fill="white"></path>
  </g>
  <defs>
    <clipPath id="clip0_426_224">
      <rect width="37" height="59" fill="white" transform="translate(50)"></rect>
    </clipPath>
  </defs>
</svg>
