<?xml version="1.0" encoding="UTF-8"?>
<svg xmlns="http://www.w3.org/2000/svg" width="137" height="60" viewBox="0 0 137 60" fill="none">
  <g clip-path="url(#clip0_411_143)">
    <path d="M36.2152 22.6958H49.7832V25.2343H44.4482V39.5042H41.5146V25.2343H36.2034V22.6958H36.2152ZM49.2035 27.3338H51.7113V29.6825H51.7586C51.8414 29.3504 51.9952 29.0301 52.22 28.7217C52.4447 28.4133 52.7168 28.1167 53.0362 27.8676C53.3556 27.6067 53.7104 27.405 54.1008 27.2389C54.4911 27.0847 54.8933 27.0017 55.2955 27.0017C55.6031 27.0017 55.8278 27.0136 55.9461 27.0254C56.0644 27.0373 56.1827 27.061 56.3128 27.0729V29.6588C56.1236 29.6232 55.9343 29.5995 55.7332 29.5757C55.5321 29.552 55.3428 29.5402 55.1536 29.5402C54.7041 29.5402 54.2782 29.6351 53.876 29.813C53.4738 29.9909 53.1308 30.2637 52.8351 30.6077C52.5394 30.9636 52.3028 31.3906 52.1253 31.9126C51.9479 32.4345 51.8651 33.0276 51.8651 33.7037V39.4924H49.1917V27.3338H49.2035ZM68.6033 39.5042H65.9772V37.808H65.9299C65.5987 38.4248 65.1137 38.9111 64.4631 39.2788C63.8125 39.6466 63.15 39.8363 62.4758 39.8363C60.8789 39.8363 59.7196 39.4449 59.0099 38.6501C58.3001 37.8554 57.9452 36.6573 57.9452 35.056V27.3338H60.6186V34.795C60.6186 35.8626 60.8197 36.6218 61.2337 37.0606C61.6359 37.4995 62.2156 37.7249 62.949 37.7249C63.5168 37.7249 63.9781 37.6419 64.3566 37.464C64.7351 37.286 65.0427 37.0606 65.2675 36.7641C65.504 36.4794 65.6696 36.1235 65.7761 35.7202C65.8826 35.3169 65.9299 34.878 65.9299 34.4036V27.3457H68.6033V39.5042ZM73.1575 35.6016C73.2403 36.3845 73.536 36.9302 74.0446 37.2504C74.5651 37.5588 75.1802 37.7249 75.9018 37.7249C76.1502 37.7249 76.4341 37.7012 76.7535 37.6656C77.0729 37.63 77.3804 37.547 77.6525 37.4402C77.9364 37.3335 78.1612 37.1674 78.3504 36.9539C78.5279 36.7404 78.6107 36.4675 78.5988 36.1236C78.587 35.7796 78.4569 35.4949 78.2203 35.2814C77.9837 35.056 77.688 34.8899 77.3213 34.7476C76.9546 34.6171 76.5406 34.4985 76.0674 34.4036C75.5943 34.3087 75.1211 34.2019 74.6361 34.0952C74.1393 33.9884 73.6543 33.8461 73.1929 33.6918C72.7316 33.5376 72.3176 33.3241 71.9509 33.0513C71.5842 32.7903 71.2885 32.4463 71.0755 32.0312C70.8508 31.616 70.7443 31.1059 70.7443 30.4891C70.7443 29.8248 70.9099 29.2792 71.2293 28.8284C71.5487 28.3777 71.9627 28.0218 72.4477 27.749C72.9445 27.4762 73.4887 27.2864 74.092 27.1678C74.6952 27.061 75.2749 27.0017 75.819 27.0017C76.446 27.0017 77.0492 27.0729 77.617 27.2034C78.1848 27.3338 78.7053 27.5473 79.1666 27.8558C79.628 28.1523 80.0065 28.5438 80.3141 29.0182C80.6216 29.4927 80.8109 30.0739 80.8937 30.7501H78.102C77.9719 30.1095 77.688 29.6706 77.2267 29.4571C76.7653 29.2317 76.233 29.125 75.6416 29.125C75.4523 29.125 75.2276 29.1369 74.9673 29.1724C74.7071 29.208 74.4705 29.2673 74.2339 29.3504C74.0092 29.4334 73.8199 29.5639 73.6543 29.7299C73.5005 29.896 73.4177 30.1095 73.4177 30.3824C73.4177 30.7145 73.536 30.9755 73.7607 31.1771C73.9855 31.3788 74.2812 31.5448 74.6479 31.6872C75.0146 31.8177 75.4286 31.9363 75.9018 32.0312C76.375 32.1261 76.86 32.2328 77.3568 32.3396C77.8418 32.4463 78.3149 32.5887 78.7881 32.7429C79.2613 32.8971 79.6753 33.1106 80.042 33.3834C80.4087 33.6563 80.7044 33.9884 80.9292 34.3917C81.1539 34.795 81.2722 35.3051 81.2722 35.8982C81.2722 36.6218 81.1066 37.2267 80.7754 37.7368C80.4442 38.235 80.0183 38.6502 79.4979 38.9586C78.9774 39.267 78.3859 39.5042 77.7471 39.6466C77.1084 39.7889 76.4696 39.8601 75.8427 39.8601C75.0738 39.8601 74.364 39.777 73.7134 39.5991C73.0628 39.4212 72.495 39.1602 72.0219 38.8162C71.5487 38.4604 71.1702 38.0215 70.8981 37.4995C70.626 36.9776 70.4841 36.3489 70.4604 35.6253H73.1575V35.6016ZM81.982 27.3338H84.0047V23.6803H86.6781V27.3338H89.0913V29.3385H86.6781V35.8389C86.6781 36.1235 86.6899 36.3608 86.7136 36.5743C86.7373 36.776 86.7964 36.9539 86.8792 37.0962C86.962 37.2386 87.0921 37.3453 87.2696 37.4165C87.447 37.4877 87.6718 37.5233 87.9793 37.5233C88.1686 37.5233 88.3578 37.5233 88.5471 37.5114C88.7364 37.4995 88.9256 37.4758 89.1149 37.4284V39.5042C88.8192 39.5398 88.5235 39.5635 88.2514 39.5991C87.9675 39.6347 87.6836 39.6466 87.3879 39.6466C86.6781 39.6466 86.1103 39.5754 85.6845 39.4449C85.2586 39.3144 84.9156 39.1128 84.679 38.8518C84.4306 38.5908 84.2768 38.2706 84.1822 37.8791C84.0994 37.4877 84.0402 37.0369 84.0284 36.5387V29.3622H82.0056V27.3338H81.982ZM90.9839 27.3338H93.5153V28.9826H93.5627C93.9412 28.2709 94.4617 27.7727 95.1359 27.4643C95.8102 27.1559 96.5317 27.0017 97.3243 27.0017C98.2825 27.0017 99.1105 27.1678 99.8202 27.5118C100.53 27.8439 101.121 28.3065 101.595 28.8996C102.068 29.4927 102.411 30.1807 102.647 30.9636C102.884 31.7465 103.002 32.5887 103.002 33.4783C103.002 34.2968 102.896 35.0916 102.683 35.8507C102.47 36.6218 102.151 37.2979 101.725 37.891C101.299 38.4841 100.755 38.9467 100.092 39.3026C99.4299 39.6584 98.661 39.8363 97.762 39.8363C97.3716 39.8363 96.9813 39.8008 96.5909 39.7296C96.2005 39.6584 95.822 39.5398 95.4671 39.3856C95.1123 39.2314 94.7692 39.0297 94.4735 38.7806C94.1659 38.5315 93.9175 38.2468 93.7046 37.9266H93.6573V43.9999H90.9839V27.3338ZM100.329 33.4309C100.329 32.8852 100.258 32.3514 100.116 31.8295C99.974 31.3076 99.7611 30.8568 99.4772 30.4535C99.1933 30.0502 98.8384 29.7299 98.4244 29.4927C97.9986 29.2555 97.5136 29.125 96.9694 29.125C95.8457 29.125 94.994 29.5164 94.4262 30.2993C93.8584 31.0822 93.5745 32.1261 93.5745 33.4309C93.5745 34.0477 93.6455 34.6171 93.7992 35.139C93.953 35.6609 94.1659 36.1117 94.4735 36.4913C94.7692 36.8709 95.1241 37.1674 95.5381 37.3809C95.9521 37.6063 96.4371 37.7131 96.9813 37.7131C97.5964 37.7131 98.105 37.5826 98.5309 37.3335C98.9567 37.0844 99.2998 36.7522 99.5718 36.3608C99.8439 35.9575 100.045 35.5067 100.163 34.9967C100.27 34.4866 100.329 33.9647 100.329 33.4309ZM105.049 22.6958H107.722V25.2343H105.049V22.6958ZM105.049 27.3338H107.722V39.5042H105.049V27.3338ZM110.112 22.6958H112.785V39.5042H110.112V22.6958ZM120.982 39.8363C120.013 39.8363 119.149 39.6703 118.392 39.35C117.635 39.0297 116.996 38.579 116.464 38.0215C115.943 37.4521 115.541 36.776 115.269 35.9931C114.997 35.2102 114.855 34.3443 114.855 33.4072C114.855 32.4819 114.997 31.6279 115.269 30.845C115.541 30.0621 115.943 29.386 116.464 28.8166C116.984 28.2472 117.635 27.8083 118.392 27.488C119.149 27.1678 120.013 27.0017 120.982 27.0017C121.952 27.0017 122.816 27.1678 123.573 27.488C124.33 27.8083 124.969 28.2591 125.501 28.8166C126.022 29.386 126.424 30.0621 126.696 30.845C126.968 31.6279 127.11 32.4819 127.11 33.4072C127.11 34.3443 126.968 35.2102 126.696 35.9931C126.424 36.776 126.022 37.4521 125.501 38.0215C124.981 38.5908 124.33 39.0297 123.573 39.35C122.816 39.6703 121.952 39.8363 120.982 39.8363ZM120.982 37.7131C121.574 37.7131 122.094 37.5826 122.532 37.3335C122.97 37.0844 123.325 36.7522 123.609 36.3489C123.892 35.9456 124.094 35.483 124.236 34.9729C124.366 34.4629 124.437 33.9409 124.437 33.4072C124.437 32.8852 124.366 32.3752 124.236 31.8532C124.105 31.3313 123.892 30.8806 123.609 30.4773C123.325 30.0739 122.97 29.7537 122.532 29.5046C122.094 29.2555 121.574 29.125 120.982 29.125C120.391 29.125 119.871 29.2555 119.433 29.5046C118.995 29.7537 118.64 30.0858 118.356 30.4773C118.073 30.8806 117.871 31.3313 117.729 31.8532C117.599 32.3752 117.528 32.8852 117.528 33.4072C117.528 33.9409 117.599 34.4629 117.729 34.9729C117.86 35.483 118.073 35.9456 118.356 36.3489C118.64 36.7522 118.995 37.0844 119.433 37.3335C119.871 37.5944 120.391 37.7131 120.982 37.7131ZM127.891 27.3338H129.913V23.6803H132.587V27.3338H135V29.3385H132.587V35.8389C132.587 36.1235 132.599 36.3608 132.622 36.5743C132.646 36.776 132.705 36.9539 132.788 37.0962C132.871 37.2386 133.001 37.3453 133.178 37.4165C133.356 37.4877 133.58 37.5233 133.888 37.5233C134.077 37.5233 134.267 37.5233 134.456 37.5114C134.645 37.4995 134.834 37.4758 135.024 37.4284V39.5042C134.728 39.5398 134.432 39.5635 134.16 39.5991C133.876 39.6347 133.592 39.6466 133.297 39.6466C132.587 39.6466 132.019 39.5754 131.593 39.4449C131.167 39.3144 130.824 39.1128 130.588 38.8518C130.339 38.5908 130.186 38.2706 130.091 37.8791C130.008 37.4877 129.949 37.0369 129.937 36.5387V29.3622H127.914V27.3338H127.891Z" fill="#191919"></path>
    <path d="M33.0923 22.6959H20.8374L17.0521 11L13.2549 22.6959L1 22.684L10.9246 29.9198L7.12747 41.6039L17.0521 34.3799L26.9649 41.6039L23.1796 29.9198L33.0923 22.6959Z" fill="#00B67A"></path>
    <path d="M24.0312 32.5651L23.1795 29.9199L17.052 34.38L24.0312 32.5651Z" fill="#005128"></path>
  </g>
  <defs>
    <clipPath id="clip0_411_143">
      <rect width="134" height="33" fill="white" transform="translate(1 11)"></rect>
    </clipPath>
  </defs>
</svg>
