<?xml version="1.0" encoding="UTF-8"?>
<svg xmlns="http://www.w3.org/2000/svg" width="137" height="60" viewBox="0 0 137 60" fill="none">
  <path d="M39.4851 36.5875V23.1782H42.5108V33.8573H48.5642V36.5895H39.4851V36.5875Z" fill="#FF5100"></path>
  <path d="M49.9192 36.5879V23.0669H59.996V25.7219H52.6531V28.5801H59.4737V30.9731H52.6531V33.8821H59.7328V36.5899H49.9192V36.5879Z" fill="#FF5100"></path>
  <path d="M61.7776 23.0669H66.817C68.0922 23.0669 69.0511 23.1847 69.7019 23.4143C70.3467 23.6438 70.9465 24.0298 71.4933 24.5783C72.0401 25.1247 72.4644 25.8357 72.7786 26.7112C73.0887 27.5827 73.2438 28.6634 73.2438 29.9635C73.2438 31.1336 73.0806 32.1493 72.7562 33.0126C72.4277 33.876 72.0135 34.5606 71.5157 35.0623C71.0138 35.5641 70.4119 35.946 69.704 36.2019C68.996 36.4559 68.084 36.5859 66.968 36.5859H61.7817V23.0669H61.7776ZM64.5319 25.3563V34.3005H66.6069C67.4923 34.3005 68.135 34.2315 68.5349 34.0954C68.9328 33.9674 69.2592 33.7582 69.5122 33.488C69.7672 33.2117 69.9774 32.779 70.1467 32.194C70.312 31.6028 70.3936 30.8289 70.3936 29.8619C70.3936 28.8645 70.3099 28.0723 70.1406 27.4933C69.9692 26.9184 69.706 26.4614 69.3408 26.1302C68.9797 25.7991 68.5431 25.5818 68.0269 25.4802C67.6413 25.401 66.8945 25.3583 65.7867 25.3583H64.5319V25.3563Z" fill="#FF5100"></path>
  <path d="M78.5155 36.5879L73.7495 23.0669H76.665L80.0416 33.0736L83.3061 23.0669H86.1645L81.3862 36.5879H78.5155Z" fill="#FF5100"></path>
  <path d="M97.7981 36.5879H94.7479L93.5237 33.5245H87.9436L86.7889 36.5879H83.7979L89.227 23.0669H92.2057L97.7981 36.5879ZM92.6158 31.2352L90.6898 26.2237L88.8006 31.2372H92.6158V31.2352Z" fill="#FF5100"></path>
  <path d="M98.1467 36.5879V23.0669H100.94L106.757 32.0944V23.0669H109.431V36.5879H106.546L100.822 27.7696V36.5879H98.1467Z" fill="#FF5100"></path>
  <path d="M120.432 31.6144L122.956 32.4534C122.564 33.9688 121.905 35.0739 120.993 35.7727C120.073 36.4695 118.949 36.8189 117.609 36.8189C115.927 36.8189 114.564 36.2643 113.52 35.1511C112.316 33.8632 111.716 32.1284 111.716 29.9487C111.716 27.643 112.322 25.8392 113.53 24.535C114.585 23.4035 115.999 22.8408 117.774 22.8408C119.22 22.8408 120.43 23.2674 121.405 24.1125C122.101 24.7158 122.609 25.6096 122.93 26.798L120.359 27.4379C120.192 26.7086 119.865 26.1459 119.373 25.7579C118.884 25.3638 118.304 25.1688 117.637 25.1688C116.684 25.1688 115.907 25.5243 115.305 26.2394C114.703 26.9503 114.399 28.1286 114.399 29.7679C114.399 31.4743 114.695 32.683 115.281 33.4021C115.868 34.1212 116.627 34.4828 117.566 34.4828C118.253 34.4828 118.847 34.2512 119.349 33.7962C119.849 33.3391 120.21 32.6098 120.432 31.6144Z" fill="#FF5100"></path>
  <path d="M125.188 36.5879V23.0669H134.763V25.3563H127.786V28.3526H134.268V30.6278H127.786V34.2985H135V36.5879H125.188Z" fill="#FF5100"></path>
  <path d="M33.7953 29.8287C33.7953 38.5698 26.6789 45.6573 17.8977 45.6573C9.11844 45.6573 2 38.5718 2 29.8287C2 21.0876 9.11844 14 17.8977 14C26.6769 14 33.7953 21.0876 33.7953 29.8287Z" fill="#FF5100"></path>
  <path d="M30.8512 29.828C30.8512 36.9501 25.0508 42.7254 17.8977 42.7254C10.7445 42.7254 4.94409 36.9501 4.94409 29.828C4.94409 22.7059 10.7445 16.9307 17.8977 16.9307C25.0508 16.9307 30.8512 22.7059 30.8512 29.828Z" fill="#FF954A"></path>
  <path d="M28.1028 29.8281C28.1028 35.4388 23.5327 39.9891 17.8975 39.9891C12.2623 39.9891 7.69214 35.4388 7.69214 29.8281C7.69214 24.2173 12.2623 19.667 17.8975 19.667C23.5327 19.667 28.1028 24.2173 28.1028 29.8281Z" fill="#FFB782"></path>
  <path d="M24.9631 29.8292C24.9631 33.7132 21.7986 36.8639 17.8977 36.8639C13.9967 36.8639 10.8323 33.7132 10.8323 29.8292C10.8323 25.9451 13.9967 22.7944 17.8977 22.7944C21.7986 22.7944 24.9631 25.9451 24.9631 29.8292Z" fill="#FFD3B1"></path>
  <path d="M22.3129 29.8282C22.3129 32.2557 20.3359 34.2241 17.8978 34.2241C15.4597 34.2241 13.4827 32.2557 13.4827 29.8282C13.4827 27.4006 15.4597 25.4302 17.8978 25.4302C20.3359 25.4302 22.3129 27.4006 22.3129 29.8282Z" fill="white"></path>
</svg>
