<?xml version="1.0" encoding="UTF-8"?>
<svg xmlns="http://www.w3.org/2000/svg" width="137" height="60" viewBox="0 0 137 60" fill="none">
  <path d="M128 6H10V54H128V6Z" fill="#005EB8"></path>
  <path d="M21.7396 10.9893H34.6014L42.486 37.5646H42.6056L48.0135 10.9893H57.7287L49.557 49.311H36.755L28.6909 22.7952H28.5833L23.2352 49.311H13.52L21.7396 10.9893Z" fill="white"></path>
  <path d="M61.5213 10.9893H71.8466L68.8077 25.6515H81.0114L84.0504 10.9893H94.3757L86.3715 49.311H75.9863L79.4082 32.8993H67.2642L63.8424 49.311H53.5291L61.5213 10.9893Z" fill="white"></path>
  <path d="M121.523 19.6652C118.877 18.4533 115.989 17.8512 113.076 17.9038C108.996 17.9038 105.682 18.5108 105.682 21.5813C105.682 27.0201 120.638 24.985 120.638 36.6243C120.638 47.2164 110.755 49.9656 101.818 49.9656C97.7559 49.8716 93.7278 49.2065 89.8533 47.99L92.2462 40.1947C94.2921 41.5157 98.372 42.3964 101.734 42.3964C105.096 42.3964 109.954 41.7895 109.954 37.8383C109.954 31.6854 94.998 33.9942 94.998 23.176C94.998 13.298 103.72 10.3228 112.167 10.3228C116.953 10.3228 121.38 10.8226 123.976 12.0246L121.523 19.6652Z" fill="white"></path>
</svg>
