<?xml version="1.0" encoding="UTF-8"?>
<svg xmlns="http://www.w3.org/2000/svg" width="137" height="60" viewBox="0 0 137 60" fill="none">
  <g clip-path="url(#clip0_420_181)">
    <path d="M4 37.6504H19.7631L18.8571 38.9104H4V37.6504Z" fill="#D40511"></path>
    <path d="M134 38.9104H114.704L115.7 37.6504H134.091V38.9104H134Z" fill="#D40511"></path>
    <path d="M4 35.3101H21.5749L20.5784 36.5701H4V35.3101Z" fill="#D40511"></path>
    <path d="M4 32.9702H23.3868L22.3902 34.2302H4V32.9702Z" fill="#D40511"></path>
    <path d="M134 36.5701H116.516L117.512 35.3101H134.091V36.5701H134Z" fill="#D40511"></path>
    <path d="M119.233 32.9702H134V34.2302H118.237L119.233 32.9702Z" fill="#D40511"></path>
    <path d="M21.0312 38.9103L29.3657 27.8403C29.3657 27.8403 38.6062 27.8403 39.6933 27.8403C40.871 27.8403 40.871 28.2903 40.2368 29.0103C39.6933 29.7303 38.6968 31.0803 38.1532 31.8003C37.8814 32.2503 37.3379 32.8803 39.0591 32.8803C40.9616 32.8803 52.9198 32.8803 52.9198 32.8803C51.8326 34.5003 48.0278 39.0003 41.3239 39.0003C35.8884 38.9103 21.0312 38.9103 21.0312 38.9103Z" fill="#D40511"></path>
    <path d="M68.7734 32.9702L64.2438 39.0002H52.3762L56.9058 32.9702H68.7734Z" fill="#D40511"></path>
    <path d="M86.0767 32.9702L81.5471 39.0002H69.5889L74.1185 32.9702H86.0767Z" fill="#D40511"></path>
    <path d="M89.9721 32.9702C89.9721 32.9702 89.0662 34.1402 88.7038 34.6802C87.1637 36.6602 88.5226 39.0002 93.4146 39.0002C99.0313 39.0002 112.62 39.0002 112.62 39.0002L117.15 32.9702H89.9721Z" fill="#D40511"></path>
    <path d="M26.9199 21.0002L22.7527 26.4902C22.7527 26.4902 44.2231 26.4902 45.4008 26.4902C46.5785 26.4902 46.5785 26.9402 45.9443 27.6602C45.4008 28.3802 44.4043 29.7302 43.8607 30.4502C43.5889 30.8102 43.0454 31.5302 44.7666 31.5302C46.6691 31.5302 54.007 31.5302 54.007 31.5302C54.007 31.5302 55.5471 29.5502 56.7248 27.8402C58.4461 25.5902 56.906 20.9102 50.8363 20.9102C45.4008 21.0002 26.9199 21.0002 26.9199 21.0002Z" fill="#D40511"></path>
    <path d="M87.0731 31.53H57.9023L65.8745 21H77.8327L73.303 27.03H78.648L83.1776 21H95.1358L87.0731 31.53Z" fill="#D40511"></path>
    <path d="M111.624 21L103.652 31.53H90.9688L98.9409 21H111.624Z" fill="#D40511"></path>
  </g>
  <defs>
    <clipPath id="clip0_420_181">
      <rect width="130" height="18" fill="white" transform="translate(4 21)"></rect>
    </clipPath>
  </defs>
</svg>
