<?xml version="1.0" encoding="UTF-8"?>
<svg xmlns="http://www.w3.org/2000/svg" width="137" height="63" viewBox="0 0 137 63" fill="none">
  <path fill-rule="evenodd" clip-rule="evenodd" d="M46.7285 5.83623C50.4668 7.48321 56.6022 7.28821 60.7174 4.1709C66.4715 8.4027 72.0096 7.96828 77.29 4.1709C80.8105 6.72507 86.2307 7.81562 91.3165 5.88984L93.5965 9.06942C87.6513 17.0443 89.852 24.6671 95.9842 31.3756L93.4092 33.9963C93.9925 51.1965 80.7201 55.3031 73.0987 55.7294L69.0011 59.0945L64.9341 55.7796C51.3277 54.6002 44.1438 47.3953 44.5882 34.0404L41.9407 31.3556C47.1137 25.7393 51.001 18.0649 44.3557 9.06769L46.7285 5.83623Z" fill="black" stroke="black" stroke-width="0.189272"></path>
  <path fill-rule="evenodd" clip-rule="evenodd" d="M47.0383 33.6943H90.8199C91.9706 45.8547 84.2734 52.4228 72.5688 53.0686L65.1312 53.0875C53.9331 52.2795 45.5901 46.3451 47.0383 33.6943Z" fill="#004D98"></path>
  <path d="M72.1139 33.8403H65.9121V53.2719H72.1139V33.8403Z" fill="#A50044"></path>
  <path d="M59.7706 33.8403H53.5688V51.2066H59.7706V33.8403Z" fill="#A50044"></path>
  <path d="M59.7707 50.3169H55.7312V52.1057H59.7707V50.3169Z" fill="#A50044"></path>
  <path d="M84.3868 33.8403H78.1851V51.2066H84.3868V33.8403Z" fill="#A50044"></path>
  <path d="M82.2245 50.3169H78.1851V52.1057H82.2245V50.3169Z" fill="#A50044"></path>
  <path fill-rule="evenodd" clip-rule="evenodd" d="M68.8113 9.85452V27.1142L47.9119 27.2659L50.0661 18.9585L47.3828 9.01999L60.6103 7.31299L68.8113 9.85452Z" fill="white"></path>
  <path fill-rule="evenodd" clip-rule="evenodd" d="M69.1138 9.85452V27.1142L90.0132 27.2659L87.859 18.9585L90.5423 9.01999L77.3148 7.31299L69.1138 9.85452Z" fill="#FFED02"></path>
  <path d="M62.7273 7.8042H56.7351V27.0068H62.7273V7.8042Z" fill="#DB0030"></path>
  <path d="M68.8113 20.9813V14.9668H50.1655V20.9813H68.8113Z" fill="#DB0030"></path>
  <path d="M73.2055 9.16553H70.9893V26.8819H73.2055V9.16553Z" fill="#DB0030"></path>
  <path d="M77.4125 7.89648H75.1963V26.9237H77.4125V7.89648Z" fill="#DB0030"></path>
  <path d="M81.6471 8.96924H79.4309V26.9636H81.6471V8.96924Z" fill="#DB0030"></path>
  <path d="M85.8422 9.62842H83.626V26.9475H85.8422V9.62842Z" fill="#DB0030"></path>
  <path fill-rule="evenodd" clip-rule="evenodd" d="M60.6824 5.53809C56.8228 8.37752 50.7154 8.67626 47.2094 7.25657L45.8052 9.07105C51.8294 17.5791 48.3682 26.1386 43.5916 31.3809L45.7912 33.7175C44.8986 46.5412 52.3545 53.9578 65.4618 54.7209L69.0144 57.699L72.5599 54.6741C80.1929 54.542 93.577 50.2452 92.1349 33.6988L94.3462 31.3996C88.7366 25.1553 86.8031 16.6025 92.2236 9.07105L90.9057 7.26828C86.1095 8.85033 80.6225 7.9734 77.3207 5.57789C72.3683 9.13937 66.0791 9.50701 60.6824 5.53809ZM77.365 7.97534C80.3427 9.83107 83.6331 10.3591 89.3055 9.86005C86.4651 14.7928 86.1583 20.6691 88.6734 26.3425L49.3087 26.3191C51.4259 21.2496 51.9117 15.4159 48.5926 9.74767C52.684 10.3439 56.6806 10.201 60.6661 8.0245C66.0719 11.2098 71.6332 11.268 77.365 7.97534ZM47.9115 33.8861H90.1242C91.2337 45.6105 83.8122 51.942 72.5272 52.5646L65.3545 52.5834C54.5579 51.8044 46.5152 46.0833 47.9115 33.8861Z" fill="#EDBB00" stroke="#DEB405" stroke-width="0.177515"></path>
  <path fill-rule="evenodd" clip-rule="evenodd" d="M48.5471 9.80919C51.8662 15.4775 51.38 21.311 49.2629 26.3805L88.6266 26.4039C86.1115 20.7304 86.4194 14.8541 89.2598 9.92132C83.5874 10.4204 80.2979 9.89285 77.3202 8.03711C71.5884 11.3298 66.0252 11.2703 60.6194 8.085C56.6339 10.2615 52.6385 10.4054 48.5471 9.80919Z" stroke="black" stroke-width="0.75709"></path>
  <path fill-rule="evenodd" clip-rule="evenodd" d="M47.9111 33.8862H90.1232C91.2326 45.6107 83.8113 51.9433 72.5263 52.5659L65.3554 52.5841C54.5587 51.8051 46.5148 46.0835 47.9111 33.8862Z" stroke="black" stroke-width="0.75709"></path>
  <path d="M68.9761 10.4023V26.4116" stroke="black" stroke-width="0.75709"></path>
  <path d="M74.7976 43.0222C74.7978 43.7787 74.6494 44.5279 74.3611 45.2269C74.0727 45.9259 73.65 46.5611 73.1171 47.0961C72.5841 47.6311 71.9514 48.0555 71.2551 48.345C70.5587 48.6346 69.8123 48.7836 69.0586 48.7836C68.3048 48.7836 67.5585 48.6346 66.8621 48.345C66.1658 48.0555 65.5331 47.6311 65.0001 47.0961C64.4672 46.5611 64.0445 45.9259 63.7561 45.2269C63.4678 44.5279 63.3194 43.7787 63.3196 43.0222C63.3194 42.2656 63.4678 41.5165 63.7561 40.8175C64.0445 40.1185 64.4672 39.4833 65.0001 38.9483C65.5331 38.4133 66.1658 37.9889 66.8621 37.6993C67.5585 37.4098 68.3048 37.2607 69.0586 37.2607C69.8123 37.2607 70.5587 37.4098 71.2551 37.6993C71.9514 37.9889 72.5841 38.4133 73.1171 38.9483C73.65 39.4833 74.0727 40.1185 74.3611 40.8175C74.6494 41.5165 74.7978 42.2656 74.7976 43.0222Z" fill="#EDBB00" stroke="black" stroke-width="0.760882"></path>
  <path d="M65.7479 38.3301C65.078 40.7807 64.6626 43.1936 66.595 44.353C67.9453 45.1632 68.8584 43.5109 69.1114 42.8708" stroke="black" stroke-width="0.662453"></path>
  <path d="M63.7476 45.3451C64.8789 45.2933 65.4692 45.1999 66.1949 44.0933" stroke="black" stroke-width="0.662453"></path>
  <path d="M69.0637 42.9136C70.199 42.2132 71.2088 42.5521 71.6779 44.3056C72.7828 43.8599 73.8477 44.7159 74.1252 45.581" stroke="black" stroke-width="0.662453"></path>
  <path d="M71.7014 44.3057C70.8627 46.3381 68.6566 47.279 65.5596 47.5888" stroke="black" stroke-width="0.662453"></path>
  <path d="M69.0656 42.997C68.3688 42.3566 67.2968 41.6237 68.8585 39.7409C68.1958 38.898 68.0153 38.0745 68.8815 37.293" stroke="black" stroke-width="0.662453"></path>
  <path d="M74.7714 43.3664C73.7522 41.558 71.3799 39.0521 68.8584 39.7176" stroke="black" stroke-width="0.662453"></path>
  <path d="M61.0344 27.3706V27.3917H59.9917V29.4239V30.5758V32.8351H61.1183V30.5758H62.7255V29.4239H61.1183V28.5412H63.8918V27.3706H61.0344Z" fill="black"></path>
  <path fill-rule="evenodd" clip-rule="evenodd" d="M69.5637 29.0759L70.5749 28.5458C69.9295 27.1133 67.3124 26.7059 66.4514 28.5458C65.5631 30.7404 66.5073 32.7793 68.2267 32.9779C69.3191 33.1376 70.1849 32.6008 70.5525 31.6472L69.5525 31.072C69.2862 31.7381 68.2707 32.1965 67.4963 31.0833C67.2579 30.5859 67.1967 29.8202 67.4626 29.0759C68.0977 28.2 69.0261 28.2949 69.5637 29.0759Z" fill="black" stroke="black" stroke-width="0.0378545"></path>
  <path fill-rule="evenodd" clip-rule="evenodd" d="M73.4297 27.3848L73.4507 32.8774L76.4294 32.8657C77.3986 32.7294 78.6693 31.1369 77.1805 29.8993C77.9676 29.203 77.8689 27.7137 76.2941 27.3965L73.4297 27.3848ZM74.575 28.4664H76.0585C76.7109 28.6549 76.5173 29.2844 76.0795 29.3912H74.575V28.4664ZM74.5866 30.4635L76.1471 30.4846C76.919 30.7152 76.7447 31.5981 76.1705 31.7489L74.5983 31.7372L74.5866 30.4635Z" fill="black" stroke="black" stroke-width="0.189272"></path>
</svg>
