<?xml version="1.0" encoding="UTF-8"?>
<svg xmlns="http://www.w3.org/2000/svg" width="137" height="60" viewBox="0 0 137 60" fill="none">
  <g clip-path="url(#clip0_427_473)">
    <path d="M36.7765 28.9057C35.7572 27.2212 34.6338 25.598 33.4072 24.0513L33.3758 24.0104L33.3658 23.9998C33.3038 23.9233 33.1432 23.7287 33.0858 23.6516C32.5272 22.8937 31.8698 16.8256 31.7918 16.3804C31.6992 15.8528 31.5492 15.3046 30.7778 15.2229C30.1512 15.1562 29.2252 15.054 28.1998 15.0026C27.7238 14.9768 27.4805 15.2328 27.3565 15.4636C27.2685 15.6226 27.2318 15.8013 27.2318 15.9807C27.2165 16.759 27.2372 17.1383 27.2372 17.2352C27.2372 17.2458 27.2372 17.2557 27.2318 17.2662C27.2218 17.3223 27.1905 17.3632 27.1492 17.3995C27.0612 17.4707 26.9318 17.4661 26.8385 17.3942C26.3525 17.0308 23.8212 15.1252 22.4185 14.2704C22.3512 14.2342 22.2838 14.1985 22.2165 14.1682C21.7045 13.9426 21.1092 13.9321 20.6225 14.2091C20.5858 14.2295 20.5552 14.25 20.5238 14.2704C20.0632 14.5573 12.1698 18.9917 6.19718 28.8549C6.19718 28.8549 5.82451 29.3721 6.10384 29.8535C6.37318 30.4063 8.98184 30.5652 9.40118 30.6114C9.87184 30.6622 9.86651 31.0414 9.86651 31.0414C9.91318 35.0919 9.98584 37.0535 10.6532 43.9203C10.6532 43.9203 10.7618 44.6372 11.4765 44.6729C11.7665 44.6887 12.8432 44.6273 15.7052 44.5607C15.8138 44.5706 15.9125 44.4941 15.9225 44.3866V44.3352C15.6485 41.5339 15.5605 39.1067 15.5552 38.9682C15.5498 38.866 15.4565 38.7176 15.3638 38.6819C14.3078 38.0824 13.6812 37.0376 13.6712 35.8346C13.5932 30.2882 13.9352 26.028 13.9352 26.028C13.9352 26.028 13.9658 25.439 14.4938 25.4852C15.0165 25.5313 14.9858 26.1151 14.9858 26.1151C14.7992 28.5067 14.7272 32.8131 14.7272 32.8131C14.7272 32.8131 14.7272 33.6322 15.5192 33.6322C16.3105 33.6322 16.3105 32.8131 16.3105 32.8131C16.2852 29.4433 16.5745 26.0537 16.5745 26.0537C16.5745 26.0537 16.5745 25.4799 17.1338 25.4799C17.4392 25.4799 17.5532 25.685 17.5998 25.8539C17.6258 25.9409 17.6305 26.0333 17.6205 26.125C17.3872 29.0442 17.3618 32.8078 17.3618 32.8078C17.3618 32.8078 17.3618 33.6276 18.1532 33.6276C18.9452 33.6276 18.9452 32.7412 18.9452 32.7412C18.9298 29.9452 19.2092 26.0583 19.2092 26.0583C19.2352 25.7563 19.3852 25.4905 19.7632 25.4905C20.2292 25.5056 20.2652 25.9462 20.2552 26.0583C20.0065 29.0904 20.0012 33.7398 20.0118 35.7323C20.0478 36.9301 19.4318 38.0567 18.4018 38.6819C18.3085 38.7433 18.2572 38.8561 18.2672 38.9682C18.3345 40.8117 18.4898 42.8604 18.6245 44.3253C18.6298 44.4222 18.7072 44.504 18.8058 44.5146C19.5978 44.5146 21.1192 44.504 22.0718 44.504C23.6038 44.504 24.2145 44.5146 25.3378 44.5297C25.4618 44.5297 25.5238 44.4374 25.5345 44.3094C25.8245 41.6566 25.9278 39.7313 25.9378 39.5625C25.9538 39.3732 25.7205 39.3369 25.7205 39.3369C25.3685 39.2914 24.5458 39.1938 23.8472 39.081C23.1485 38.9682 23.1225 38.18 23.1225 38.18C22.5325 29.8991 26.9472 24.7372 26.9472 24.7372C26.9472 24.7372 27.3872 24.1641 27.9978 24.389C28.5365 24.5888 28.6765 26.1203 28.6865 26.212C29.2765 33.069 28.6092 41.063 28.2258 44.3253C28.2105 44.4578 28.2725 44.5654 28.3965 44.5911C28.5465 44.6168 31.2018 44.7039 31.4452 44.6781C31.8752 44.632 32.2218 44.3094 32.2892 43.8847C33.2312 37.4683 33.0858 31.0362 33.0858 31.0362C33.1072 30.806 33.2878 30.6266 33.5212 30.6061L36.0625 30.3344C36.3938 30.2882 36.6785 30.1556 36.8285 29.874C36.9632 29.5666 36.9525 29.1979 36.7765 28.9057Z" fill="#FF8000"></path>
    <path d="M50.2761 24.502H46.2748C44.9754 24.502 44.9754 24.502 44.7068 26.0025C44.4374 27.503 44.4374 27.5545 45.6281 27.5545H48.0088L46.6581 35.2049C46.3314 36.9151 45.5761 38.0931 43.2521 38.7897C42.6568 38.948 42.4961 39.163 42.4961 39.4294C42.4961 39.752 42.6048 40.0184 42.8741 40.6589C43.2521 41.5704 43.4694 41.7287 43.7954 41.7287C44.1214 41.7287 44.7168 41.5704 44.9288 41.5137C48.2261 40.4432 49.5768 37.9289 50.1208 34.9331L51.6368 26.3197C51.8961 24.502 51.8961 24.502 50.2761 24.502Z" fill="#FF8000"></path>
    <path d="M63.8473 24.502C62.2273 24.502 62.2273 24.502 62.0093 25.8389L60.8193 32.7928C60.4933 34.8256 59.9547 36.0036 57.952 36.0036C56.0053 36.0036 55.3013 34.8256 55.628 33.0078L56.7613 26.3765C57.0873 24.502 57.0307 24.502 55.3533 24.502C53.7333 24.502 53.6767 24.502 53.4587 25.7875L52.2687 32.7414C51.5647 36.7001 54.054 39.163 57.5687 39.163C61.518 39.163 63.516 37.3966 64.168 33.2228L65.3587 26.3197C65.6327 24.502 65.524 24.502 63.8473 24.502Z" fill="#FF8000"></path>
    <path d="M71.254 35.8957C72.5533 35.8443 73.2573 35.2559 73.2573 34.6669C73.2573 33.919 72.336 33.6525 71.0933 33.2739C68.6607 32.5259 66.4453 31.6711 66.4453 29.1001C66.4453 26.0535 68.9867 24.394 72.1753 24.394C73.526 24.394 75.0427 24.4455 76.016 24.553C76.88 24.6605 77.0973 24.927 76.8287 26.2633C76.5593 27.5996 76.2333 27.7071 75.4773 27.6563C74.556 27.6049 73.3707 27.4973 71.9633 27.4973C70.3427 27.4973 69.8567 28.0863 69.8567 28.6186C69.8567 29.3151 70.5033 29.6891 72.02 30.1191C74.8307 30.9232 76.668 32.0451 76.668 34.4519C76.668 37.2887 74.5613 38.9476 71.1507 39.0504C69.3127 39.1012 67.688 38.999 66.2853 38.784C65.2033 38.625 65.1513 38.625 65.4207 37.0737C65.69 35.6807 65.69 35.5732 66.72 35.6807C68.7127 35.8957 69.96 35.9518 71.254 35.8957Z" fill="#FF8000"></path>
    <path d="M88.9399 24.502H79.7992C78.4999 24.502 78.4999 24.502 78.2312 26.0539C77.9619 27.6053 78.0139 27.6053 79.1526 27.6053H82.1286L80.4512 37.1816C80.1252 39.0555 80.1826 39.0555 81.8592 39.0555C83.4279 39.0555 83.4792 39.0555 83.6966 37.7192L85.4259 27.6105H88.2932C89.5926 27.6105 89.5926 27.6105 89.8612 26.0585C90.1252 24.502 90.1252 24.502 88.9399 24.502Z" fill="#FF8000"></path>
    <path d="M105.053 27.5545C106.352 27.5545 106.352 27.5545 106.621 26.0025C106.891 24.4512 106.891 24.4512 105.7 24.4512H99.1574C96.8334 24.4512 96.8854 24.4512 96.5074 26.7504L94.8308 36.4337C94.3961 38.948 94.4528 38.948 96.7767 38.948H103.159C104.509 38.948 104.458 38.948 104.727 37.4481C104.996 35.8961 104.996 35.8961 103.805 35.8961H98.2881L98.7228 33.1153H103.319C104.561 33.1153 104.561 33.1153 104.779 31.6715C104.996 30.171 104.996 30.171 103.319 30.171H99.2614L99.6961 27.5492L105.053 27.5545Z" fill="#FF8000"></path>
    <path d="M111.973 32.6853L114.08 28.0867C114.241 27.7128 114.241 27.7128 114.515 27.7128C114.784 27.7128 114.784 27.7128 114.841 28.1428L115.488 32.6906H111.973V32.6853ZM117.703 26.269C117.377 24.4512 117.377 24.4512 114.784 24.4512C112.351 24.4512 112.403 24.4512 111.647 25.951L106.187 37.2377C105.374 38.8404 105.539 39.0047 107.537 39.0047C109.106 39.0047 109.106 39.0047 109.753 37.5602L110.617 35.6349H115.917L116.187 37.5602C116.404 39.0047 116.456 39.0047 118.024 39.0047C119.81 39.0047 119.97 38.8972 119.644 37.1302L117.703 26.269Z" fill="#FF8000"></path>
    <path d="M130.627 24.502H121.435C120.136 24.502 120.136 24.502 119.867 26.0539C119.597 27.6053 119.649 27.6053 120.788 27.6053H123.764L122.087 37.1816C121.761 39.0555 121.818 39.0555 123.495 39.0555C125.063 39.0555 125.115 39.0555 125.333 37.7192L127.061 27.6105H129.929C131.228 27.6105 131.228 27.6105 131.497 26.0585C131.818 24.502 131.818 24.502 130.627 24.502Z" fill="#FF8000"></path>
  </g>
  <defs>
    <clipPath id="clip0_427_473">
      <rect width="126" height="31" fill="white" transform="translate(6 14)"></rect>
    </clipPath>
  </defs>
</svg>
