<?xml version="1.0" encoding="UTF-8"?>
<svg xmlns="http://www.w3.org/2000/svg" width="137" height="60" viewBox="0 0 137 60" fill="none">
  <path d="M125.611 27.7644C125.152 26.7485 124.256 26.2549 122.873 26.2549C121.448 26.2549 120.384 26.714 119.424 27.7434L118.859 28.3494V26.6184H114.744V37.4508H118.976V31.8636C118.976 31.4825 119.017 30.7783 119.298 30.3388C119.551 29.9577 119.94 29.7646 120.454 29.7646C120.998 29.7646 121.374 29.9605 121.564 30.3346C121.713 30.5988 121.78 30.9786 121.78 31.5663V37.4508H126V30.4854C126 29.6085 125.956 28.5069 125.611 27.7644Z" fill="black"></path>
  <path d="M97.7136 27.7643C97.2545 26.7484 96.359 26.2549 94.9753 26.2549C93.5504 26.2549 92.487 26.714 91.5273 27.7433L90.9622 28.3494V22.3442H86.8472V37.4509H91.0787V31.8636C91.0787 31.4825 91.1201 30.7786 91.4009 30.3388C91.6536 29.9576 92.0424 29.7645 92.5564 29.7645C93.1007 29.7645 93.4765 29.9605 93.6666 30.3346C93.8161 30.5987 93.8826 30.9786 93.8826 31.5663V37.4508H98.1029V30.4854C98.1029 29.6085 98.0587 28.5069 97.7136 27.7643Z" fill="black"></path>
  <path d="M71.6122 22.3462H67.2861V37.4521H71.6122V22.3462Z" fill="black"></path>
  <path d="M114.02 26.6182H109.694V37.4521H114.02V26.6182Z" fill="black"></path>
  <path d="M53.8456 26.6182H49.5198V37.4521H53.8456V26.6182Z" fill="black"></path>
  <path d="M31.9814 26.082C28.1526 26.082 25.7742 28.3643 25.7742 32.0385C25.7742 35.6967 27.9816 37.7949 31.8306 37.7949C33.7016 37.7949 35.3279 37.1973 36.4101 36.1123C37.4027 35.1168 37.9038 33.7701 37.8992 32.109C37.8992 28.2225 35.7976 26.082 31.9814 26.082ZM31.9008 34.7178C31.3561 34.7178 30.089 34.4361 30.089 31.8266C30.089 29.4952 31.2242 29.1473 31.9008 29.1473C33.026 29.1473 33.5964 30.0963 33.5964 31.9677C33.5964 34.2408 32.6744 34.7178 31.9008 34.7178Z" fill="black"></path>
  <path d="M67.1263 34.3781L65.3195 35.1717V34.8585L65.5392 31.0996C65.588 30.5358 65.6125 29.9928 65.6125 29.4708C65.6125 27.3199 64.9289 26.0879 61.9257 26.0879C61.5106 26.0879 60.8514 26.1923 59.9968 26.422C59.1178 26.6517 58.1168 27.1946 56.9936 28.009C55.8704 28.8443 54.8694 30.0555 54.0149 31.6425L54.0881 31.7678L58.605 30.6611C58.3121 29.8675 58.1656 29.1994 58.1656 28.6356C58.1656 27.7377 58.727 27.2992 59.5328 27.2992C60.6315 27.2992 61.4494 28.3873 61.4494 30.4546L58.483 31.4778C55.9193 32.5011 54.2346 33.8353 54.2346 35.5893C54.2346 36.9467 55.3822 37.8237 57.0669 37.8237C59.0446 37.8237 60.5216 36.6961 61.4739 34.8793H61.596C61.5716 35.0254 61.5716 35.2134 61.5716 35.4849C61.5716 37.1764 62.0234 37.8028 63.1954 37.8028C64.3674 37.8028 65.1487 37.0302 66.6868 35.1299L67.224 34.4826L67.1263 34.3781ZM61.4006 34.1693C60.9366 34.9211 60.0212 35.297 59.4597 35.297C58.9469 35.297 58.3854 34.9211 58.3854 34.1484C58.3854 33.2296 59.4718 32.0833 61.4494 30.9349L61.4006 34.1693Z" fill="black"></path>
  <path d="M49.8756 25.4736H53.49C53.6857 25.4736 53.8442 25.315 53.8442 25.1195V23.3962C53.8442 23.2006 53.6856 23.042 53.49 23.042H49.8756C49.68 23.042 49.5215 23.2006 49.5215 23.3961V25.1194C49.5215 25.315 49.68 25.4736 49.8756 25.4736Z" fill="black"></path>
  <path d="M110.049 25.4736H113.664C113.86 25.4736 114.018 25.315 114.018 25.1195V23.3962C114.018 23.2006 113.859 23.042 113.664 23.042H110.049C109.854 23.042 109.695 23.2006 109.695 23.3961V25.1194C109.695 25.315 109.854 25.4736 110.049 25.4736Z" fill="black"></path>
  <path d="M25.3425 31.1806C25.1661 30.7244 24.8801 30.3113 24.4923 29.9531C24.0955 29.5857 23.568 29.2632 22.9247 28.994C22.2643 28.7176 21.4482 28.4764 20.5015 28.2772L18.3431 27.8382C17.7166 27.7097 17.293 27.552 17.0481 27.3571C16.7688 27.1356 16.6213 26.8347 16.6213 26.4871C16.6213 26.0895 16.809 25.7466 17.1644 25.4961C17.4936 25.2641 17.989 25.1512 18.6784 25.1512C19.3126 25.1512 19.8173 25.2778 20.179 25.5276C20.4983 25.7484 20.7399 26.1155 20.8991 26.6209H25.284C25.284 26.6209 25.3212 24.7017 23.6538 23.3489C23.572 23.2825 23.4855 23.2189 23.3965 23.1569C23.3956 23.1562 23.3946 23.1556 23.3936 23.1549C23.3358 23.1146 23.277 23.0749 23.2161 23.0365C23.212 23.0338 23.2083 23.031 23.2041 23.0284C22.8256 22.7887 22.4144 22.6052 22.0008 22.4638C21.9927 22.461 21.9847 22.4582 21.9767 22.4554C21.9024 22.4303 21.828 22.4062 21.7538 22.3838C21.7351 22.3781 21.7173 22.3717 21.6984 22.3661C21.6601 22.3546 21.6196 22.3447 21.5806 22.3338C21.5743 22.3321 21.568 22.3304 21.5617 22.3287C21.4564 22.2996 21.3482 22.2725 21.2375 22.2473C21.2159 22.2423 21.1946 22.2375 21.1732 22.2327C21.1268 22.2226 21.0809 22.2122 21.0336 22.2027C19.8391 21.9579 18.8358 22.0069 18.8358 22.0069C17.819 22.0069 16.8897 22.114 16.0742 22.3253C15.2726 22.533 14.5844 22.8476 14.0287 23.2596C13.4804 23.666 13.0516 24.1701 12.7542 24.758C12.4567 25.3453 12.306 26.0377 12.306 26.8163C12.306 28.0192 12.6869 28.9529 13.4704 29.6705C14.2679 30.4016 15.5875 30.9506 17.3912 31.3025L19.5775 31.7208C20.193 31.8508 20.6123 32.0182 20.8592 32.2326C21.1315 32.4687 21.2754 32.7967 21.2754 33.1813C21.2754 33.6679 21.0741 34.061 20.6934 34.3186C20.343 34.5557 19.831 34.6707 19.1281 34.6707C18.2764 34.6707 17.6213 34.4913 17.1817 34.1379C16.7996 33.8307 16.5408 33.4056 16.4102 32.8712H12C12.0779 33.557 12.2429 34.1876 12.4917 34.7503C12.7763 35.3947 13.1959 35.9488 13.7387 36.3978C14.2864 36.85 14.9845 37.2021 15.8136 37.4443C16.6581 37.6903 17.6673 37.8152 18.8132 37.8152C21.0667 37.8152 22.7884 37.369 23.9304 36.4892C25.0624 35.617 25.6127 34.4131 25.6127 32.8079C25.6126 32.1937 25.5217 31.6462 25.3425 31.1806Z" fill="black"></path>
  <path d="M45.3704 33.4336C45.3008 33.7605 45.1796 34.0314 45.0086 34.2414C44.7645 34.541 44.4072 34.6926 43.9464 34.6926C43.3875 34.6926 42.9384 34.4491 42.648 33.9887C42.3795 33.5639 42.249 32.8928 42.249 31.9368C42.249 31.0286 42.3744 30.3776 42.6325 29.9467C42.915 29.4745 43.3616 29.2249 43.9239 29.2249C44.3709 29.2249 44.7138 29.3702 44.9429 29.6567C45.0932 29.8448 45.2076 30.0847 45.2843 30.3724H49.1239C49.1239 30.3724 49.0843 29.6385 48.705 28.7644C48.4827 28.2522 48.1688 27.7918 47.7732 27.3961C47.3817 27.0054 46.8585 26.689 46.2176 26.4563C45.5666 26.2199 44.7722 26.1001 43.8565 26.1001C42.0535 26.1001 40.6267 26.6211 39.6159 27.6482C38.6042 28.6775 38.0911 30.1573 38.0911 32.0471C38.0911 32.8931 38.2069 33.6844 38.4354 34.3998C38.6591 35.1011 39.009 35.7098 39.4757 36.2088C39.9415 36.7079 40.5406 37.1043 41.2564 37.3873C41.9791 37.6725 42.8464 37.8171 43.8341 37.8171C44.7502 37.8171 45.5446 37.6973 46.1954 37.4612C46.8369 37.2287 47.3759 36.9004 47.7978 36.4858C48.2204 36.0709 48.5551 35.5683 48.7925 34.9932C48.9912 34.5104 49.134 33.9872 49.2181 33.4337L45.3704 33.4336Z" fill="black"></path>
  <path d="M107.977 27.1183C107.239 26.4511 105.84 26.0684 104.138 26.0684C99.2524 26.0684 99.0315 28.826 98.9142 29.9287H102.471C102.641 29.161 103.103 28.7726 103.847 28.7726C104.698 28.7726 105.13 29.218 105.13 30.0966V30.7725L104.738 30.8184C103.567 30.9548 101.607 31.1827 100.259 31.8213C98.9764 32.4206 98.429 33.248 98.429 34.5873C98.429 36.584 99.5984 37.7761 101.557 37.7761C103.043 37.7761 103.999 37.3596 104.754 36.3833L105.242 35.7527L105.447 37.4516H108.972V30.4596C108.973 28.6919 108.694 27.7556 107.977 27.1183ZM105.13 33.0675C105.13 34.3128 104.406 35.1174 103.285 35.1174C102.527 35.1174 102.188 34.5891 102.188 34.0655C102.188 33.5015 102.501 33.2256 102.766 33.0923C103.201 32.8788 103.967 32.6844 104.763 32.585L105.13 32.5391V33.0675Z" fill="black"></path>
  <path d="M81.324 33.5788C80.8891 33.9785 80.3157 34.1808 79.6195 34.1808C79.2564 34.1808 78.8971 34.1238 78.5521 34.0113C78.1779 33.8896 77.8471 33.6554 77.5691 33.3154C77.3011 32.9884 77.0873 32.5378 76.9335 31.9767C76.7866 31.4425 76.7115 30.7448 76.7089 29.9041C76.7114 29.0635 76.7866 28.3657 76.9335 27.8315C77.0873 27.2704 77.3011 26.8198 77.5691 26.4928C77.8471 26.1528 78.1779 25.9186 78.5521 25.7969C78.897 25.6844 79.2564 25.6274 79.6195 25.6274C80.3156 25.6274 80.8891 25.8297 81.324 26.2294C81.702 26.5761 81.9556 27.0815 82.0792 27.7344H86.5305C86.4634 26.9964 86.2983 26.2998 86.0385 25.6593C85.7431 24.9311 85.3046 24.2906 84.735 23.7552C84.1635 23.2179 83.4374 22.7868 82.5766 22.4739C81.7092 22.1597 80.669 22 79.485 22C78.1692 22 77.0225 22.1915 76.0768 22.5695C75.1391 22.9439 74.3596 23.4725 73.7599 24.1414C73.1574 24.8123 72.704 25.628 72.4122 26.5665C72.1162 27.518 71.9661 28.582 71.9661 29.7286C71.9661 29.7875 71.9682 29.8455 71.9689 29.9042C71.9682 29.9627 71.9661 30.0208 71.9661 30.0798C71.9661 31.2263 72.1162 32.2903 72.4122 33.2419C72.704 34.1804 73.1574 34.9961 73.7599 35.6669C74.3596 36.3358 75.1391 36.8644 76.0768 37.2389C77.0225 37.6168 78.1692 37.8084 79.485 37.8084C80.669 37.8084 81.7092 37.6487 82.5766 37.3345C83.4373 37.0216 84.1634 36.5904 84.735 36.0531C85.3046 35.5177 85.7431 34.8772 86.0385 34.1491C86.2983 33.5086 86.4634 32.812 86.5305 32.074H82.0792C81.9556 32.7267 81.7021 33.2322 81.324 33.5788Z" fill="black"></path>
</svg>
