<?xml version="1.0" encoding="UTF-8"?>
<svg xmlns="http://www.w3.org/2000/svg" width="137" height="60" viewBox="0 0 137 60" fill="none">
  <g clip-path="url(#clip0_427_518)">
    <path d="M85.5174 57.8777C85.0586 57.8214 84.3543 57.6463 83.9946 57.4992L83.6985 57.3781L83.6987 55.6926C83.7114 55.6926 83.8498 55.758 84.0063 55.8378C84.3854 56.0312 85.0085 56.234 85.47 56.3142C86.3279 56.4631 86.9707 56.3354 87.2479 55.9606C87.363 55.8048 87.3845 55.4849 87.2928 55.2891C87.1886 55.0661 86.9491 54.9152 86.1169 54.5483C84.7475 53.9446 84.4678 53.7913 84.1513 53.471C83.7141 53.0288 83.553 52.6277 83.552 51.98C83.5497 50.473 84.8735 49.5456 86.7683 49.727C87.45 49.7923 88.1337 49.9442 88.4187 50.0937L88.5416 50.158L88.4888 51.7731L88.0817 51.596C87.524 51.3534 87.145 51.2643 86.5675 51.2403C86.1534 51.2229 86.0072 51.2333 85.8199 51.2932C85.2928 51.4613 85.1293 51.9083 85.4665 52.259C85.6741 52.4749 85.8354 52.5637 86.7901 52.9869C87.7997 53.4344 88.1392 53.6259 88.4758 53.9383C88.9124 54.3432 89.0915 54.7906 89.0915 55.4774C89.0915 56.1802 88.8623 56.7188 88.3744 57.1636C88.0863 57.4262 87.4697 57.7339 87.0615 57.8188C86.6536 57.9037 85.9483 57.9305 85.5174 57.8777ZM54.7195 57.7967C54.2186 57.6635 53.8345 57.4395 53.475 57.0711C53.1088 56.6958 52.9174 56.3432 52.8149 55.8549C52.729 55.4454 52.7594 54.7819 52.8799 54.4343C53.1686 53.6023 53.8792 52.9864 54.8514 52.7258C55.1432 52.6474 55.3488 52.632 56.3477 52.6134L57.5056 52.5916C57.4093 51.6165 56.9015 51.3436 56.2684 51.2741C55.3946 51.2721 54.5562 51.3731 53.7709 51.6958L53.7939 50.0921C54.7949 49.7828 55.9513 49.5846 56.9383 49.7437C57.9307 49.9198 58.6133 50.3965 58.9536 51.1511C59.1765 51.6451 59.1869 51.8113 59.1869 54.8809V57.7099H57.499L57.4739 57.1498C57.0963 57.4467 56.643 57.7104 56.2224 57.8155C55.839 57.9071 55.0998 57.8979 54.7195 57.7967Z" fill="#44195E"></path>
    <path d="M56.1963 56.2728C56.77 56.0893 57.088 55.8118 57.495 55.4255V54.1411L56.4481 54.1567C55.488 54.1709 55.3818 54.18 55.1669 54.2669C54.9188 54.3673 54.6739 54.5916 54.5583 54.8248C54.4186 55.1064 54.4809 55.6132 54.6902 55.8976C54.9681 56.2751 55.5957 56.4315 56.1963 56.2728Z" fill="white"></path>
    <path d="M62.1053 57.82C61.6967 57.7046 61.308 57.425 61.107 57.1017C61.0529 57.0149 60.9651 56.8217 60.912 56.6722C60.7164 54.709 60.7946 53.9543 60.7729 51.3789L59.6943 51.3548V49.8579L60.7729 49.8338L60.8152 47.8273L62.4847 47.2407L62.5071 49.8338L64.3894 49.8569V51.3559L62.5071 51.3789V53.5679C62.5071 55.6911 62.5098 55.7619 62.594 55.9285C62.7295 56.1965 62.9681 56.2974 63.4641 56.2965C63.7763 56.3029 64.0708 56.2355 64.3704 56.1646C64.3993 56.705 64.3894 57.1182 64.3894 57.7011C63.6579 57.8086 62.822 57.9998 62.1053 57.82ZM78.8177 57.8179C77.4646 57.5062 76.5859 56.7211 76.1941 55.4737C75.9033 54.5475 75.9038 53.1034 76.1951 52.173C76.5848 50.9292 77.5893 50.0056 78.813 49.7659C79.5016 49.631 80.406 49.738 80.9554 50.0194C82.2362 50.6753 82.9362 52.2797 82.7614 54.158L82.7344 54.4477H77.7555V54.5675C77.7555 54.7408 77.8678 55.1516 77.9714 55.3579C78.1052 55.624 78.4437 55.9636 78.7038 56.0929C79.0997 56.2896 79.443 56.3485 80.0396 56.3222C80.681 56.2937 81.2036 56.1612 81.7421 55.8905L82.1122 55.7045V57.3283L81.7844 57.4806C81.1819 57.7605 80.757 57.8457 79.8704 57.864C79.2907 57.8759 79.0179 57.864 78.8177 57.8178V57.8179Z" fill="#44195E"></path>
    <path d="M80.9975 52.923C81.0112 52.8871 80.9908 52.7304 80.9523 52.575C80.7381 51.7095 80.208 51.2573 79.4046 51.2549C79.09 51.254 79.0101 51.2705 78.7702 51.385C78.4517 51.5354 78.1874 51.7827 78.0141 52.0927C77.8713 52.3463 77.7316 52.8202 77.7698 52.9213L80.9975 52.923Z" fill="#FFFFFB"></path>
    <path d="M91.7139 57.826C91.1195 57.653 90.712 57.2644 90.521 56.6888C90.4274 56.4063 90.4251 56.3528 90.4035 53.8899L90.3815 51.3791L89.3029 51.3549V49.8581L90.3815 49.8339L90.4238 47.8294L92.0834 47.2378L92.1157 49.8339L93.9557 49.857V51.3559L92.1157 51.3791V53.5895C92.1157 55.7277 92.1185 55.8047 92.201 55.9501C92.3378 56.1909 92.5973 56.2968 93.0522 56.2975C93.3942 56.298 93.6962 56.2566 93.885 56.1831L93.8605 57.7301C93.8082 57.7422 93.6797 57.7728 93.575 57.798C93.2705 57.8715 91.939 57.8915 91.7139 57.826ZM44.0442 47.2784L45.7068 47.3016L50.1457 54.5757L50.1774 47.2802H51.827V57.7117L50.1713 57.6884L45.7331 50.5228L45.6938 57.7099H44.0442V47.2784ZM66.7367 57.6562C66.0357 54.1947 65.2735 50.7455 64.5904 47.2802L66.3775 47.296L67.7671 54.2544L69.5252 47.2802H71.1961L72.9564 54.3135C73.4264 51.9931 73.8231 49.6416 74.2449 47.3067L75.9368 47.3344C75.2393 50.9853 74.6569 53.8298 73.9065 57.6986C73.3188 57.7107 72.7311 57.7099 72.1435 57.7099L71.2409 54.1023L70.3084 50.5506C69.6435 53.0716 69.1612 54.998 68.4712 57.7096L66.7367 57.6561V57.6562Z" fill="#44195E"></path>
    <path d="M65.8699 29.2373L72.1055 40.0157H84.5021L78.2875 29.2373H65.8699Z" fill="#E40420"></path>
    <path d="M84.5022 18.3301L90.6677 29.2373L84.5022 40.0157L78.2876 29.2373L84.5022 18.3301Z" fill="#D10917"></path>
    <path d="M56.656 12.82H69.0211L75.202 2H62.8033L56.656 12.82Z" fill="#E40420"></path>
    <path d="M75.2021 2L81.3833 12.82L75.2021 23.686L69.0212 12.82L75.2021 2Z" fill="#D10917"></path>
    <path d="M53.4881 18.3301L47.3608 29.2373H59.7244L65.87 18.3301H53.4881Z" fill="#E40420"></path>
    <path d="M47.3608 29.2373L53.4881 40.0157H65.87L59.7244 29.2373H47.3608Z" fill="#D10917"></path>
  </g>
  <defs>
    <clipPath id="clip0_427_518">
      <rect width="50" height="56" fill="white" transform="translate(44 2)"></rect>
    </clipPath>
  </defs>
</svg>
