<?xml version="1.0" encoding="UTF-8"?>
<svg xmlns="http://www.w3.org/2000/svg" width="137" height="60" viewBox="0 0 137 60" fill="none">
  <path d="M86.3774 20.1141C86.3774 29.5657 78.7181 37.2283 69.2665 37.2283C59.8149 37.2283 52.1523 29.5657 52.1523 20.1141C52.1523 10.6625 59.8149 3 69.2665 3C78.7181 3 86.3774 10.6625 86.3774 20.1141Z" fill="#EE3023"></path>
  <path d="M69.4013 29.6569C64.7007 29.6729 59.8082 25.6606 59.7862 19.2149C59.7705 14.9545 62.0721 10.8512 65.0088 8.41758C67.8764 6.04682 71.8035 4.52185 75.3628 4.50928C75.8219 4.50928 76.3029 4.54694 76.5953 4.64757C73.4825 5.29214 71.0049 8.19111 71.0143 11.4769C71.0143 11.5868 71.0237 11.7032 71.0362 11.7567C76.2462 13.027 78.6107 16.1712 78.6264 20.5197C78.639 24.8713 75.2056 29.6381 69.4013 29.6569Z" fill="white"></path>
  <path d="M25.232 57.7138L20 45.228H23.4178L26.6815 53.5194L29.8446 45.228H33.1084L28.0304 57.7138H25.232Z" fill="#EE3023"></path>
  <path d="M42.2138 51.4051C42.2138 50.8863 42.1541 50.3926 42.0314 49.9242C41.9119 49.4557 41.7295 49.0532 41.4874 48.7168C41.2453 48.3772 40.9529 48.1099 40.6071 47.9118C40.2612 47.7106 39.8556 47.61 39.3902 47.61C38.9249 47.61 38.5161 47.7106 38.1734 47.9118C37.8275 48.1099 37.532 48.3772 37.293 48.7168C37.0509 49.0532 36.8685 49.4557 36.7491 49.9242C36.6264 50.3926 36.5667 50.8863 36.5667 51.4051C36.5667 51.9428 36.6264 52.4427 36.7491 52.9017C36.8686 53.3608 37.0446 53.7633 37.2773 54.1091C37.51 54.455 37.8055 54.7285 38.1608 54.9298C38.513 55.1278 38.9249 55.2285 39.3902 55.2285C39.8556 55.2285 40.2612 55.1278 40.6071 54.9298C40.9529 54.7285 41.2453 54.455 41.4874 54.1091C41.7295 53.7633 41.9119 53.3608 42.0314 52.9017C42.154 52.4427 42.2138 51.9428 42.2138 51.4051ZM45.3737 51.4188C45.3737 52.2331 45.248 53.0318 44.9996 53.8178C44.748 54.6039 44.377 55.305 43.8834 55.9276C43.3929 56.5502 42.7703 57.0501 42.0188 57.4306C41.2673 57.811 40.3901 57.9997 39.3902 57.9997C38.3872 57.9997 37.51 57.811 36.7616 57.4306C36.0102 57.0501 35.3876 56.5502 34.894 55.9276C34.4035 55.3051 34.0324 54.6039 33.7809 53.8178C33.5325 53.0318 33.4067 52.2331 33.4067 51.4188C33.4067 50.6076 33.5325 49.8152 33.7809 49.0354C34.0324 48.2588 34.4035 47.564 34.894 46.9508C35.3876 46.3377 36.0102 45.8472 36.7616 45.4762C37.51 45.1051 38.3872 44.9165 39.3902 44.9165C40.3901 44.9165 41.2642 45.1052 42.0062 45.4762C42.7483 45.8472 43.3708 46.3377 43.8708 46.9508C44.3739 47.564 44.748 48.2588 44.9996 49.0354C45.248 49.8152 45.3737 50.6076 45.3737 51.4188Z" fill="#EE3023"></path>
  <path d="M55.0236 47.9759C54.4042 47.7338 53.8288 47.6112 53.2942 47.6112C52.7471 47.6112 52.2724 47.7182 51.8793 47.9256C51.4831 48.133 51.1562 48.413 50.8983 48.7683C50.6405 49.1236 50.4487 49.5229 50.3198 49.9662C50.1909 50.4064 50.1248 50.8624 50.1248 51.3308C50.1248 51.8497 50.1814 52.3464 50.2946 52.8243C50.4047 53.2991 50.5776 53.7173 50.8103 54.0726C51.0398 54.4279 51.3322 54.714 51.6844 54.931C52.0365 55.1448 52.4547 55.2548 52.9358 55.2548C53.332 55.2548 53.7344 55.1449 54.1463 54.931C54.5582 54.714 54.8506 54.4562 55.0236 54.1638L55.0236 47.9759ZM55.2814 57.7136L55.1525 56.7578C54.8601 57.0848 54.4733 57.3741 53.9891 57.6225C53.508 57.874 52.9389 57.9998 52.2849 57.9998C51.4266 57.9998 50.6656 57.8175 50.0148 57.4558C49.3576 57.0942 48.8074 56.61 48.3609 56.0063C47.9144 55.4027 47.5717 54.7015 47.339 53.906C47.1095 53.1136 46.9932 52.2836 46.9932 51.4189C46.9932 50.6077 47.1127 49.8122 47.3516 49.0355C47.5937 48.2589 47.9584 47.5641 48.449 46.9509C48.9426 46.3378 49.5557 45.8473 50.2978 45.4763C51.0367 45.1052 51.9076 44.9166 52.9043 44.9166C53.5584 44.9166 54.2658 45.0391 55.0236 45.2782V40.436H58.2338V57.7136H55.2814Z" fill="#EE3023"></path>
  <path d="M67.2765 51.858C66.9306 51.8763 66.5722 51.9084 66.2074 51.9493C65.8427 51.9933 65.4968 52.0499 65.1667 52.119C64.4687 52.2573 63.9876 52.4932 63.7172 52.8297C63.4499 53.1692 63.3147 53.534 63.3147 53.9333C63.3147 54.3452 63.4657 54.6785 63.7706 54.93C64.0756 55.1784 64.5033 55.3041 65.0598 55.3041C65.478 55.3041 65.8836 55.2193 66.2735 55.0463C66.6633 54.8734 66.9998 54.6565 67.2765 54.3986V51.858ZM67.5343 57.7032L67.4085 56.7693C67.0595 57.1529 66.6193 57.4548 66.0817 57.6718C65.544 57.8887 64.956 57.9987 64.3146 57.9987C63.777 57.9987 63.2581 57.9075 62.7676 57.7252C62.2709 57.5461 61.8338 57.285 61.4534 56.9486C61.0729 56.6121 60.7648 56.2002 60.5321 55.7066C60.2963 55.2129 60.1799 54.6564 60.1799 54.0339C60.1799 53.4145 60.2994 52.8642 60.5447 52.3894C60.7868 51.9146 61.1138 51.5153 61.5319 51.1852C61.947 50.8582 62.4249 50.5909 62.9626 50.3834C63.4971 50.176 64.0631 50.0186 64.651 49.9149C65.0661 49.83 65.522 49.767 66.0157 49.723C66.5093 49.6789 66.9212 49.6413 67.2513 49.6066V49.4243C67.2513 48.7326 67.0753 48.2421 66.7168 47.9465C66.3615 47.6541 65.871 47.5063 65.2485 47.5063C64.8837 47.5063 64.5347 47.5504 64.2046 47.6384C63.8744 47.7233 63.582 47.8303 63.321 47.9592C63.0601 48.0913 62.8305 48.2201 62.6293 48.3491C62.4312 48.478 62.2709 48.5943 62.1482 48.698L61.0855 46.4468C61.2238 46.3242 61.4345 46.1795 61.7206 46.0066C62.0067 45.8336 62.3494 45.6638 62.7582 45.5003C63.1638 45.3367 63.6197 45.1985 64.1291 45.0853C64.6385 44.9721 65.1887 44.9155 65.7735 44.9155C66.4653 44.9155 67.0973 45.0068 67.6664 45.1891C68.2355 45.3714 68.7291 45.6545 69.1442 46.0443C69.5561 46.4311 69.8799 46.9216 70.1157 47.519C70.3484 48.1132 70.4647 48.8332 70.4647 49.679V57.7032H67.5343Z" fill="#EE3023"></path>
  <path d="M80.3881 43.2838C80.2843 43.2336 80.0831 43.1581 79.7812 43.0636C79.4762 42.9694 79.0769 42.9222 78.5738 42.9222C78.1274 42.9222 77.75 43.0575 77.4482 43.3247C77.1463 43.5919 76.9954 44.029 76.9954 44.6326V45.2269H79.69V47.8178H77.0206V57.7127H73.8072V47.8178H72.1501V45.2269H73.8072V44.554C73.8072 43.7428 73.9109 43.0574 74.1184 42.4946C74.326 41.9349 74.6152 41.4758 74.9863 41.1237C75.3573 40.7684 75.7943 40.5074 76.2942 40.3439C76.7973 40.1803 77.3413 40.0986 77.9293 40.0986C78.7059 40.0986 79.3473 40.171 79.8567 40.3188C80.366 40.4667 80.6647 40.5641 80.7496 40.6175L80.3881 43.2838Z" fill="#EE3023"></path>
  <path d="M89.1452 51.4051C89.1452 50.8863 89.0823 50.3926 88.9628 49.9242C88.8433 49.4557 88.6609 49.0532 88.4188 48.7168C88.1767 48.3772 87.8843 48.1099 87.5385 47.9118C87.1926 47.7106 86.787 47.61 86.3216 47.61C85.8563 47.61 85.4475 47.7106 85.1048 47.9118C84.7589 48.1099 84.4634 48.3772 84.2213 48.7168C83.9823 49.0532 83.8 49.4557 83.6773 49.9242C83.5578 50.3926 83.4981 50.8863 83.4981 51.4051C83.4981 51.9428 83.5578 52.4427 83.6773 52.9017C83.8 53.3608 83.976 53.7633 84.2087 54.1091C84.4414 54.455 84.7369 54.7285 85.0891 54.9298C85.4444 55.1278 85.8563 55.2285 86.3216 55.2285C86.787 55.2285 87.1926 55.1278 87.5385 54.9298C87.8843 54.7285 88.1767 54.455 88.4188 54.1091C88.6609 53.7633 88.8433 53.3608 88.9628 52.9017C89.0823 52.4427 89.1452 51.9428 89.1452 51.4051ZM92.3051 51.4188C92.3051 52.2331 92.1794 53.0318 91.9278 53.8178C91.6794 54.6039 91.3084 55.305 90.8148 55.9276C90.3243 56.5502 89.7017 57.0501 88.9502 57.4306C88.1988 57.811 87.3215 57.9997 86.3216 57.9997C85.3186 57.9997 84.4414 57.811 83.693 57.4306C82.9416 57.0501 82.319 56.5502 81.8254 55.9276C81.3349 55.3051 80.9638 54.6039 80.7123 53.8178C80.4608 53.0318 80.3381 52.2331 80.3381 51.4188C80.3381 50.6076 80.4608 49.8152 80.7123 49.0354C80.9638 48.2588 81.3349 47.564 81.8254 46.9508C82.319 46.3377 82.9416 45.8472 83.693 45.4762C84.4414 45.1051 85.3186 44.9165 86.3216 44.9165C87.3215 44.9165 88.1956 45.1052 88.9376 45.4762C89.6797 45.8472 90.3023 46.3377 90.8022 46.9508C91.3053 47.564 91.6794 48.2588 91.9278 49.0354C92.1794 49.8152 92.3051 50.6076 92.3051 51.4188Z" fill="#EE3023"></path>
  <path d="M102.275 57.7119V50.5902C102.275 49.6406 102.077 48.9049 101.681 48.3861C101.281 47.8704 100.731 47.6094 100.021 47.6094C99.5207 47.6094 99.0585 47.7383 98.6371 47.9993C98.2127 48.2571 97.8448 48.5433 97.5335 48.8545V57.7119H94.3232V45.2261H97.2505L97.4046 46.2103C97.9077 45.7984 98.4705 45.4776 99.1025 45.2544C99.7313 45.0281 100.366 44.918 101.005 44.918C101.662 44.918 102.266 45.0154 102.819 45.2135C103.372 45.4148 103.847 45.7292 104.243 46.1599C104.643 46.5907 104.948 47.1535 105.165 47.8421C105.378 48.5338 105.488 49.3639 105.488 50.3292V57.7119H102.275Z" fill="#EE3023"></path>
  <path d="M115.481 49.9684C115.446 49.5376 115.355 49.1603 115.208 48.8427C115.06 48.522 114.877 48.2642 114.66 48.0661C114.443 47.8649 114.211 47.7202 113.959 47.6228C113.705 47.5285 113.45 47.4813 113.189 47.4813C112.632 47.4813 112.104 47.6887 111.601 48.1039C111.098 48.5189 110.802 49.1383 110.714 49.9684H115.481ZM110.639 52.2731C110.708 53.3264 111.035 54.0874 111.626 54.5527C112.214 55.0181 112.978 55.2538 113.912 55.2538C114.346 55.2538 114.755 55.213 115.135 55.1375C115.516 55.059 115.855 54.9614 116.151 54.8388C116.446 54.7192 116.698 54.5967 116.905 54.4772C117.113 54.3547 117.267 54.2414 117.374 54.1376L118.229 56.7568C118.107 56.8416 117.912 56.958 117.644 57.1058C117.377 57.2536 117.044 57.3888 116.648 57.5208C116.251 57.6497 115.783 57.7598 115.248 57.8573C114.714 57.9515 114.126 57.9987 113.488 57.9987C112.673 57.9987 111.903 57.8698 111.167 57.612C110.435 57.351 109.79 56.9486 109.24 56.4046C108.686 55.8607 108.246 55.1846 107.919 54.3734C107.589 53.5622 107.426 52.5938 107.426 51.4713C107.426 50.418 107.576 49.4841 107.878 48.6729C108.18 47.8617 108.595 47.1794 109.12 46.626C109.649 46.0757 110.262 45.6513 110.96 45.3557C111.661 45.0633 112.406 44.9155 113.202 44.9155C113.997 44.9155 114.73 45.0476 115.406 45.3054C116.079 45.5632 116.66 45.9657 117.154 46.5097C117.644 47.0536 118.034 47.7579 118.317 48.6226C118.603 49.4841 118.745 50.5123 118.745 51.704V52.2731L110.639 52.2731Z" fill="#EE3023"></path>
</svg>
