<?xml version="1.0" encoding="UTF-8"?>
<svg xmlns="http://www.w3.org/2000/svg" width="137" height="60" viewBox="0 0 137 60" fill="none">
  <path d="M107.487 36.992V39.3182H120.249V36.984H117.835L117.203 36.9482C116.948 36.8803 116.77 36.703 116.705 36.5139L116.652 36.0037V32.325L116.748 31.9783C116.919 31.7761 123.52 24.237 123.824 23.9071C124.461 23.175 124.807 23.0173 125.659 23.0173H128.007V20.7043H117.492V23.0173H119.067C119.534 23.0173 119.664 23.4911 119.462 23.7436L114.994 28.9646L114.866 28.95L110.513 23.7436C110.199 23.3567 110.458 23.0173 110.799 23.0173H112.346V20.7043H99.5142V23.0173H101.8C102.793 23.0173 103.437 23.648 103.816 24.0582C104.112 24.3808 110.645 31.7907 110.799 32.0017C110.962 32.2053 110.962 32.2353 110.962 32.325V36.0037L110.92 36.5139C110.82 36.703 110.664 36.8803 110.416 36.9482L109.774 36.992H107.487ZM68.2183 20.7043V23.0239H70.251C71.7247 23.0239 71.832 23.848 71.832 24.5538V35.4483C71.832 36.1015 71.8699 36.992 70.9284 36.992H68.4051V39.3182H79.1573V36.992H76.5369C75.4983 36.992 75.4377 36.522 75.4202 35.4935V26.1705L90.1627 39.3182H93.9078L93.7115 24.4669C93.7378 23.3889 93.7976 23.0173 94.9114 23.0173H97.2639V20.7043H86.3198V23.0173H88.7299C89.8248 23.0173 90.0211 23.4546 90.027 24.4669L90.1627 32.2353L77.3676 20.7043H68.2183ZM19.8894 19.5204C17.5843 19.5204 14.9567 19.9707 12.7495 20.9546C10.6882 21.8772 8.99268 23.3567 8.99268 25.8216C8.99268 28.0296 10.4021 29.3281 10.3583 29.2857C10.9656 29.8405 11.9283 30.7835 14.4501 31.3258C15.5705 31.5754 17.9756 31.9433 20.3799 32.2126C22.7557 32.4586 25.1038 32.6973 26.0607 32.9338C26.8176 33.1338 28.0818 33.3958 28.0818 34.8176C28.0818 36.2468 26.7424 36.676 26.5088 36.7657C26.2694 36.8643 24.668 37.5986 21.7689 37.5986C19.6361 37.5986 17.0705 36.957 16.1333 36.6336C15.064 36.2468 13.9348 35.73 12.8779 34.441C12.6115 34.1199 12.2159 33.2403 12.2159 32.3747H9.57586V39.7007H12.4874V38.7131C12.4874 38.6124 12.6414 38.1372 13.1152 38.3701C13.7195 38.6496 15.5063 39.3481 17.3822 39.7364C18.904 40.0532 19.8894 40.2802 21.7871 40.2802C24.8936 40.2802 26.5555 39.7795 27.7029 39.4518C28.8058 39.1343 30.1467 38.573 31.2218 37.7153C31.813 37.2519 33.0976 36.0417 33.0976 33.8607C33.0976 31.7564 31.9853 30.4521 31.5794 30.0645C31.04 29.5208 30.3897 29.104 29.7014 28.7814C29.0927 28.5055 28.1526 28.161 27.3854 27.9785C25.876 27.6004 22.4878 27.1493 20.8776 26.9851C19.1814 26.8011 16.2223 26.5581 15.0545 26.1939C14.6961 26.088 13.9597 25.7297 13.9597 24.8917C13.9597 24.2954 14.3056 23.7816 14.9567 23.3611C15.9953 22.7115 18.1208 22.3123 20.3054 22.3123C22.9148 22.3064 25.1118 22.8816 26.5088 23.5129C26.9876 23.7436 27.5373 24.0348 27.9891 24.3976C28.4869 24.8056 29.1832 25.6501 29.4365 26.8296H31.7918V20.4503H29.173V21.1889C29.173 21.4327 28.9263 21.7378 28.4474 21.4911C27.2796 20.8671 23.9637 19.5401 19.8894 19.5204ZM51.3911 40.4766C47.0855 40.4766 43.0922 39.1803 40.412 36.7774C38.4047 34.9687 37.4216 32.5075 37.4216 29.985C37.4216 27.4894 38.4412 24.9946 40.412 23.194C42.8944 20.9393 47.2789 19.5197 51.3911 19.5197C55.9735 19.5197 59.6178 20.6751 62.4002 23.2049C64.3885 25.0144 65.3505 27.4748 65.3505 29.985C65.3505 32.4082 64.3345 34.9972 62.4002 36.7774C59.8127 39.2029 55.7238 40.4766 51.3911 40.4766V37.7153C53.6962 37.7153 55.8114 36.9146 57.2895 35.4483C58.7617 33.9717 59.4478 32.1849 59.4478 29.985C59.4478 27.8588 58.7106 25.9048 57.2895 24.5056C55.8318 23.0706 53.6524 22.2473 51.3911 22.2473C49.1284 22.2473 46.9606 23.0568 45.487 24.5056C44.087 25.9048 43.3425 27.877 43.3425 29.985C43.3425 32.0776 44.0965 34.0418 45.487 35.4483C46.9606 36.9066 49.1284 37.7153 51.3911 37.7153" fill="black"></path>
</svg>
