<?xml version="1.0" encoding="UTF-8"?>
<svg xmlns="http://www.w3.org/2000/svg" width="137" height="60" viewBox="0 0 137 60" fill="none">
  <path d="M62.5685 26.0209H60.6509V22H57.7624V26.0209H55.8675V28.5853H57.7624V38.4292H60.6509V28.5853H62.5685V26.0209ZM68.6494 25.6511C66.9627 25.6511 65.3445 26.345 64.0971 27.5927C62.8729 28.8171 62.2253 30.4343 62.2253 32.1675C62.2253 33.9232 62.8729 35.4951 64.0512 36.766C65.3221 38.1062 66.8467 38.7532 68.6959 38.7532C70.5443 38.7532 72.1388 38.1062 73.3865 36.8122C74.6338 35.5415 75.2346 33.9698 75.2346 32.0984C75.2346 30.3883 74.4954 28.6784 73.2013 27.4306C71.954 26.2522 70.4513 25.6511 68.6494 25.6511ZM68.7187 35.8877C66.5927 35.8877 65.2064 34.4786 65.2064 32.1444C65.2064 29.9952 66.6385 28.4939 68.7187 28.4939C70.7058 28.4939 72.2308 29.9494 72.2308 32.075C72.2307 34.4553 70.8216 35.8877 68.7187 35.8877ZM35.0163 22.0905L28.1189 38.6627H31.5007L33.3273 34.2445L39.2641 34.247L40.9737 38.6627H44.3554L37.4126 22.0905H35.0163ZM34.3511 31.3839L36.1809 26.4125H36.2255L38.1353 31.3839H34.3511ZM52.1442 31.4049C52.1442 34.409 51.5436 35.9572 49.4409 35.9572C47.3152 35.9572 46.8762 34.5244 46.8762 31.59V26.021H43.9644V33.2074C43.9644 36.812 45.7207 38.7532 48.7942 38.7532C50.2036 38.7532 51.2661 38.2218 52.1213 37.0891V38.4294H54.9868V26.0209H52.1442V31.4049ZM122.858 25.6511C121.149 25.6511 119.508 26.3906 118.238 27.7311C117.082 28.9559 116.481 30.5037 116.481 32.2368C116.481 33.9003 117.151 35.5875 118.33 36.812C119.578 38.1061 121.149 38.7531 122.974 38.7531C125.724 38.7531 127.919 37.2052 128.982 34.4785H125.863C125.262 35.4716 124.176 36.0265 122.905 36.0265C120.941 36.0265 119.647 34.9176 119.462 33.138H129.398C129.398 32.9304 129.421 32.7214 129.421 32.514C129.421 30.8732 129.075 29.5564 128.242 28.447C126.949 26.6678 125.008 25.6511 122.858 25.6511ZM119.554 30.8503C119.993 29.3022 121.333 28.3086 122.858 28.3086C124.615 28.3086 125.817 29.1864 126.302 30.8503H119.554ZM132.74 27.4536V26.0209H130.036V38.4292H132.925V32.0983C132.925 29.7876 133.456 28.724 135.929 28.5395V25.8358C134.589 25.8358 133.595 26.3673 132.74 27.4536ZM112.958 27.0149C111.849 26.0904 110.647 25.7208 109.099 25.7208C107.482 25.7208 105.979 26.2751 104.824 27.3611C103.461 28.6092 102.698 30.3649 102.698 32.1913C102.698 34.1781 103.53 36.0031 105.032 37.2969C106.118 38.2448 107.528 38.7531 109.099 38.7531C110.555 38.7531 111.802 38.3368 112.958 37.4128V38.4292H115.8V22H112.958L112.958 27.0149ZM109.445 35.8877C107.25 35.8877 105.702 34.2932 105.702 32.2368C105.702 30.2501 107.296 28.5629 109.307 28.5629C111.317 28.5629 112.842 30.1573 112.842 32.2828C112.842 34.3396 111.294 35.8877 109.445 35.8877ZM98.8471 27.5234C98.0386 26.2981 96.7448 25.6969 94.942 25.6969C93.0705 25.6969 91.5918 26.2981 90.3437 27.6148C89.1887 28.817 88.5648 30.4342 88.5648 32.1674C88.5648 35.8646 91.3143 38.7064 95.0111 38.7064C96.9293 38.7064 98.1772 38.1524 98.8705 36.9043V38.4292H101.666V26.0209H98.847L98.8471 27.5234ZM95.1039 35.7956C93.1631 35.7956 91.5221 34.2699 91.5221 32.1208C91.5221 30.1112 93.1396 28.5628 95.0574 28.5628C96.8834 28.5628 98.5467 30.1805 98.5467 32.2602C98.5468 34.1781 96.9064 35.7956 95.1039 35.7956ZM83.833 22H72.4932V24.8887H76.5566V38.4294H79.7692V24.8886H83.833V22ZM88.5648 25.8358C87.224 25.8358 86.2304 26.3673 85.3756 27.4536V26.0209H82.6722V38.4292H85.5606V32.0983C85.5606 29.7876 86.0921 28.724 88.5648 28.5395V25.8358Z" fill="#585857"></path>
  <path d="M62.5483 26.0238H60.6303V22.002H57.7412V26.0237H55.846V28.5887H57.7412V38.4347H60.6303V28.5887H62.5483V26.0238ZM68.6302 25.6539C66.9434 25.6539 65.3248 26.3479 64.0773 27.5958C62.8527 28.8206 62.205 30.4379 62.205 32.1715C62.205 33.9275 62.8527 35.5 64.0313 36.771C65.3022 38.1117 66.8274 38.7588 68.6769 38.7588C70.5257 38.7588 72.1204 38.1115 73.3683 36.8172C74.6159 35.5463 75.217 33.9743 75.217 32.1026C75.217 30.392 74.4776 28.6817 73.1832 27.4335C71.9357 26.2551 70.4329 25.6539 68.6302 25.6539ZM68.6997 35.8927C66.5732 35.8927 65.1866 34.4833 65.1866 32.1485C65.1866 29.9988 66.6191 28.4973 68.6997 28.4973C70.6873 28.4973 72.2128 29.953 72.2128 32.0792C72.2128 34.46 70.8032 35.8927 68.6997 35.8927ZM34.9903 22.0924L28.0913 38.6685H31.474L33.3009 34.2492L39.2389 34.2516L40.9489 38.6686H44.3313L37.3871 22.0924H34.9903ZM34.325 31.388L36.1552 26.4155H36.1999L38.11 31.388H34.325ZM52.1218 31.4089C52.1218 34.4137 51.5209 35.9623 49.4178 35.9623C47.2916 35.9623 46.8526 34.5288 46.8526 31.5941V26.0237H43.9402V33.2118C43.9402 36.8174 45.6968 38.7589 48.771 38.7589C50.1807 38.7589 51.2435 38.2273 52.0987 37.0943V38.4348H54.9648V26.0238H52.1216V31.4089H52.1218ZM122.851 25.6539C121.141 25.6539 119.5 26.3937 118.229 27.7343C117.074 28.9593 116.472 30.5075 116.472 32.2408C116.472 33.9049 117.143 35.5923 118.322 36.8174C119.569 38.1117 121.141 38.7589 122.967 38.7589C125.718 38.7589 127.914 37.2105 128.977 34.4834H125.856C125.255 35.4767 124.169 36.0316 122.897 36.0316C120.933 36.0316 119.639 34.9224 119.454 33.1424H129.392C129.392 32.9349 129.415 32.726 129.415 32.5185C129.415 30.8771 129.069 29.56 128.237 28.4504C126.943 26.6708 125.001 25.6539 122.851 25.6539ZM119.546 30.8542C119.985 29.3058 121.326 28.3121 122.851 28.3121C124.608 28.3121 125.81 29.1901 126.295 30.8542H119.546ZM132.735 27.4568V26.0237H130.031V38.4348H132.92V32.1026C132.92 29.7912 133.452 28.7273 135.925 28.5429V25.8386C134.584 25.8386 133.59 26.3703 132.735 27.4568ZM112.948 27.0179C111.839 26.0933 110.637 25.7236 109.089 25.7236C107.471 25.7236 105.968 26.278 104.813 27.3641C103.449 28.6124 102.687 30.3686 102.687 32.1954C102.687 34.1827 103.519 36.0081 105.02 37.3019C106.107 38.2502 107.517 38.7588 109.089 38.7588C110.545 38.7588 111.793 38.3424 112.948 37.4179V38.4347H115.792V22.002H112.948V27.0179ZM109.435 35.8927C107.239 35.8927 105.691 34.2979 105.691 32.2408C105.691 30.2539 107.286 28.5663 109.296 28.5663C111.307 28.5663 112.833 30.1611 112.833 32.287C112.833 34.3444 111.284 35.8927 109.435 35.8927ZM98.8349 27.5267C98.026 26.301 96.7319 25.6997 94.9288 25.6997C93.0568 25.6997 91.5778 26.301 90.3294 27.6181C89.1742 28.8206 88.5503 30.4379 88.5503 32.1715C88.5503 35.8695 91.3003 38.712 94.9979 38.712C96.9166 38.712 98.1645 38.1581 98.8581 36.9096V38.4348H101.654V26.0238H98.8349V27.5267ZM95.0909 35.8007C93.1496 35.8007 91.5082 34.2746 91.5082 32.1251C91.5082 30.1151 93.1262 28.5663 95.0445 28.5663C96.8707 28.5663 98.5343 30.1842 98.5343 32.2643C98.5343 34.1827 96.8937 35.8007 95.0909 35.8007ZM83.8174 22.002H72.4751V24.8912H76.5393V38.4348H79.7527V24.8912H83.8174V22.002ZM88.5504 25.8386C87.2093 25.8386 86.2155 26.3703 85.3604 27.4568V26.0237H82.6566V38.4348H85.5455V32.1026C85.5455 29.7912 86.0768 28.7273 88.5504 28.5429V25.8386Z" fill="#6C6A6C"></path>
  <path d="M21.852 38.6564L21.8579 38.6527C21.9059 38.6548 21.9542 38.6564 22.0028 38.6564C23.4662 38.6564 24.7146 37.7382 25.2051 36.4465L27.3132 31.3862H6.07285L3.0332 38.6564H21.852Z" fill="url(#paint0_linear_427_554)"></path>
  <path d="M12.3281 22.0947L12.3223 22.0984C12.2742 22.0963 12.2259 22.0947 12.1774 22.0947C10.7138 22.0947 9.4654 23.0129 8.97507 24.3046L6.86694 29.3649H28.1074L31.1471 22.0948L12.3281 22.0947Z" fill="url(#paint1_linear_427_554)"></path>
  <path d="M21.8229 38.6619L21.8287 38.6584C21.8769 38.6603 21.9251 38.6619 21.9736 38.6619C23.4376 38.6619 24.6862 37.7433 25.1768 36.4513L27.2851 31.3901H6.04036L3 38.6619H21.8229Z" fill="url(#paint2_linear_427_554)"></path>
  <path d="M12.297 22.0977L12.291 22.1014C12.2428 22.0992 12.1946 22.0977 12.1461 22.0977C10.6823 22.0977 9.43353 23.0161 8.9432 24.308L6.83447 29.3694H28.0795L31.1199 22.0978L12.297 22.0977Z" fill="url(#paint3_linear_427_554)"></path>
  <defs>
    <linearGradient id="paint0_linear_427_554" x1="3.33161" y1="37.9716" x2="26.7731" y2="31.6466" gradientUnits="userSpaceOnUse">
      <stop stop-color="#2973A4"></stop>
      <stop offset="0.37" stop-color="#2E7EC1"></stop>
      <stop offset="1" stop-color="#25A3DD"></stop>
    </linearGradient>
    <linearGradient id="paint1_linear_427_554" x1="30.8485" y1="22.7794" x2="7.40708" y2="29.1044" gradientUnits="userSpaceOnUse">
      <stop stop-color="#E40428"></stop>
      <stop offset="0.3189" stop-color="#E10627"></stop>
      <stop offset="0.572" stop-color="#D80D23"></stop>
      <stop offset="0.8016" stop-color="#C9141E"></stop>
      <stop offset="1" stop-color="#B71918"></stop>
    </linearGradient>
    <linearGradient id="paint2_linear_427_554" x1="3.29862" y1="37.9771" x2="26.7449" y2="31.6508" gradientUnits="userSpaceOnUse">
      <stop stop-color="#004884"></stop>
      <stop offset="0.0766" stop-color="#004C89"></stop>
      <stop offset="0.4219" stop-color="#005B9B"></stop>
      <stop offset="0.7391" stop-color="#0065A6"></stop>
      <stop offset="1" stop-color="#0068AA"></stop>
    </linearGradient>
    <linearGradient id="paint3_linear_427_554" x1="30.8213" y1="22.7826" x2="7.37479" y2="29.1089" gradientUnits="userSpaceOnUse">
      <stop stop-color="#E40428"></stop>
      <stop offset="0.3189" stop-color="#E10627"></stop>
      <stop offset="0.572" stop-color="#D80D23"></stop>
      <stop offset="0.8016" stop-color="#C9141E"></stop>
      <stop offset="1" stop-color="#B71918"></stop>
    </linearGradient>
  </defs>
</svg>
