<?xml version="1.0" encoding="UTF-8"?>
<svg xmlns="http://www.w3.org/2000/svg" width="137" height="60" viewBox="0 0 137 60" fill="none">
  <path d="M68.4389 38.5537C68.3119 38.5181 66.3581 38 64.2818 38C60.3508 38 57.9842 40.1826 57.9842 43.4328C57.9842 46.3099 59.964 47.7447 62.3402 48.5166C62.6036 48.6059 62.9918 48.7309 63.2502 48.8189C64.3079 49.161 65.1522 49.6694 65.1522 50.55C65.1522 51.5348 64.1765 52.1724 62.0552 52.1724C60.191 52.1724 58.4038 51.6242 58.0274 51.5265V55.5254C58.2372 55.5713 60.3612 56 62.6302 56C65.8938 56 69.6272 54.5337 69.6272 50.1685C69.6272 48.0512 68.3664 46.102 65.5985 45.1973L64.4219 44.8121C63.7199 44.5843 62.4667 44.2153 62.4667 43.1573C62.4667 42.3216 63.3952 41.7332 65.1049 41.7332C66.5801 41.7332 68.3754 42.2429 68.4389 42.2633V38.5537ZM104.48 47.0002C104.48 49.5287 102.597 51.5742 100.069 51.5742C97.5389 51.5742 95.6603 49.5287 95.6603 47.0002C95.6603 44.4769 97.5389 42.4304 100.069 42.4304C102.597 42.4304 104.48 44.4769 104.48 47.0002ZM100.069 38.0056C94.871 38.0056 91.1431 42.0369 91.1431 47.0002C91.1431 51.9715 94.871 56 100.069 56C105.267 56 109 51.9715 109 47.0002C109 42.0369 105.267 38.0056 100.069 38.0056ZM52.2651 55.6907H48V38.3135H52.2651" fill="#049FD9"></path>
  <path d="M42 38.6229C41.5958 38.5007 40.1015 38 38.0777 38C32.8428 38 29 41.8061 29 46.9975C29 52.5982 33.242 56 38.0777 56C39.9989 56 41.4654 55.5359 42 55.3812V50.7151C41.8151 50.8198 40.409 51.6377 38.3861 51.6377C35.5202 51.6377 33.6717 49.5809 33.6717 46.9975C33.6717 44.3353 35.6001 42.3609 38.3861 42.3609C40.4435 42.3609 41.827 43.1969 42 43.2891" fill="#049FD9"></path>
  <path d="M87 38.6229C86.5958 38.5007 85.1015 38 83.0777 38C77.8428 38 74 41.8061 74 46.9975C74 52.5982 78.242 56 83.0777 56C84.9989 56 86.4654 55.5359 87 55.3812V50.7151C86.8151 50.8198 85.409 51.6377 83.3861 51.6377C80.5202 51.6377 78.6717 49.5809 78.6717 46.9975C78.6717 44.3353 80.6001 42.3609 83.3861 42.3609C85.4435 42.3609 86.827 43.1969 87 43.2891" fill="#049FD9"></path>
  <path d="M47.7036 6.1256C47.7036 4.95187 46.7449 4 45.5698 4C44.3952 4 43.4365 4.95187 43.4365 6.1256V28.7382C43.4365 29.9187 44.3952 30.8702 45.5698 30.8702C46.7449 30.8702 47.7036 29.9187 47.7036 28.7382V6.1256ZM35.9849 14.1525C35.9849 12.9793 35.0267 12.026 33.8516 12.026C32.6765 12.026 31.7183 12.9793 31.7183 14.1525V24.4902C31.7183 25.6703 32.6765 26.6221 33.8516 26.6221C35.0267 26.6221 35.9849 25.6703 35.9849 24.4902V14.1525ZM24.2666 20.0198C24.2666 18.8461 23.3084 17.8947 22.1333 17.8947C20.9596 17.8947 20 18.8461 20 20.0198V24.4902C20 25.6703 20.9596 26.6221 22.1333 26.6221C23.3084 26.6221 24.2666 25.6703 24.2666 24.4902" fill="#049FD9"></path>
  <path d="M43.4365 6.1256C43.4365 4.95187 44.3952 4 45.5703 4C46.7449 4 47.7036 4.95187 47.7036 6.1256V28.7382C47.7036 29.9187 46.7449 30.8702 45.5703 30.8702C44.3952 30.8702 43.4365 29.9187 43.4365 28.7382V6.1256ZM55.1552 14.1525C55.1552 12.9793 56.1135 12.026 57.2886 12.026C58.4636 12.026 59.4219 12.9793 59.4219 14.1525V24.4902C59.4219 25.6703 58.4636 26.6221 57.2886 26.6221C56.1135 26.6221 55.1552 25.6703 55.1552 24.4902V14.1525ZM66.8735 20.0198C66.8735 18.8461 67.8317 17.8947 69.0068 17.8947C70.1806 17.8947 71.1401 18.8461 71.1401 20.0198V24.4902C71.1401 25.6703 70.1806 26.6221 69.0068 26.6221C67.8317 26.6221 66.8735 25.6703 66.8735 24.4902" fill="#049FD9"></path>
  <path d="M90.2964 6.1256C90.2964 4.95187 91.2551 4 92.4302 4C93.6048 4 94.5635 4.95187 94.5635 6.1256V28.7382C94.5635 29.9187 93.6048 30.8702 92.4302 30.8702C91.2551 30.8702 90.2964 29.9187 90.2964 28.7382V6.1256ZM102.015 14.1525C102.015 12.9793 102.973 12.026 104.148 12.026C105.324 12.026 106.282 12.9793 106.282 14.1525V24.4902C106.282 25.6703 105.324 26.6221 104.148 26.6221C102.973 26.6221 102.015 25.6703 102.015 24.4902V14.1525ZM113.733 20.0198C113.733 18.8461 114.692 17.8947 115.867 17.8947C117.04 17.8947 118 18.8461 118 20.0198V24.4902C118 25.6703 117.04 26.6221 115.867 26.6221C114.692 26.6221 113.733 25.6703 113.733 24.4902" fill="#049FD9"></path>
  <path d="M94.5635 6.1256C94.5635 4.95187 93.6048 4 92.4297 4C91.2551 4 90.2964 4.95187 90.2964 6.1256V28.7382C90.2964 29.9187 91.2551 30.8702 92.4297 30.8702C93.6048 30.8702 94.5635 29.9187 94.5635 28.7382V6.1256ZM82.8448 14.1525C82.8448 12.9793 81.8865 12.026 80.7114 12.026C79.5364 12.026 78.5781 12.9793 78.5781 14.1525V24.4902C78.5781 25.6703 79.5364 26.6221 80.7114 26.6221C81.8865 26.6221 82.8448 25.6703 82.8448 24.4902V14.1525ZM71.1265 20.0198C71.1265 18.8461 70.1683 17.8947 68.9932 17.8947C67.8194 17.8947 66.8599 18.8461 66.8599 20.0198V24.4902C66.8599 25.6703 67.8194 26.6221 68.9932 26.6221C70.1683 26.6221 71.1265 25.6703 71.1265 24.4902" fill="#049FD9"></path>
</svg>
