<?xml version="1.0" encoding="UTF-8"?>
<svg xmlns="http://www.w3.org/2000/svg" width="137" height="60" viewBox="0 0 137 60" fill="none">
  <path d="M17.4155 37.5011C17.7159 37.5011 18.002 37.4296 18.2739 37.2724L21.407 35.4708C22.0364 35.1133 22.7661 34.9561 23.4957 35.0419C27.3012 35.4851 29.9622 36.2 30.749 36.4288C30.9064 36.4717 31.0924 36.4145 31.1925 36.2858C31.3213 36.1285 31.4787 35.8711 31.6074 35.4994C31.7219 35.1419 31.7362 34.8417 31.7219 34.6272C31.7076 34.4556 31.5931 34.2983 31.4214 34.2555C30.1911 33.898 24.7404 32.4253 17.4155 32.4253C10.0906 32.4253 4.63986 33.898 3.4095 34.2555C3.23783 34.2983 3.12338 34.4556 3.10907 34.6272C3.09476 34.8274 3.10907 35.1276 3.22352 35.4994C3.33797 35.8711 3.50965 36.1285 3.63841 36.2858C3.73855 36.4145 3.92454 36.4717 4.08191 36.4288C4.86876 36.2 7.54406 35.4851 11.3353 35.0419C12.0649 34.9561 12.7945 35.1133 13.424 35.4708L16.5571 37.2724C16.8289 37.4296 17.1293 37.5011 17.4155 37.5011Z" fill="#0770E3"></path>
  <path d="M12.1937 27.3639C12.3653 27.6641 12.6372 27.8643 12.9519 27.9501C13.2666 28.0359 13.5957 27.993 13.8961 27.8214C14.1965 27.6498 14.3968 27.3782 14.4827 27.0636C14.5685 26.7491 14.5256 26.4202 14.3539 26.1199L11.5356 21.2443C11.4497 21.087 11.2637 21.0298 11.0921 21.0441C10.8632 21.0584 10.5484 21.1728 10.1764 21.3873C9.80448 21.6017 9.54697 21.8162 9.41821 22.0021C9.31806 22.1451 9.28945 22.3309 9.37529 22.4882L12.1937 27.3639Z" fill="#0770E3"></path>
  <path d="M9.61841 30.8527C9.91885 31.0243 10.2622 31.0529 10.5626 30.9814C10.8774 30.8956 11.1492 30.6954 11.3209 30.3952C11.4926 30.0949 11.5212 29.7518 11.4496 29.4515C11.3781 29.1512 11.1635 28.8653 10.8631 28.6937L5.98459 25.877C5.82721 25.7912 5.64123 25.8198 5.49817 25.9199C5.31219 26.0485 5.09759 26.3059 4.88299 26.6777C4.6684 27.0494 4.55394 27.364 4.53964 27.5927C4.52533 27.7786 4.59686 27.9502 4.73993 28.036L9.61841 30.8527Z" fill="#0770E3"></path>
  <path d="M18.6602 25.6338C18.6602 25.977 18.5172 26.2915 18.3026 26.5203C18.0737 26.7491 17.7732 26.8778 17.4156 26.8778C17.0722 26.8778 16.7575 26.7348 16.5286 26.5203C16.2997 26.2915 16.1709 25.9913 16.1709 25.6338V20.0147C16.1709 19.8288 16.2853 19.6858 16.457 19.6143C16.6573 19.5142 16.9864 19.457 17.4156 19.457C17.8447 19.457 18.1738 19.5142 18.3741 19.6143C18.5315 19.7001 18.6602 19.8288 18.6602 20.0147V25.6338Z" fill="#0770E3"></path>
  <path d="M22.6374 27.3639C22.4657 27.6641 22.1939 27.8643 21.8791 27.9501C21.5644 28.0359 21.2353 27.993 20.9349 27.8214C20.6345 27.6498 20.4342 27.3782 20.3483 27.0636C20.2625 26.7491 20.3054 26.4202 20.4771 26.1199L23.2955 21.2443C23.3813 21.087 23.5673 21.0298 23.739 21.0441C23.9679 21.0584 24.2826 21.1728 24.6546 21.3873C25.0265 21.6017 25.284 21.8162 25.4128 22.0021C25.513 22.1451 25.5416 22.3309 25.4557 22.4882L22.6374 27.3639Z" fill="#0770E3"></path>
  <path d="M25.2125 30.8527C24.9121 31.0243 24.5687 31.0529 24.2683 30.9814C23.9535 30.8956 23.6817 30.6954 23.51 30.3952C23.3384 30.0949 23.3098 29.7518 23.3813 29.4515C23.4671 29.1369 23.6674 28.8653 23.9678 28.6937L28.8463 25.877C29.0037 25.7912 29.1897 25.8198 29.3328 25.9199C29.5187 26.0485 29.7333 26.3059 29.9479 26.6777C30.1625 27.0494 30.277 27.364 30.2913 27.5927C30.3056 27.7786 30.2341 27.9502 30.091 28.036L25.2125 30.8527Z" fill="#0770E3"></path>
  <path d="M56.3289 26.9775H58.6752C58.761 26.9775 58.8326 27.0347 58.8755 27.1062L61.2074 33.0828L63.4678 27.1062C63.4964 27.0204 63.5823 26.9775 63.6681 26.9775H65.9714C66.1288 26.9775 66.229 27.1348 66.1574 27.2635L60.4349 40.3892C60.4063 40.4607 60.3204 40.5179 60.2489 40.5179H58.2174C58.0743 40.5179 57.9599 40.3606 58.0314 40.2319L59.9914 35.6422L56.1573 27.2635C56.0714 27.1348 56.1716 26.9775 56.3289 26.9775Z" fill="#0770E3"></path>
  <path d="M90.9648 28.3073V27.1921C90.9648 27.0777 91.0649 26.9776 91.1794 26.9776H93.2538C93.3682 26.9776 93.4684 27.0777 93.4684 27.1921V36.0998C93.4684 36.2142 93.3682 36.3143 93.2538 36.3143H91.1794C91.0649 36.3143 90.9648 36.2142 90.9648 36.0998V34.9274C90.5213 35.6137 89.5484 36.5145 87.9604 36.5145C84.9275 36.5145 83.3538 34.1982 83.3538 31.6102C83.3538 28.2358 85.7 26.7917 87.8889 26.7917C89.3338 26.7774 90.3353 27.4637 90.9648 28.3073ZM85.8574 31.6245C85.8574 33.2259 86.8445 34.4555 88.4325 34.4555C90.0205 34.4555 91.0363 33.3832 91.0363 31.7389C91.0363 30.0946 90.0492 28.8364 88.361 28.8364C86.773 28.8364 85.8574 30.066 85.8574 31.6245Z" fill="#0770E3"></path>
  <path d="M95.3425 36.0996V27.1918C95.3425 27.0775 95.4427 26.9774 95.5571 26.9774H97.6316C97.746 26.9774 97.8462 27.0775 97.8462 27.1918V28.4072C98.3326 27.5636 99.2482 26.7915 100.808 26.7915C102.41 26.7915 104.198 27.5779 104.198 31.1953V36.0996C104.198 36.214 104.098 36.3141 103.984 36.3141H101.909C101.795 36.3141 101.695 36.214 101.695 36.0996V31.2382C101.695 30.366 101.48 28.8647 99.9349 28.8647C98.3898 28.8647 97.8462 30.2231 97.8462 31.4813V36.0996C97.8462 36.214 97.746 36.3141 97.6316 36.3141H95.5571C95.4284 36.2998 95.3425 36.214 95.3425 36.0996Z" fill="#0770E3"></path>
  <path d="M105.972 36.0996V27.1918C105.972 27.0775 106.072 26.9774 106.187 26.9774H108.261C108.376 26.9774 108.476 27.0775 108.476 27.1918V28.4072C108.962 27.5636 109.878 26.7915 111.437 26.7915C113.04 26.7915 114.828 27.5779 114.828 31.1953V36.0996C114.828 36.214 114.728 36.3141 114.613 36.3141H112.539C112.424 36.3141 112.324 36.214 112.324 36.0996V31.2382C112.324 30.366 112.11 28.8647 110.565 28.8647C109.019 28.8647 108.476 30.2231 108.476 31.4813V36.0996C108.476 36.214 108.376 36.3141 108.261 36.3141H106.187C106.072 36.2998 105.972 36.214 105.972 36.0996Z" fill="#0770E3"></path>
  <path d="M127.761 26.9777H129.778C129.893 26.9777 129.993 27.0778 129.993 27.1922V29.0366C130.393 27.2065 131.967 26.5774 133.111 26.849C133.212 26.8633 133.269 26.9491 133.269 27.0492V29.0795C133.269 29.2082 133.154 29.3083 133.011 29.2797C130.894 28.8651 130.036 30.0089 130.036 31.6103C130.036 32.7542 130.036 35.3421 130.036 36.0999C130.036 36.2143 129.935 36.3144 129.821 36.3144H127.747C127.632 36.3144 127.532 36.2143 127.532 36.0999V27.1922C127.546 27.0778 127.646 26.9777 127.761 26.9777Z" fill="#0770E3"></path>
  <path d="M42.5805 29.0082C41.9367 28.7937 41.5933 28.665 41.0783 28.4934C40.549 28.3076 39.6476 27.7928 39.6476 26.9635C39.6476 26.1343 40.2199 25.6052 41.3787 25.6052C42.4374 25.6052 43.024 26.12 43.4102 26.9492C43.4675 27.0636 43.5962 27.1065 43.7107 27.0493L45.4131 26.0628C45.499 26.0056 45.5419 25.8912 45.499 25.7911C44.9839 24.6615 43.7822 23.3032 41.4073 23.3032C38.7607 23.3032 37.1011 24.876 37.1011 26.9492C37.1011 29.0082 38.4602 30.0805 40.3057 30.7097C40.9781 30.9384 41.25 31.0385 41.8222 31.2244C42.9095 31.5961 43.4102 32.0823 43.4102 32.7543C43.4102 33.4263 42.981 34.227 41.2929 34.227C39.7478 34.227 39.2042 33.412 38.8894 32.6399C38.8465 32.5255 38.7034 32.4683 38.589 32.5398L36.8007 33.5693C36.7148 33.6265 36.6719 33.7266 36.7148 33.8266C37.4015 35.5138 39.2757 36.5147 41.3787 36.5147C43.8537 36.5147 45.9425 35.2565 45.9425 32.7114C45.9425 30.1663 43.2243 29.2227 42.5805 29.0082Z" fill="#0770E3"></path>
  <path d="M56.2432 33.8693C56.1859 33.7692 56.0429 33.7263 55.9427 33.7978C55.1416 34.384 54.1974 34.3983 53.482 33.2974C52.8812 32.368 52.1515 31.2242 52.1515 31.2242L55.2989 27.3208C55.4134 27.1778 55.3132 26.9776 55.1416 26.9776H52.6809C52.6093 26.9776 52.5521 27.0062 52.5092 27.0634L49.791 30.7952V23.2887C49.791 23.1743 49.6908 23.0742 49.5764 23.0742H47.5019C47.3875 23.0742 47.2874 23.1743 47.2874 23.2887V36.0998C47.2874 36.2142 47.3875 36.3143 47.5019 36.3143H49.5907C49.7051 36.3143 49.8053 36.2142 49.8053 36.0998V31.9391C49.8053 31.9391 51.193 34.1267 51.7223 34.9417C52.4377 36.0569 53.4391 36.5145 54.5264 36.5145C55.5565 36.5145 56.2146 36.2428 57.0014 35.4707C57.0729 35.3992 57.0872 35.2991 57.0443 35.2133L56.2432 33.8693Z" fill="#0770E3"></path>
  <path d="M71.136 30.9237C70.4779 30.6806 70.249 30.5948 69.7483 30.4089C69.2476 30.2231 68.8041 29.9514 68.8041 29.551C68.8041 29.1507 69.1761 28.7075 69.9343 28.7075C70.5924 28.7075 70.993 28.9648 71.2219 29.4224C71.2791 29.5367 71.4079 29.5653 71.508 29.5081L72.9673 28.6646C73.0674 28.6074 73.096 28.4787 73.0388 28.3786C72.6382 27.678 71.8514 26.7915 69.9486 26.7915C67.6167 26.7915 66.4149 28.1355 66.4149 29.6225C66.4149 31.1095 67.631 31.8101 68.7469 32.2534C70.0058 32.7681 70.0917 32.7967 70.249 32.8539C70.6353 33.0112 71.1074 33.2543 71.1074 33.6975C71.1074 34.1407 70.5924 34.5411 69.8055 34.5411C69.0759 34.5411 68.2461 34.2408 67.9028 33.3972C67.8599 33.2829 67.7168 33.2257 67.6024 33.2972L66.1288 34.1407C66.043 34.1979 66 34.298 66.043 34.3981C66.4722 35.5134 67.7454 36.4999 69.8055 36.4999C72.0373 36.4999 73.5252 35.3132 73.5252 33.6403C73.5252 31.9674 72.3807 31.3812 71.136 30.9237Z" fill="#0770E3"></path>
  <path d="M79.5195 29.0079C80.4495 29.0079 81.1362 29.2938 81.78 29.7514C81.8801 29.8228 82.0232 29.7942 82.0804 29.6942L82.9388 28.2072C82.996 28.1071 82.9674 27.9927 82.8672 27.9355C81.9802 27.335 80.8786 26.7773 79.3908 26.7773C77.9172 26.7773 76.5581 27.1777 75.5853 28.1643C74.6124 29.1365 74.1689 30.2947 74.1689 31.6673C74.1689 33.3259 74.8557 34.3839 75.5996 35.1275C76.3435 35.871 77.6883 36.5001 79.4051 36.5001C80.9502 36.5001 82.0947 35.8567 82.8815 35.3419C82.9674 35.2847 82.996 35.156 82.9388 35.0703L82.0947 33.5976C82.0375 33.4975 81.8944 33.4546 81.7943 33.5261C81.2363 33.9264 80.4352 34.2696 79.5338 34.2696C78.5181 34.2696 76.6726 33.6976 76.6726 31.6387C76.6726 29.5798 78.5038 29.0079 79.5195 29.0079Z" fill="#0770E3"></path>
  <path d="M121.609 34.4411C120.779 34.4411 119.992 34.241 119.42 33.7834C118.848 33.3259 118.576 32.8541 118.576 32.2964H125.987C126.101 32.2964 126.201 32.1963 126.201 32.082C126.158 29.88 125.443 28.8506 124.756 28.15C124.041 27.4351 122.825 26.7773 121.223 26.7773C119.62 26.7773 118.39 27.3636 117.546 28.1929C116.716 29.0221 116.087 30.0802 116.087 31.6816C116.087 33.283 116.73 34.3411 117.517 35.1275C118.304 35.9138 119.592 36.5001 121.437 36.5001C123.183 36.5001 124.656 35.8853 125.715 34.6699C125.801 34.5698 125.772 34.4125 125.658 34.3554L124.184 33.4975C124.113 33.4546 124.012 33.4546 123.941 33.5261C123.211 34.2124 122.281 34.4411 121.609 34.4411ZM121.208 28.7791C122.396 28.7791 123.483 29.494 123.655 30.7808H118.662C118.991 29.3939 120.021 28.7791 121.208 28.7791Z" fill="#0770E3"></path>
</svg>
