<?xml version="1.0" encoding="UTF-8"?>
<svg xmlns="http://www.w3.org/2000/svg" width="137" height="60" viewBox="0 0 137 60" fill="none">
  <path d="M84.3351 21.9217C81.6208 22.8051 81.544 22.8307 81.544 23.1764C81.544 23.4453 81.6208 23.5349 81.9153 23.5861C82.1201 23.6245 82.453 23.8037 82.6451 23.9702C82.9779 24.2519 83.0164 24.3799 83.0548 25.2377L83.106 26.1979L81.9281 26.2747C80.4173 26.39 79.3931 26.6588 78.2792 27.235C76.077 28.4001 74.7967 30.5382 74.6687 33.2781C74.4895 37.0806 76.4227 39.5772 79.5595 39.59C80.827 39.6028 81.7616 39.2187 82.6323 38.3353L83.2084 37.7336V38.6426V39.5516H85.9611H88.7138V39.1803C88.7138 38.8858 88.6113 38.745 88.2656 38.5402C87.4078 38.0408 87.4334 38.2713 87.4334 29.1811C87.4334 22.7027 87.395 20.987 87.2798 20.9999C87.1902 20.9999 85.8587 21.4224 84.3351 21.9217ZM83.0548 31.9721C83.0804 35.5698 83.0676 35.9027 82.8371 36.4148C82.5298 37.119 81.9793 37.4263 81.1983 37.3367C79.6107 37.1574 78.5993 35.3394 78.5993 32.6379C78.5993 29.7188 79.9692 27.9776 82.1842 28.0672L83.0164 28.0928L83.0548 31.9721Z" fill="black"></path>
  <path d="M92.1453 21.9223C89.4311 22.7929 89.3542 22.8313 89.3542 23.1642C89.3542 23.4459 89.4311 23.5355 89.8408 23.6507C90.1096 23.7404 90.4425 23.9196 90.5834 24.0732C90.8138 24.3293 90.8266 24.6494 90.8522 30.9613C90.8778 36.1082 90.8522 37.6446 90.7242 37.8878C90.6346 38.0671 90.3529 38.3488 90.084 38.5152C89.6999 38.7713 89.6103 38.8993 89.6359 39.1553L89.6743 39.4882L93.1056 39.5266L96.524 39.5522V39.1682C96.524 38.8737 96.4344 38.7456 96.1399 38.592C95.9223 38.4768 95.6278 38.2079 95.4998 37.9775C95.2565 37.5806 95.2437 37.2733 95.2437 29.2713C95.2437 22.7289 95.2053 20.9877 95.0901 21.0005C95.0004 21.0005 93.6689 21.423 92.1453 21.9223Z" fill="black"></path>
  <path d="M12.407 23.0614C7.78502 23.7144 4.72507 27.3889 5.01954 31.934C5.17318 34.2642 5.92857 36.0054 7.41373 37.5034C9.25738 39.3726 11.5107 40.1152 13.8153 39.6287C15.6718 39.2318 17.0801 38.2716 18.1556 36.6584C19.1158 35.2244 19.3847 34.2514 19.3847 32.1901C19.3719 31.2682 19.3335 30.308 19.2822 30.0391L19.1798 29.5654L16.2735 29.591L13.3672 29.6294L13.3288 30.0135C13.3032 30.3208 13.4952 30.6409 14.3018 31.6779C14.8396 32.3821 15.7486 33.5472 16.2991 34.277L17.2978 35.5829L17.0033 35.8518C16.3759 36.3895 15.5949 36.6456 14.5835 36.6584C13.7641 36.6584 13.4952 36.6071 12.7654 36.2615C10.2432 35.0708 8.38677 31.806 8.39957 28.5412C8.39957 26.2366 9.41102 25.0971 11.3443 25.2379C12.5606 25.3276 13.5464 25.9293 15.8254 27.9778C16.6448 28.7204 16.7216 28.7588 17.0417 28.618L17.3746 28.4771L16.5168 25.7885L15.6718 23.0998L15.0956 23.0102C14.3274 22.895 13.4184 22.9078 12.407 23.0614Z" fill="black"></path>
  <path d="M43.0706 23.0362C41.0733 23.3307 39.4858 24.1117 38.1414 25.456C36.4642 27.1588 35.7856 28.9 35.7856 31.5503C35.7856 33.3427 36.0801 34.5718 36.8355 36.0314C37.4501 37.2093 38.7176 38.4896 39.8186 39.0273C43.0834 40.6277 46.6811 39.5522 48.1407 36.5179C48.576 35.6089 48.7168 34.7767 48.5248 34.2645L48.3839 33.9061L47.9614 34.4438C47.0396 35.6601 46.0666 36.1338 44.5174 36.121C41.5599 36.1082 39.1913 32.8306 39.1273 28.6568C39.1145 27.4021 39.1401 27.2612 39.4858 26.5571C39.9851 25.584 40.3692 25.3023 41.3294 25.2383C42.7121 25.1359 43.4931 25.5456 45.7465 27.5813C47.0012 28.708 47.1164 28.7848 47.4237 28.6696C47.6158 28.5928 47.7438 28.4647 47.7182 28.3751C47.6798 28.2983 47.2957 27.0564 46.8476 25.648L46.041 23.0618L45.388 22.985C44.607 22.8954 43.9284 22.9082 43.0706 23.0362Z" fill="black"></path>
  <path d="M26.4903 25.9807C22.9566 26.5312 20.5368 29.3351 20.5496 32.8944C20.5624 35.916 22.2652 38.3614 25.0819 39.3984C26.2214 39.8209 28.1547 39.9233 29.307 39.6289C33.8265 38.4894 35.9774 33.765 33.8777 29.5784C32.623 27.0562 29.4606 25.5198 26.4903 25.9807ZM27.5913 27.9652C29.4606 29.3992 31.2146 35.2118 30.3568 37.1579C29.7807 38.451 28.2827 38.5406 27.1688 37.3627C25.8885 35.98 24.4418 31.7165 24.6082 29.732C24.6338 29.2967 24.7746 28.7206 24.9155 28.4645C25.4276 27.4787 26.6567 27.2482 27.5913 27.9652Z" fill="black"></path>
  <path d="M52.8133 26.1858C51.6226 26.4674 50.3935 27.1972 49.5613 28.0806C48.5754 29.1433 48.2426 29.8219 48.4218 30.398L48.5498 30.8333L48.9595 30.4876C50.0478 29.5146 51.2385 29.1177 52.7877 29.2073C53.4278 29.2457 53.9912 29.3482 54.2728 29.489C54.7466 29.7322 55.4251 30.3212 55.4251 30.4748C55.4251 30.526 54.8874 30.8717 54.2472 31.243C52.6084 32.1648 51.6354 32.869 50.8672 33.6884C49.971 34.6231 49.6381 35.3272 49.5613 36.3771C49.5101 37.1197 49.5485 37.3373 49.843 37.9391C50.5471 39.373 52.2243 40.0644 54.0808 39.6803C55.5404 39.373 56.7054 38.5408 57.3456 37.3245L57.6529 36.7484L58.0242 37.5166C58.7283 38.9889 59.791 39.7059 61.3018 39.7059C62.3388 39.7187 63.1198 39.4114 63.7728 38.7329C64.1953 38.2976 64.2209 38.2335 64.0929 37.8238C63.9904 37.4654 63.9264 37.4141 63.7344 37.5038C63.4015 37.683 62.9022 37.4525 62.6845 37.03C62.5821 36.838 61.9931 35.148 61.3914 33.2787C60.1495 29.489 59.7014 28.58 58.5619 27.5429C57.0511 26.1602 54.9514 25.6608 52.8133 26.1858ZM56.3085 32.9458C56.8719 34.7255 56.9487 35.6217 56.603 36.3899C56.3854 36.8764 56.2573 37.0044 55.8348 37.1325C54.2857 37.5934 53.2358 36.2875 53.7095 34.4822C53.8119 34.0725 54.0296 33.5348 54.1832 33.2915C54.5417 32.6898 55.5532 31.6143 55.7452 31.6143C55.822 31.6143 56.0781 32.2161 56.3085 32.9458Z" fill="black"></path>
  <path d="M102.426 26.1217C101.478 26.3009 100.275 26.9539 99.4811 27.7093C98.1752 28.9512 97.5094 30.59 97.4966 32.5745C97.4838 36.7739 100.301 39.7314 104.334 39.7314C105.166 39.7314 105.767 39.6546 106.254 39.501C108.366 38.7968 109.877 37.1708 110.543 34.9047C110.722 34.3029 110.722 34.0981 110.594 33.7012L110.441 33.2274L110.197 33.7268C109.813 34.4565 108.84 35.3528 107.982 35.7881C107.291 36.121 107.086 36.1594 105.921 36.1594C104.705 36.1594 104.59 36.1338 103.681 35.6857C103.168 35.4296 102.567 35.0455 102.375 34.8406L102.016 34.4694L102.772 33.9572C103.181 33.6756 104.743 32.6257 106.241 31.6271C108.495 30.1035 108.943 29.7578 108.879 29.5529C108.559 28.5799 107.278 27.146 106.228 26.6082C105.204 26.0833 103.629 25.8784 102.426 26.1217ZM103.066 28.119C103.271 28.247 103.553 28.5799 103.693 28.8616C104.269 30.0523 103.873 31.1277 102.298 32.6897L101.286 33.7012L100.966 33.0738C99.6091 30.4108 100.211 27.9013 102.195 27.9013C102.477 27.9013 102.861 28.0038 103.066 28.119Z" fill="black"></path>
  <path d="M72.9275 26.2882C71.9929 26.6339 71.3143 27.1844 69.97 28.7336L69.6371 29.1177L69.7139 27.6709L69.8035 26.237H66.7052H63.6196V26.5827C63.6324 26.8771 63.7477 27.0052 64.2982 27.3252C65.4377 27.9782 65.4121 27.8758 65.4121 33.3299V38.0543L64.964 38.4768C64.6823 38.7456 64.5158 39.0145 64.5158 39.2194V39.5522H67.8447H71.1735V39.1169C71.1735 38.7713 71.1095 38.6688 70.879 38.6048C70.7254 38.5664 70.4181 38.3616 70.2132 38.1439L69.8292 37.747L69.7907 33.842L69.7523 29.9499L70.1108 29.7962C70.3029 29.7194 70.9942 29.6426 71.6216 29.6426C72.5818 29.6426 72.9147 29.7066 73.6189 29.9883C74.3231 30.2828 74.5279 30.3212 74.784 30.1931L75.1041 30.0523L74.5023 28.119C73.8365 25.9809 73.8237 25.9681 72.9275 26.2882Z" fill="black"></path>
  <path d="M114.794 26.3007C113.373 26.6591 112.336 27.4145 111.823 28.4516C111.209 29.7319 111.26 30.8842 112.015 32.0237C112.553 32.8303 113.411 33.4448 115.728 34.6611C117.879 35.7878 118.391 36.1975 118.507 36.9017C118.648 37.7979 118.007 38.5277 117.086 38.5277C116.138 38.5277 114.499 37.5546 112.72 35.9158C111.759 35.0452 111.619 34.9556 111.337 35.058L111.017 35.186L111.631 37.0809C112.361 39.3215 112.336 39.3087 114.461 39.6287C117.905 40.1537 120.453 39.2062 121.451 37.0297C121.733 36.4151 121.771 36.1975 121.72 35.2757C121.682 34.4307 121.592 34.0978 121.323 33.6369C120.709 32.5742 120.043 32.0877 116.893 30.4233C115.716 29.7959 114.807 29.2326 114.653 29.0277C114.051 28.1827 114.576 27.2609 115.677 27.2609C116.42 27.2609 117.226 27.6706 118.481 28.6948C119.019 29.143 119.595 29.6039 119.749 29.7191C120.03 29.9624 120.594 29.9111 120.594 29.6423C120.594 29.5655 120.363 28.7973 120.069 27.9395C119.736 26.9408 119.48 26.3519 119.339 26.3007C118.84 26.1086 115.549 26.1086 114.794 26.3007Z" fill="black"></path>
  <path d="M126.009 26.301C124.588 26.6979 123.525 27.4661 122.988 28.4775C122.77 28.8872 122.706 29.2073 122.706 30.0907C122.706 31.0894 122.744 31.243 123.09 31.8191C123.653 32.7154 124.652 33.4579 126.88 34.623C129.005 35.7241 129.607 36.2106 129.735 36.902C130.004 38.3615 128.519 38.9377 126.777 38.0415C125.932 37.6062 124.985 36.8892 123.705 35.6985C123.116 35.1479 122.847 34.9815 122.642 35.0327C122.501 35.0711 122.36 35.1479 122.322 35.1864C122.296 35.2376 122.54 36.1338 122.872 37.1837L123.487 39.0913L124.242 39.3346C126.176 39.9235 128.608 39.8979 130.234 39.2962C132.257 38.5408 133.461 36.2362 132.833 34.3285C132.411 33.0738 131.323 32.1392 128.711 30.7693C126.585 29.6682 126.022 29.3097 125.792 28.9256C125.292 28.055 125.804 27.2612 126.854 27.2612C127.674 27.2612 128.493 27.6965 129.965 28.9128C130.977 29.7578 131.246 29.9115 131.527 29.8603C131.732 29.8218 131.847 29.7194 131.822 29.6298C131.783 29.553 131.54 28.7848 131.284 27.9398C130.721 26.1217 130.938 26.2626 128.403 26.1729C127.11 26.1217 126.509 26.1601 126.009 26.301Z" fill="black"></path>
</svg>
