<?xml version="1.0" encoding="UTF-8"?>
<svg xmlns="http://www.w3.org/2000/svg" width="137" height="60" viewBox="0 0 137 60" fill="none">
  <path d="M28.4722 26.3491L29.4853 37.7474L25.4375 38.0963L24.479 27.3975C24.3229 25.5437 22.8321 24.0864 20.7325 24.2678C18.6782 24.4446 17.434 26.1447 17.5979 27.9893L18.5486 38.6881L14.5008 39.0371L13.5517 28.3398C13.3863 26.486 11.897 25.0287 9.80522 25.2101C7.74308 25.3869 6.49737 27.0793 6.66284 28.9332L7.61976 39.6319L3.56104 39.9794L2 22.3586L5.83392 22.0281L5.94632 23.2871C6.99222 22.1757 8.46272 21.4148 10.3172 21.2549C12.4403 21.072 14.2901 21.7576 15.5811 23.0211C16.7378 21.547 18.5471 20.5463 20.7825 20.3541C24.938 19.996 28.1366 22.5738 28.4722 26.3491ZM60.4127 19.0629C65.8295 19.0629 69.779 23.0995 69.779 28.329C69.779 33.4187 65.8233 37.5245 60.4127 37.5245C55.0021 37.5245 51.0464 33.4187 51.0464 28.329C51.0386 23.098 54.9959 19.0629 60.4127 19.0629ZM60.4127 33.5924C63.5488 33.5924 65.7202 31.3465 65.7202 28.3275C65.7202 25.2393 63.5457 22.9935 60.4127 22.9935C57.2797 22.9935 55.1051 25.2393 55.1051 28.3275C55.102 31.3465 57.2766 33.5924 60.4127 33.5924ZM87.8574 30.8946L86.8818 41.8732L82.8371 41.5165L83.7503 31.2374C83.9392 29.1053 82.6014 27.2638 80.2223 27.0578C77.8808 26.8564 76.1995 28.4413 76.0075 30.5703L75.0943 40.8494L71.0465 40.5005L72.6076 22.8797L76.6195 23.2256L76.5008 24.5537C77.8043 23.5745 79.4933 23.0857 81.376 23.2471C85.5018 23.6099 88.2164 26.8733 87.8574 30.8946ZM108.619 28.5412C108.619 33.6646 104.913 37.7366 99.6729 37.7366C97.4984 37.7366 95.6142 36.9988 94.2561 35.8059V44.7907H90.1974V19.6624H94.2249V21.2411C95.6142 20.0113 97.5031 19.275 99.6776 19.275C104.906 19.2766 108.619 23.3117 108.619 28.5412ZM104.561 28.5412C104.561 25.453 102.422 23.1718 99.3576 23.1718C96.2449 23.1718 94.1016 25.453 94.1016 28.5412C94.1016 31.5587 96.2402 33.8414 99.3404 33.8414C102.411 33.8414 104.55 31.5602 104.55 28.5412H104.561ZM136 21.298L134.481 38.3945C134.064 43.149 130.162 46.4063 124.973 45.959C120.889 45.607 117.967 43.066 117.203 39.5828L121.089 38.5436C121.485 40.5158 123.043 41.9254 125.316 42.113C128.126 42.3543 130.205 40.6311 130.446 37.9395L130.602 36.1917C129.183 37.2678 127.31 37.8104 125.251 37.6336C120.351 37.2109 117.071 33.0543 117.506 28.1584C117.945 23.2287 121.877 19.6916 126.807 20.1174C128.866 20.2942 130.647 21.1934 131.852 22.5246L131.993 20.9521L136 21.298ZM131.345 29.3882C131.598 26.5551 129.725 24.2801 126.883 24.0357C124.042 23.7913 121.798 25.7112 121.546 28.5427C121.304 31.2697 123.178 33.5447 126.017 33.7891C128.857 34.0335 131.098 32.1136 131.347 29.3866L131.345 29.3882ZM40.283 23.098C34.8662 23.098 30.9168 27.1346 30.9168 32.3641C30.9168 37.4538 34.8725 41.5596 40.283 41.5596C45.6936 41.5596 49.6493 37.4538 49.6493 32.3641C49.6571 27.1331 45.7014 23.098 40.283 23.098ZM40.283 37.6275C37.1469 37.6275 34.9755 35.3816 34.9755 32.3626C34.9755 29.2744 37.15 27.0286 40.283 27.0286C43.4161 27.0286 45.5906 29.2744 45.5906 32.3626C45.5937 35.3816 43.4207 37.6275 40.283 37.6275ZM112.784 14.001C113.138 13.9916 113.489 14.0534 113.818 14.1823C114.146 14.3113 114.445 14.5048 114.695 14.751C114.945 14.9973 115.142 15.2911 115.272 15.6146C115.403 15.9381 115.466 16.2845 115.457 16.6326C115.457 17.3308 115.175 18.0003 114.674 18.494C114.172 18.9877 113.492 19.265 112.783 19.265C112.074 19.265 111.394 18.9877 110.893 18.494C110.392 18.0003 110.11 17.3308 110.11 16.6326C110.101 16.2844 110.163 15.9378 110.294 15.6142C110.425 15.2906 110.622 14.9967 110.872 14.7505C111.123 14.5042 111.421 14.3107 111.75 14.1818C112.079 14.053 112.43 13.9914 112.784 14.001ZM114.814 40.2868H110.755V22.6H114.814V40.2868Z" fill="#FFA6B6"></path>
</svg>
