<?xml version="1.0" encoding="UTF-8"?>
<svg xmlns="http://www.w3.org/2000/svg" width="137" height="60" viewBox="0 0 137 60" fill="none">
  <path d="M19.1194 51.9817C15.3055 51.8323 12.1852 50.8028 9.74533 48.8908C9.2797 48.5255 8.17015 47.4304 7.79791 46.9685C6.80852 45.7413 6.13587 44.5469 5.68722 43.2218C4.30665 39.1427 5.01718 33.79 7.71954 27.9154C10.0333 22.8861 13.6036 17.898 19.8325 10.9896C20.7501 9.973 23.4825 7 23.5001 7C23.5066 7 23.3577 7.25446 23.1703 7.56433C21.5507 10.2404 20.1649 13.3924 19.41 16.1213C18.1972 20.5 18.3435 24.2576 19.8384 27.1714C20.8696 29.1787 22.6374 30.9174 24.6253 31.8786C28.1055 33.5606 33.2006 33.6998 39.423 32.2857C39.8514 32.1878 61.0798 26.629 86.5975 19.9324C112.115 13.2353 132.997 7.76016 133 7.76467C133.007 7.77048 73.7152 32.7979 42.9358 45.7819C38.0614 47.8375 36.7579 48.3567 34.4663 49.1504C28.6083 51.1797 23.361 52.1479 19.1194 51.9817Z" fill="black"></path>
</svg>
